<svg xmlns="http://www.w3.org/2000/svg" width="80" height="80" viewBox="0 0 80 80"><g><g><path fill="#fff" d="M80 40.003l-5.026 5.024-34.016-34.035.497-.499L72.658 41.7l.04.055 1.618-1.632-1.685-1.698-.04-.04-.675.661-.499-.499 3.557-3.557zm-71.93.96l.5.5-3.558 3.556L0 39.994l5.012-5.012 34.033 34.012-.5.499L7.49 38.444l-.053-.039-1.697 1.697 1.548 1.549.042.04zm36.862-31.25l25.892 25.889-.499.499-25.892-25.89zm25.113 21.323L49.499 10.494l.499-.497 20.544 20.54zM35.527 70.894L9.648 45.004l.5-.512 25.892 25.89zM10.483 49.49L31.04 70.045l-.5.499L9.985 49.988zm59.842-5.387l.5.512L44.931 70.49l-.499-.499zm-.39 4.957l.5.497L49.89 70.1l-.499-.485zM10.148 35.706l-.499-.499 25.88-25.885.512.485zm.243-5.09l-.5-.5L30.436 9.564l.499.5zm31.068 40.803l3.558 3.556L40.002 80l-5.027-5.025 34.029-34.012.512.5-31.212 31.195 1.737 1.724 1.701-1.683-.783-.782zM38.532 8.568l-3.557-3.543L40 0l5.01 5.025-34.03 34.012-.484-.497 31.12-31.131-1.548-1.536-.042-.053-1.629 1.63.633.619zm7.032 25.538c-.012.014-.026.042-.04.067-.39.742-1.67 3.354-1.75 5.402-.04.823.16 1.51.552 1.901.27.27.646.403 1.104.403h.122c1.589-.08 4.635-.93 6.102-2.518 1.322-1.441 1.132-3.409-.485-5.039-.23-.228-.471-.47-.713-.687l-.122-.12c-1.335-1.294-2.6-2.505-2.708-3.866-.041-.297-.324-2.938.85-3.975.47-.416.996-.51 1.481-.283.821.391 1.293 1.55 1.265 2.398a3.747 3.747 0 0 1-.269 1.32l-.053.135.135-.04c.364-.095.66-.27.888-.539.283-.35.35-.888.175-1.387a1.364 1.364 0 0 0-.228-.445 1.105 1.105 0 0 1-.255-.874c.47.133.874.552 1.063 1.117.241.713.135 1.467-.283 1.98-.78.942-2.035.822-2.088.822l-.403-.054c-.027 0-.056-.028-.068-.054a.087.087 0 0 1 .012-.096l.27-.308s.458-.54.5-1.589c.013-.7-.431-1.59-.916-1.832-.271-.122-.54-.055-.823.189-.81.713-.742 2.72-.646 3.448l.014.014c.08 1.13 1.265 2.262 2.52 3.474.268.255.551.538.834.822 1.845 1.846 2.047 4.216.497 5.886-1.603 1.724-4.782 2.627-6.52 2.708-.054.013-.107.013-.162.013-.62 0-1.133-.202-1.522-.593-.512-.512-.781-1.347-.74-2.356.04-.89.283-1.968.727-3.193l.094-.244-.2.177c-1 .876-2.05 1.414-2.98 1.885l-.053.028c-.297.147-.58.294-.835.443a.685.685 0 0 1-.041-.457.71.71 0 0 1 .336-.405l.31-.16c1.375-.688 3.072-1.564 4.311-3.476.069-.095.122-.189.189-.297l.053-.094c.675-1.32 1.12-3.515.54-5.455-.027-.122-.08-.242-.12-.377l-.069.027-.068.012c.204 1.24.056 2.56-.12 3.315-.538 2.236-2.25 3.393-4.649 4.471-2.074.929-2.37 2.614-2.396 3.301-.014.363.497 1.225.982 2.02l.027.054c.095.149.175.283.256.418l.11.202c.145.256.618 1.267.78 3.435.188 2.464.524 3.784 1.899 4.163.687.186 1.441.2 2.046.2.945.028 1.524.069 1.524.62-.013.405-.163 2.155-.82 2.748-.635.58-1.012.485-2.132.216h-.012c-.257-.055-.485.014-.687.216-.296.31-.485.86-.458 1.347l.012.053.042.014c.445.08.983.39 1.146.82.04.07.067.095.093.109.068.027.216.027.554-.014l.47-.04c.162-.013.325-.013.472-.027h.08c.755-.041 1.484-.067 1.672-.499.094-.216.268-.726.47-1.32.823-2.478 1.241-3.542 1.671-3.73h.04v-.04c.013-.027.04-.149-.04-.365-.133-.377-.43-.713-.727-.848-.188-.08-.567-.067-.917-.055-.605.027-1.306.055-1.683-.39-.214-.242-.283-.606-.202-1.063.067-.405.135-.754.202-1.092.216-1.076.363-1.858.283-2.789.161 0 .308.069.432.177.134.12.216.295.2.483-.012.729-.147 1.428-.31 2.25l-.014.055c-.066.323-.12.645-.186 1.024-.054.269-.028.457.066.565.177.2.729.189 1.199.175.432-.027.848-.041 1.174.094.7.297 1.159 1.131 1.143 1.71 0 .31-.147.553-.39.674l-.026.014c-.283.255-.81 1.765-1.336 3.34-.214.646-.375 1.145-.483 1.375-.352.78-1.294.82-2.21.862h-.027a6.076 6.076 0 0 1-.499.026c-.175.013-.336.04-.471.054a5.74 5.74 0 0 1-.472.026c-.31 0-.565-.08-.78-.471l-.027-.053c-.055-.189-.485-.444-.81-.444h-.039c-.135.013-.284-.095-.325-.216v-.014c-.187-.727.056-1.683.58-2.21.35-.349.794-.496 1.254-.376h.026c1.078.255 1.186.269 1.577-.08.404-.352.579-1.644.606-2.17v-.054l-.054-.013c-.175-.04-.552-.053-.835-.053h-.028c-.634-.014-1.428-.028-2.195-.23-1.886-.512-2.169-2.437-2.345-4.715l-.081-.793-.014-.055-.053-.014c-1.131-.053-2.156-.66-3.044-1.777l-.041-.055-.04.027c-.687.377-2.977 1.658-3.692 2.68-.58.85-1.05 2.021-.028 2.897.31.27.823.566 1.322.862 1.01.607 1.644.998 1.737 1.442a.6.6 0 0 1-.081.432 3.87 3.87 0 0 0-.228.389c-.351.62-.917 1.657-1.901 1.335-1.332-.432-1.98-.257-2.276-.041-.23.174-.378.47-.43.875v.067l.052.014c.594.161.904.687.984.835 0 .027.012.04.026.04l.016.014c.08.054.363.081 1.01.081h.255c.31 0 .593.014.795.027.674.04.862.026 1.092-.282.147-.177.416-.581.727-1.039l.025-.04c1.389-2.061 1.82-2.613 2.104-2.721.08-.014.133-.108.149-.202.014-.095-.016-.228-.216-.35-.096-.067-.324-.134-.554-.188-.605-.175-1.36-.377-1.683-.97-.163-.31-.175-.688-.04-1.106.376-1.17 2.383-1.589 3.609-1.736.015.23.043.43.068.605-.888.108-2.814.446-3.097 1.321-.082.256-.082.458.012.62.188.362.809.539 1.306.673.283.08.526.149.701.257.35.214.54.565.499.94a.844.844 0 0 1-.525.715l-.013.014c-.257.189-1.065 1.36-1.793 2.45l-.014.028c-.35.513-.619.917-.782 1.104-.43.567-.929.554-1.575.512h-.067c-.216-.012-.471-.039-.768-.025-1.225.013-1.59-.014-1.82-.46-.067-.133-.323-.552-.794-.552a.305.305 0 0 1-.31-.31v-.025c0-.768.23-1.348.687-1.685.607-.43 1.548-.458 2.829-.04.418.134.728-.243 1.172-1.052l.014-.026c.068-.121.135-.243.202-.35l.027-.04-.027-.028c-.163-.241-.915-.687-1.414-.996-.499-.282-1.051-.62-1.414-.93-1.053-.888-1.079-2.235-.067-3.69.752-1.106 2.909-2.345 3.81-2.83l.069-.04-.041-.054c-.244-.375-.417-.727-.54-.97l.23-.04c.135-.027.269-.053.392-.094.51 1.01 1.587 2.667 3.259 2.87l.096.013-.014-.094c-.163-.795-.338-1.267-.432-1.483a6.386 6.386 0 0 0-.31-.538c-.053-.08-.093-.16-.15-.243-.47-.766-.862-1.44-1.007-1.966l-.041-.122-.083.095c-.483.593-1.035.928-1.736 1.078-.904.174-1.982-.27-2.937-.647-.648-.257-1.201-.47-1.402-.404-.565.175-.97.027-1.159-.08l-.04-.014-.028.027a2.468 2.468 0 0 0-.86.982c-.271.567-.54.634-.918.58-.16-.026-.308-.054-.646.215a.303.303 0 0 1-.242.067.274.274 0 0 1-.202-.147c-.377-.593-.39-1.832-.39-1.966v-.176l.147-.081c.648-.416 1.414-1.01 1.51-1.24.161-.537.43-.902.807-1.117.364-.188.794-.215 1.293-.066.512.16 1.375.2 2.345.12l.149-.014-.094-.106c-.23-.216-.743-.446-.768-.46-.15-.027-.271-.04-.338-.053a3.104 3.104 0 0 1-1.952-.942l-.028-.028-.296.122-.122-.069c-.12-.067-.526-.35-.754-1.55-.122-.618.012-1.413.121-2.1.08-.484.148-.97.12-1.185l-.013-.094-.093.053a.64.64 0 0 1-.566.067c-.498-.175-.702-.619-.809-.888l-.027-.04c-.08-.068-.309-.136-.446-.162h-.053a.263.263 0 0 1-.173-.122c-.043-.053-.057-.135-.043-.202l.014-.053c.163-.66.687-1.738 1.577-1.524.135.042.283.069.46.096h.011c.81.162 1.819.364 2.049 1.118.066.216.133.526.23.89.188.807.484 2.032.78 2.478.256.39.404.538.457.606l.014.014h.027c.62.147 1.886.417 2.91.566-.268.16-.498.336-.7.51a38.503 38.503 0 0 1-2.424-.498l-.043-.012c-.067-.028-.228-.083-.739-.837-.379-.538-.662-1.777-.876-2.68-.096-.35-.163-.66-.23-.862-.121-.403-.929-.566-1.577-.686a6.846 6.846 0 0 1-.497-.108h-.068c-.297 0-.526.444-.646.727l-.028.067.067.013c.27.108.446.256.513.432l.013.026c.12.283.216.471.446.554h.053l.014-.014c.322-.257.605-.216.862.106.27.324.175.917.04 1.738-.107.646-.217 1.375-.12 1.887.094.538.227.835.322.996l.04.04.176-.068a.298.298 0 0 1 .363.108c.014 0 .147.202.444.418.365.283.795.432 1.267.485.135.014.809.108 1.375.43.324.15.552.46.673.635l.014.04.053-.013a13.236 13.236 0 0 0 1.807-.432l.026-.013.013-.014c.58-.943 1.807-1.508 3.1-2.127l.053-.014c.404-.202.834-.404 1.266-.62 1.738-.888 3.624-2.72 3.907-4.472a2.784 2.784 0 0 0-.405-1.953l-.173-.27.04.31c.094.62 0 1.146-.256 1.55l-.013.026v.013c.013.27-.014.54-.067.81-.216.928-1.145 1.763-2.83 2.519-.539.241-1.024.457-1.47.66-2.68 1.17-3.69 1.616-4.067 3.232-.216.067-.432.12-.662.175.244-1.361.796-2.101 2.076-2.828l.04-.028-.013-.054c-.027-.134-.08-.283-.121-.403a2.688 2.688 0 0 1-.161-.58v-.027l-.042-.027c-.647-.31-.983-.982-1.064-1.185l.566-.215c.094.202.445.848 1.064.942.458.08.957-.499 1.361-.956.23-.256.417-.485.619-.607.08-.053.297-.2.783.23a.575.575 0 0 1 .215.485.626.626 0 0 1-.175.43 5.166 5.166 0 0 0-.538-.538l-.042-.028-.039.042c-.11.094-.23.241-.365.39-.405.458-.943 1.09-1.617 1.173h-.08l.026.08c.027.067.04.134.068.189.028.094.067.188.094.296l.028.067.067-.027c.499-.256 1.076-.497 1.736-.794.432-.19.93-.404 1.457-.648 1.481-.673 2.316-1.373 2.493-2.101.363-1.602-1.133-2.614-1.47-2.8a.604.604 0 0 1 .5-.271c.135 0 .282.055.388.149.31.269.595.591.796.929l.149.241-.027-.282c-.026-.43-.175-.916-.419-1.36-.403-.728-.956-1.225-1.494-1.333l-.054-.014-.04.122a51.06 51.06 0 0 0-.525 1.454.322.322 0 0 1-.297.215c-.392.042-1.188.122-2.023.324-1.359.391-1.642.647-1.71.74l-.014.026.014.042c.013.04.055.094.096.149l.053.08 3.125-.754a.682.682 0 0 1-.525.754l-1.064.256-.041.013-.014.041c0 .04-.014.081-.014.108v.093l.08-.012c.044-.014.083-.014.136-.041l.364-.108a.692.692 0 0 1 .512.053.691.691 0 0 1 .297.351c-.107.028-.377.108-.998.297a1.124 1.124 0 0 1-.458.053.607.607 0 0 1-.375-.175.718.718 0 0 1-.163-.43v-.08l-.929.227c-.379.136-1.174.513-1.469.957a.434.434 0 0 0-.027.39l.027.067.069-.04a.326.326 0 0 1 .416.135l.136.282c-.432.23-.621.283-.662.283l-.173.055-.124-.15c-.241-.254-.524-.834-.173-1.372.322-.471.93-.809 1.372-1.025l.07-.025-.041-.069c-.122-.214-.163-.405-.096-.605.149-.432.77-.768 2.142-1.159h.014a14.044 14.044 0 0 1 1.901-.324h.04l.027-.04c.16-.47.375-1.063.485-1.373.053-.122.08-.203.08-.203a.287.287 0 0 1 .27-.202h.08c.605 0 1.228.35 1.764.984l.15.067c.255.094.498.202.728.35 1.184.58 2.033 1.63 2.451 3.045.538 1.844.295 4.216-.593 5.899zM6.833 42.19l-2.09-2.087 2.196-2.196-1.887-1.873-.04-.053-4.014 4.014 3.961 3.972.053.055zm35.412 30.995l-2.2 2.205-2.238-2.232-1.835 1.815 3.98 3.968.054.053 4.02-4.021-1.741-1.735zM37.902 6.938l2.13-2.115 2.092 2.089 1.86-1.846.041-.041-3.98-3.973-.04-.055-4.032 4.028zm37.072 37.084l4.028-4.028-3.973-3.96-.055-.055-1.9 1.9 2.238 2.235-2.116 2.115 1.739 1.738zM44.84 29.352l-.15.364c-.755 1.832-2.6 3.287-3.96 3.988-.458.241-.902.444-1.348.66-1.82.848-2.937 1.427-3.086 2.598a.788.788 0 0 1-.605.661 3.49 3.49 0 0 1 .014-.848l.026-.096-.107.027c-1.806.485-4.043.607-5.094.297-.336-.108-.607-.094-.821.014-.228.135-.405.377-.511.754-.096.324-.662.848-1.604 1.455l-.028.027v.04c0 .188.041.673.136 1.064l.025.08.069-.039c.31-.135.54-.122.74-.082.014 0 .04 0 .069.013h.027l.026-.025c.027-.028.067-.094.134-.23.485-.982 1.308-1.373 1.347-1.386l.014-.014c.121-.041.257-.014.337.094.054.053.295.216.768.067.419-.122 1.024.122 1.82.432.82.336 1.857.754 2.572.605.996-.202 1.562-.888 2.115-2.033v.04l.136-.31c.444-1.051 1.251-1.846 2.437-2.37 2.292-1.038 3.813-2.075 4.298-4.056.08-.377.147-.888.175-1.4z"/><path fill="none" stroke="#fff" stroke-miterlimit="20" d="M80 40.003l-5.026 5.024-34.016-34.035.497-.499L72.658 41.7l.04.055 1.618-1.632-1.685-1.698-.04-.04-.675.661-.499-.499 3.557-3.557zm-71.93.96l.5.5-3.558 3.556L0 39.994l5.012-5.012 34.033 34.012-.5.499L7.49 38.444l-.053-.039-1.697 1.697 1.548 1.549.042.04zm36.862-31.25l25.892 25.889-.499.499-25.892-25.89zm25.113 21.323L49.499 10.494l.499-.497 20.544 20.54zM35.527 70.894L9.648 45.004l.5-.512 25.892 25.89zM10.483 49.49L31.04 70.045l-.5.499L9.985 49.988zm59.842-5.387l.5.512L44.931 70.49l-.499-.499zm-.39 4.957l.5.497L49.89 70.1l-.499-.485zM10.148 35.706l-.499-.499 25.88-25.885.512.485zm.243-5.09l-.5-.5L30.436 9.564l.499.5zm31.068 40.803l3.558 3.556L40.002 80l-5.027-5.025 34.029-34.012.512.5-31.212 31.195 1.737 1.724 1.701-1.683-.783-.782zM38.532 8.568l-3.557-3.543L40 0l5.01 5.025-34.03 34.012-.484-.497 31.12-31.131-1.548-1.536-.042-.053-1.629 1.63.633.619zm7.032 25.538c-.012.014-.026.042-.04.067-.39.742-1.67 3.354-1.75 5.402-.04.823.16 1.51.552 1.901.27.27.646.403 1.104.403h.122c1.589-.08 4.635-.93 6.102-2.518 1.322-1.441 1.132-3.409-.485-5.039-.23-.228-.471-.47-.713-.687l-.122-.12c-1.335-1.294-2.6-2.505-2.708-3.866-.041-.297-.324-2.938.85-3.975.47-.416.996-.51 1.481-.283.821.391 1.293 1.55 1.265 2.398a3.747 3.747 0 0 1-.269 1.32l-.053.135.135-.04c.364-.095.66-.27.888-.539.283-.35.35-.888.175-1.387a1.364 1.364 0 0 0-.228-.445 1.105 1.105 0 0 1-.255-.874c.47.133.874.552 1.063 1.117.241.713.135 1.467-.283 1.98-.78.942-2.035.822-2.088.822l-.403-.054c-.027 0-.056-.028-.068-.054a.087.087 0 0 1 .012-.096l.27-.308s.458-.54.5-1.589c.013-.7-.431-1.59-.916-1.832-.271-.122-.54-.055-.823.189-.81.713-.742 2.72-.646 3.448l.014.014c.08 1.13 1.265 2.262 2.52 3.474.268.255.551.538.834.822 1.845 1.846 2.047 4.216.497 5.886-1.603 1.724-4.782 2.627-6.52 2.708-.054.013-.107.013-.162.013-.62 0-1.133-.202-1.522-.593-.512-.512-.781-1.347-.74-2.356.04-.89.283-1.968.727-3.193l.094-.244-.2.177c-1 .876-2.05 1.414-2.98 1.885l-.053.028c-.297.147-.58.294-.835.443a.685.685 0 0 1-.041-.457.71.71 0 0 1 .336-.405l.31-.16c1.375-.688 3.072-1.564 4.311-3.476.069-.095.122-.189.189-.297l.053-.094c.675-1.32 1.12-3.515.54-5.455-.027-.122-.08-.242-.12-.377l-.069.027-.068.012c.204 1.24.056 2.56-.12 3.315-.538 2.236-2.25 3.393-4.649 4.471-2.074.929-2.37 2.614-2.396 3.301-.014.363.497 1.225.982 2.02l.027.054c.095.149.175.283.256.418l.11.202c.145.256.618 1.267.78 3.435.188 2.464.524 3.784 1.899 4.163.687.186 1.441.2 2.046.2.945.028 1.524.069 1.524.62-.013.405-.163 2.155-.82 2.748-.635.58-1.012.485-2.132.216h-.012c-.257-.055-.485.014-.687.216-.296.31-.485.86-.458 1.347l.012.053.042.014c.445.08.983.39 1.146.82.04.07.067.095.093.109.068.027.216.027.554-.014l.47-.04c.162-.013.325-.013.472-.027h.08c.755-.041 1.484-.067 1.672-.499.094-.216.268-.726.47-1.32.823-2.478 1.241-3.542 1.671-3.73h.04v-.04c.013-.027.04-.149-.04-.365-.133-.377-.43-.713-.727-.848-.188-.08-.567-.067-.917-.055-.605.027-1.306.055-1.683-.39-.214-.242-.283-.606-.202-1.063.067-.405.135-.754.202-1.092.216-1.076.363-1.858.283-2.789.161 0 .308.069.432.177.134.12.216.295.2.483-.012.729-.147 1.428-.31 2.25l-.014.055c-.066.323-.12.645-.186 1.024-.054.269-.028.457.066.565.177.2.729.189 1.199.175.432-.027.848-.041 1.174.094.7.297 1.159 1.131 1.143 1.71 0 .31-.147.553-.39.674l-.026.014c-.283.255-.81 1.765-1.336 3.34-.214.646-.375 1.145-.483 1.375-.352.78-1.294.82-2.21.862h-.027a6.076 6.076 0 0 1-.499.026c-.175.013-.336.04-.471.054a5.74 5.74 0 0 1-.472.026c-.31 0-.565-.08-.78-.471l-.027-.053c-.055-.189-.485-.444-.81-.444h-.039c-.135.013-.284-.095-.325-.216v-.014c-.187-.727.056-1.683.58-2.21.35-.349.794-.496 1.254-.376h.026c1.078.255 1.186.269 1.577-.08.404-.352.579-1.644.606-2.17v-.054l-.054-.013c-.175-.04-.552-.053-.835-.053h-.028c-.634-.014-1.428-.028-2.195-.23-1.886-.512-2.169-2.437-2.345-4.715l-.081-.793-.014-.055-.053-.014c-1.131-.053-2.156-.66-3.044-1.777l-.041-.055-.04.027c-.687.377-2.977 1.658-3.692 2.68-.58.85-1.05 2.021-.028 2.897.31.27.823.566 1.322.862 1.01.607 1.644.998 1.737 1.442a.6.6 0 0 1-.081.432 3.87 3.87 0 0 0-.228.389c-.351.62-.917 1.657-1.901 1.335-1.332-.432-1.98-.257-2.276-.041-.23.174-.378.47-.43.875v.067l.052.014c.594.161.904.687.984.835 0 .027.012.04.026.04l.016.014c.08.054.363.081 1.01.081h.255c.31 0 .593.014.795.027.674.04.862.026 1.092-.282.147-.177.416-.581.727-1.039l.025-.04c1.389-2.061 1.82-2.613 2.104-2.721.08-.014.133-.108.149-.202.014-.095-.016-.228-.216-.35-.096-.067-.324-.134-.554-.188-.605-.175-1.36-.377-1.683-.97-.163-.31-.175-.688-.04-1.106.376-1.17 2.383-1.589 3.609-1.736.015.23.043.43.068.605-.888.108-2.814.446-3.097 1.321-.082.256-.082.458.012.62.188.362.809.539 1.306.673.283.08.526.149.701.257.35.214.54.565.499.94a.844.844 0 0 1-.525.715l-.013.014c-.257.189-1.065 1.36-1.793 2.45l-.014.028c-.35.513-.619.917-.782 1.104-.43.567-.929.554-1.575.512h-.067c-.216-.012-.471-.039-.768-.025-1.225.013-1.59-.014-1.82-.46-.067-.133-.323-.552-.794-.552a.305.305 0 0 1-.31-.31v-.025c0-.768.23-1.348.687-1.685.607-.43 1.548-.458 2.829-.04.418.134.728-.243 1.172-1.052l.014-.026c.068-.121.135-.243.202-.35l.027-.04-.027-.028c-.163-.241-.915-.687-1.414-.996-.499-.282-1.051-.62-1.414-.93-1.053-.888-1.079-2.235-.067-3.69.752-1.106 2.909-2.345 3.81-2.83l.069-.04-.041-.054c-.244-.375-.417-.727-.54-.97l.23-.04c.135-.027.269-.053.392-.094.51 1.01 1.587 2.667 3.259 2.87l.096.013-.014-.094c-.163-.795-.338-1.267-.432-1.483a6.386 6.386 0 0 0-.31-.538c-.053-.08-.093-.16-.15-.243-.47-.766-.862-1.44-1.007-1.966l-.041-.122-.083.095c-.483.593-1.035.928-1.736 1.078-.904.174-1.982-.27-2.937-.647-.648-.257-1.201-.47-1.402-.404-.565.175-.97.027-1.159-.08l-.04-.014-.028.027a2.468 2.468 0 0 0-.86.982c-.271.567-.54.634-.918.58-.16-.026-.308-.054-.646.215a.303.303 0 0 1-.242.067.274.274 0 0 1-.202-.147c-.377-.593-.39-1.832-.39-1.966v-.176l.147-.081c.648-.416 1.414-1.01 1.51-1.24.161-.537.43-.902.807-1.117.364-.188.794-.215 1.293-.066.512.16 1.375.2 2.345.12l.149-.014-.094-.106c-.23-.216-.743-.446-.768-.46-.15-.027-.271-.04-.338-.053a3.104 3.104 0 0 1-1.952-.942l-.028-.028-.296.122-.122-.069c-.12-.067-.526-.35-.754-1.55-.122-.618.012-1.413.121-2.1.08-.484.148-.97.12-1.185l-.013-.094-.093.053a.64.64 0 0 1-.566.067c-.498-.175-.702-.619-.809-.888l-.027-.04c-.08-.068-.309-.136-.446-.162h-.053a.263.263 0 0 1-.173-.122c-.043-.053-.057-.135-.043-.202l.014-.053c.163-.66.687-1.738 1.577-1.524.135.042.283.069.46.096h.011c.81.162 1.819.364 2.049 1.118.066.216.133.526.23.89.188.807.484 2.032.78 2.478.256.39.404.538.457.606l.014.014h.027c.62.147 1.886.417 2.91.566-.268.16-.498.336-.7.51a38.503 38.503 0 0 1-2.424-.498l-.043-.012c-.067-.028-.228-.083-.739-.837-.379-.538-.662-1.777-.876-2.68-.096-.35-.163-.66-.23-.862-.121-.403-.929-.566-1.577-.686a6.846 6.846 0 0 1-.497-.108h-.068c-.297 0-.526.444-.646.727l-.028.067.067.013c.27.108.446.256.513.432l.013.026c.12.283.216.471.446.554h.053l.014-.014c.322-.257.605-.216.862.106.27.324.175.917.04 1.738-.107.646-.217 1.375-.12 1.887.094.538.227.835.322.996l.04.04.176-.068a.298.298 0 0 1 .363.108c.014 0 .147.202.444.418.365.283.795.432 1.267.485.135.014.809.108 1.375.43.324.15.552.46.673.635l.014.04.053-.013a13.236 13.236 0 0 0 1.807-.432l.026-.013.013-.014c.58-.943 1.807-1.508 3.1-2.127l.053-.014c.404-.202.834-.404 1.266-.62 1.738-.888 3.624-2.72 3.907-4.472a2.784 2.784 0 0 0-.405-1.953l-.173-.27.04.31c.094.62 0 1.146-.256 1.55l-.013.026v.013c.013.27-.014.54-.067.81-.216.928-1.145 1.763-2.83 2.519-.539.241-1.024.457-1.47.66-2.68 1.17-3.69 1.616-4.067 3.232-.216.067-.432.12-.662.175.244-1.361.796-2.101 2.076-2.828l.04-.028-.013-.054c-.027-.134-.08-.283-.121-.403a2.688 2.688 0 0 1-.161-.58v-.027l-.042-.027c-.647-.31-.983-.982-1.064-1.185l.566-.215c.094.202.445.848 1.064.942.458.08.957-.499 1.361-.956.23-.256.417-.485.619-.607.08-.053.297-.2.783.23a.575.575 0 0 1 .215.485.626.626 0 0 1-.175.43 5.166 5.166 0 0 0-.538-.538l-.042-.028-.039.042c-.11.094-.23.241-.365.39-.405.458-.943 1.09-1.617 1.173h-.08l.026.08c.027.067.04.134.068.189.028.094.067.188.094.296l.028.067.067-.027c.499-.256 1.076-.497 1.736-.794.432-.19.93-.404 1.457-.648 1.481-.673 2.316-1.373 2.493-2.101.363-1.602-1.133-2.614-1.47-2.8a.604.604 0 0 1 .5-.271c.135 0 .282.055.388.149.31.269.595.591.796.929l.149.241-.027-.282c-.026-.43-.175-.916-.419-1.36-.403-.728-.956-1.225-1.494-1.333l-.054-.014-.04.122a51.06 51.06 0 0 0-.525 1.454.322.322 0 0 1-.297.215c-.392.042-1.188.122-2.023.324-1.359.391-1.642.647-1.71.74l-.014.026.014.042c.013.04.055.094.096.149l.053.08 3.125-.754a.682.682 0 0 1-.525.754l-1.064.256-.041.013-.014.041c0 .04-.014.081-.014.108v.093l.08-.012c.044-.014.083-.014.136-.041l.364-.108a.692.692 0 0 1 .512.053.691.691 0 0 1 .297.351c-.107.028-.377.108-.998.297a1.124 1.124 0 0 1-.458.053.607.607 0 0 1-.375-.175.718.718 0 0 1-.163-.43v-.08l-.929.227c-.379.136-1.174.513-1.469.957a.434.434 0 0 0-.027.39l.027.067.069-.04a.326.326 0 0 1 .416.135l.136.282c-.432.23-.621.283-.662.283l-.173.055-.124-.15c-.241-.254-.524-.834-.173-1.372.322-.471.93-.809 1.372-1.025l.07-.025-.041-.069c-.122-.214-.163-.405-.096-.605.149-.432.77-.768 2.142-1.159h.014a14.044 14.044 0 0 1 1.901-.324h.04l.027-.04c.16-.47.375-1.063.485-1.373.053-.122.08-.203.08-.203a.287.287 0 0 1 .27-.202h.08c.605 0 1.228.35 1.764.984l.15.067c.255.094.498.202.728.35 1.184.58 2.033 1.63 2.451 3.045.538 1.844.295 4.216-.593 5.899zM6.833 42.19l-2.09-2.087 2.196-2.196-1.887-1.873-.04-.053-4.014 4.014 3.961 3.972.053.055zm35.412 30.995l-2.2 2.205-2.238-2.232-1.835 1.815 3.98 3.968.054.053 4.02-4.021-1.741-1.735zM37.902 6.938l2.13-2.115 2.092 2.089 1.86-1.846.041-.041-3.98-3.973-.04-.055-4.032 4.028zm37.072 37.084l4.028-4.028-3.973-3.96-.055-.055-1.9 1.9 2.238 2.235-2.116 2.115 1.739 1.738zM44.84 29.352l-.15.364c-.755 1.832-2.6 3.287-3.96 3.988-.458.241-.902.444-1.348.66-1.82.848-2.937 1.427-3.086 2.598a.788.788 0 0 1-.605.661 3.49 3.49 0 0 1 .014-.848l.026-.096-.107.027c-1.806.485-4.043.607-5.094.297-.336-.108-.607-.094-.821.014-.228.135-.405.377-.511.754-.096.324-.662.848-1.604 1.455l-.028.027v.04c0 .188.041.673.136 1.064l.025.08.069-.039c.31-.135.54-.122.74-.082.014 0 .04 0 .069.013h.027l.026-.025c.027-.028.067-.094.134-.23.485-.982 1.308-1.373 1.347-1.386l.014-.014c.121-.041.257-.014.337.094.054.053.295.216.768.067.419-.122 1.024.122 1.82.432.82.336 1.857.754 2.572.605.996-.202 1.562-.888 2.115-2.033v.04l.136-.31c.444-1.051 1.251-1.846 2.437-2.37 2.292-1.038 3.813-2.075 4.298-4.056.08-.377.147-.888.175-1.4z"/></g></g></svg>