<svg xmlns="http://www.w3.org/2000/svg" width="80" height="79" viewBox="0 0 80 79"><g><g><path fill="#fff" d="M43.55 5.885l-1.604-1.576 1.61-1.59L80 38.71l-1.601 1.579-34.844-34.41zM36.355 76.37L0 40.287l1.604-1.576L36.36 73.206l2.04-2.015-12.84-12.68-22.805-22.52L39.202 0l1.599 1.578L5.957 35.99 7.91 37.92l19.032-18.795 1.604 1.576-16.28 16.08L9.51 39.5l17.627 17.407h1.754v-2.1H26.27v-2.11h-.045V28.4l.672-.296a32.493 32.493 0 0 1 10.278-2.608l-4.872-4.81-3.469-3.427-.034-.034L40.062 6.102l5.121 5.033 6.166 6.09-.106.106-6.224 6.131.013.003-2.056 2.03a32.493 32.493 0 0 1 10.278 2.608l.67.296v24.173h.037v2.234h-2.893v2.101h1.797L70.492 39.5 51.49 20.734l1.604-1.579 19.8 19.553.799.792 3.554 3.51L40.8 79l-1.599-1.581 34.844-34.41-1.955-1.928-2.845 2.807L53.96 58.985v.157h-.159zm-7.867-23.81H51.66V42.276H28.487zm0-12.52h3.35v-9.086h-3.35zm5.612 0h11.951v-9.086h-11.95zm5.98-12.437a30.787 30.787 0 0 0-8.256 1.12h16.513a30.787 30.787 0 0 0-8.256-1.12zm-.07-2.47a.06.06 0 0 0 .029.019c.01.005.023.008.037.008a.085.085 0 0 0 .037-.008.1.1 0 0 0 .029-.018l7.902-7.804-5.288-5.221-2.754-2.72-7.968 7.868zm8.304 14.907h3.347v-9.086h-3.347zm-6.027 4.129c.63.42 1.13 1.014 1.43 1.717a3.847 3.847 0 0 1-.365 3.703A3.942 3.942 0 0 1 41.614 51a3.95 3.95 0 0 1-1.54.31 3.948 3.948 0 0 1-2.21-.667 3.895 3.895 0 0 1-1.743-3.238c0-.805.251-1.56.674-2.182a3.965 3.965 0 0 1 1.742-1.414 3.986 3.986 0 0 1 3.75.36M40.001 69.61l10.6-10.468H29.4l7.847 7.748zm-8.844-12.703h17.648v-2.1H31.158zm10.485-8.858c.085-.198.133-.415.133-.649a1.62 1.62 0 0 0-.29-.928 1.682 1.682 0 0 0-.745-.604 1.722 1.722 0 0 0-1.608.151c-.271.182-.486.438-.616.735a1.628 1.628 0 0 0-.133.646c0 .35.106.664.29.93.183.266.443.48.748.605.202.086.422.13.658.13.356 0 .677-.102.948-.284.27-.18.488-.435.615-.732"/></g></g></svg>