<svg xmlns="http://www.w3.org/2000/svg" width="20" height="24" viewBox="0 0 20 24"><g><g><g><path d="M12.308 10.5h6.154V12h-4.616v1.5h4.616V15h-4.616v1.5h4.616V18h-4.616v1.5h4.616v3h-1.539v-2.254h-3.077V22.5h-1.538zm-10.77-3h9.231v15H6.923v-2.254H3.077V22.5H1.538zm10.77 0h4.605V9h-4.605zM3.077 3H9.23v3H3.077zm2.308-3v1.5H1.538V6H0v18h20V9h-1.538V6h-7.693V1.5H6.923V0z"/></g><g><path d="M3.85 5.25h3.846v-1.5H3.85z"/></g><g><path d="M3.08 10.5h6.15V9H3.08z"/></g><g><path d="M3.08 13.5h6.15V12H3.08z"/></g><g><path d="M3.08 16.5h6.15V15H3.08z"/></g><g><path d="M3.08 19.5h6.15V18H3.08z"/></g></g></g></svg>