<svg xmlns="http://www.w3.org/2000/svg" width="21" height="27" viewBox="0 0 21 27"><g><g><g><path fill="none" stroke="#000" stroke-miterlimit="20" stroke-width="2" d="M17.899 8.934c0 4.38-3.517 7.934-7.855 7.934-4.338 0-7.854-3.553-7.854-7.934C2.19 4.55 5.706 1 10.044 1S17.9 4.551 17.9 8.934z"/></g><g><path fill="none" stroke="#000" stroke-miterlimit="20" stroke-width="2" d="M14.756 8.93c0 2.63-2.11 4.76-4.713 4.76S5.33 11.56 5.33 8.93s2.11-4.76 4.713-4.76c2.602 0 4.713 2.13 4.713 4.76z"/></g><g><path fill="none" stroke="#000" stroke-miterlimit="20" stroke-width="2" d="M4.44 14.49v0l-3.03 7.572v0l3.438-.43v0l2.159 2.678v0l2.553-7.441v0"/></g><g><path fill="none" stroke="#000" stroke-miterlimit="20" stroke-width="2" d="M15.66 14.49v0l3.03 7.572v0l-3.438-.43v0l-2.158 2.678v0l-2.554-7.441v0"/></g></g></g></svg>