<svg xmlns="http://www.w3.org/2000/svg" width="120" height="114" viewBox="0 0 120 114"><g><g><g><g><path fill="#fff" d="M1.543 54.887h.244c.225 0 .328.07.47.29l.932 1.466h1.234l-1.138-1.788c-.244-.388-.385-.466-.475-.517.083-.058.225-.142.469-.478l1.1-1.737H3.15l-.9 1.414c-.141.213-.244.29-.47.29h-.237v-1.704H.45v4.52h1.093z"/></g><g><path fill="#fff" d="M6.748 56.644h1.093v-1.492l1.549-3.03H8.15l-.856 1.667-.848-1.666H5.205l1.543 3.029z"/></g><g><path fill="#fff" d="M12.73 53.156v-1.033h-2.185v1.033h.546v2.448h-.546v1.04h2.186v-1.04h-.547v-2.448z"/></g><g><path fill="#fff" d="M16.073 54.635l-.946-2.512h-1.214l1.844 4.52h.65l1.819-4.52h-1.215z"/></g><g><path fill="#fff" d="M104.581 53.11c.38 0 .72.13.99.375l.707-.658a2.31 2.31 0 0 0-1.697-.75 2.296 2.296 0 0 0-2.289 2.306 2.297 2.297 0 0 0 2.29 2.305 2.31 2.31 0 0 0 1.696-.748l-.707-.66c-.27.246-.61.369-.99.369-.668 0-1.195-.491-1.195-1.266s.527-1.272 1.195-1.272"/></g><g><path fill="#fff" d="M109.916 53.156v-1.033h-2.186v1.033h.546v2.448h-.546v1.04h2.186v-1.04h-.547v-2.448z"/></g><g><path fill="#fff" d="M113.581 56.644v-3.488h1.15v-1.033h-3.393v1.033h1.15v3.488z"/></g><g><path fill="#fff" d="M117.298 56.644h1.093v-1.492l1.549-3.03h-1.24l-.856 1.667-.848-1.666h-1.241l1.543 3.029z"/></g><g><path fill="#fff" d="M94.668 56.886L60.122 91.592 25.575 56.886l34.547-34.705zm-16.56-14.783l6.13 14.128h7.934zm-1.364.125c-.88 2.26-2.498 6.091-4.591 9.608 4.208 1.058 8.224 2.729 10.36 3.689zm4.111 13.996c-3.494-1.488-9.79-3.856-14.833-4.037a7.523 7.523 0 0 1 1.605 4.037zM67.627 57.54a7.545 7.545 0 0 1-1.535 3.95c4.936-.196 11.036-2.462 14.55-3.95zm3.188-6.022c1.893-3.11 3.413-6.537 4.357-8.875l-8.247 8.284a29.35 29.35 0 0 1 3.89.59zm3.425-9.792c-2.327.947-5.73 2.47-8.82 4.372.281 1.317.49 2.632.588 3.898zm-9.132 3.029c3.558-2.139 7.436-3.781 9.67-4.653l-13.344-5.76c.953 2.141 2.62 6.183 3.674 10.413zM60.774 32.63l13.864 5.986-13.864-13.928zm0 16.716c1.495.13 2.863.7 3.981 1.58-.174-5.006-2.493-11.266-3.98-14.803zm-14.75-11.15l13.438-5.573V24.69zm-.879 1.781c2.166.834 6.257 2.534 9.99 4.776 1.06-4.252 2.738-8.312 3.69-10.445zm14.317-3.857c-1.484 3.532-3.797 9.788-3.972 14.805a7.45 7.45 0 0 1 3.972-1.579zm-6.845 20.11a7.548 7.548 0 0 1 1.61-4.05c-5.076.18-11.374 2.56-14.857 4.05zm1.531 5.255a7.544 7.544 0 0 1-1.53-3.945H39.603c3.505 1.487 9.588 3.748 14.544 3.945zm.677-15.388c-3.093-1.9-6.498-3.425-8.824-4.372L54.237 50a29.82 29.82 0 0 1 .588-3.902zm-9.75-3.449c.943 2.335 2.46 5.755 4.35 8.862 1.31-.282 2.622-.491 3.886-.589zm3.02 9.173c-2.203-3.699-3.876-7.74-4.717-9.937l-5.673 13.64c2.125-.958 6.156-2.641 10.39-3.703zm-20.023 4.41h7.927l5.68-13.67zm13.403 14.774l-5.44-13.465h-7.963zm1.813.998c.812-2.139 2.527-6.333 4.801-10.154-4.247-1.064-8.288-2.755-10.405-3.712zm6.144-9.842c-1.893 3.106-3.411 6.526-4.355 8.862l8.245-8.275a29.39 29.39 0 0 1-3.89-.587zm-3.436 9.799c2.324-.948 5.726-2.473 8.818-4.377a29.835 29.835 0 0 1-.586-3.908zm9.135-3.036c-3.74 2.247-7.833 3.945-9.996 4.777l13.688 5.665c-.954-2.13-2.634-6.184-3.692-10.442zm4.339 12.127l-13.596-5.627 13.596 13.66zm0-16.626a7.47 7.47 0 0 1-3.976-1.575c.2 5.026 2.498 11.213 3.976 14.714zm-5.582-7.543c0 3.45 2.799 6.258 6.238 6.258 3.243 0 5.915-2.499 6.208-5.678v-1.161c-.293-3.18-2.965-5.677-6.208-5.677-3.44 0-6.238 2.807-6.238 6.258zm12.12 6.794a29.755 29.755 0 0 1-.588 3.901c3.092 1.901 6.493 3.426 8.817 4.373zm-1.257-.826a7.475 7.475 0 0 1-3.977 1.575v13.132c1.478-3.51 3.774-9.707 3.977-14.707zm9.847 12.345l-13.824 5.853v8.035zm.341-1.563c-2.207-.856-6.186-2.526-9.827-4.71-1.057 4.242-2.73 8.29-3.684 10.427zm.237-2.605c-.943-2.337-2.461-5.757-4.356-8.865a29.328 29.328 0 0 1-3.888.59zm-3.021-9.177c2.132 3.584 3.768 7.492 4.632 9.73l5.724-13.423c-2.128.959-6.146 2.634-10.356 3.693zm20.024-4.31h-7.975L78.22 71.557z"/></g><g><path fill="#fff" d="M102.293 61.36h17.581v-1.31h-17.581z"/></g><g><path fill="#fff" d="M.435 61.376h17.582v-1.31H.435z"/></g><g><path fill="#fff" d="M16.1 34.012l-1.223-.555-1.394 3.097-1.476-.67 1.288-2.862-1.222-.555-1.289 2.861-1.437-.653 1.394-3.098-1.222-.555-1.982 4.4 6.58 2.99z"/></g><g><path fill="#fff" d="M17.76 31.04l-5.94-4.13 1.427-2.07c1.156-1.679 3.337-2.168 5.06-.97 1.73 1.203 2.036 3.42.88 5.099zm-.293-1.944l.616-.894c.716-1.04.618-2.318-.587-3.156-1.196-.831-2.43-.48-3.146.56l-.617.896z"/></g><g><path fill="#fff" d="M26.96 19.932l-.95-.952-2.39 2.406-1.147-1.15 2.21-2.223-.95-.952-2.21 2.224-1.117-1.12 2.391-2.408-.95-.952-3.397 3.419 5.113 5.128z"/></g><g><path fill="#fff" d="M33.395 15.01l-.782-1.094-2.64 1.905-3.43-4.798-1.156.834 4.213 5.892z"/></g><g><path fill="#fff" d="M38.215 12.324l-.17-4.707 3.38 3.26.772-.349-.303-7.818-1.44.65.293 4.935-3.504-3.487-.762.344.266 4.948-3.476-3.5-1.441.649 5.623 5.419z"/></g><g><path fill="#fff" d="M52.748 7.729l-.267-1.32-3.316.677-.323-1.594 3.063-.627-.267-1.32-3.064.626-.314-1.554 3.316-.678-.268-1.32-4.71.963 1.439 7.11z"/></g><g><path fill="#fff" d="M56.757 1.451l.208 4.557-.867.04.062 1.346 3.155-.145-.062-1.346-.866.04-.207-4.557.866-.04L58.985 0 55.83.145l.061 1.346z"/></g><g><path fill="#fff" d="M66.01 6.346l-.062-.007c-1.065-.122-1.744-.722-2.01-1.212l-1.02.749c.475.836 1.443 1.637 2.878 1.802l.061.007c1.59.172 2.886-.534 3.042-1.903.17-1.493-.854-2.165-2.29-2.507l-.566-.128c-.637-.157-1.174-.364-1.119-.849.072-.627.86-.713 1.332-.66l.082.01c.523.06 1.28.429 1.764.922l1.02-.747c-.658-.786-1.617-1.397-2.631-1.514L66.409.3c-1.488-.15-2.751.54-2.905 1.889-.144 1.267.85 1.933 2.204 2.256l.556.127c.728.178 1.293.42 1.22 1.048-.062.546-.643.813-1.474.727"/></g><g><path fill="#fff" d="M74.343 9.458l.06.018c1.534.452 2.933-.014 3.327-1.334.43-1.439-.46-2.28-1.813-2.872l-.535-.226c-.598-.267-1.09-.567-.951-1.034.18-.605.972-.55 1.426-.413l.08.023c.504.153 1.184.65 1.573 1.222l1.136-.556c-.51-.89-1.345-1.66-2.324-1.956l-.079-.024c-1.438-.412-2.801.043-3.19 1.343-.365 1.22.496 2.053 1.772 2.612l.525.223c.685.304 1.197.642 1.017 1.247-.157.526-.776.686-1.58.455l-.058-.018c-1.028-.31-1.59-1.021-1.766-1.55l-1.136.556c.321.908 1.133 1.867 2.516 2.284"/></g><g><path fill="#fff" d="M87.83 12.29l2.328 1.556-1.64 2.477 1.187.792 3.998-6.042-1.186-.791-1.617 2.442-2.328-1.555 1.617-2.442-1.186-.792-3.998 6.041 1.185.792z"/></g><g><path fill="#fff" d="M92.228 19.108l7.178-3.088.596.588-2.966 7.24-1.126-1.111.556-1.31-1.818-1.792-1.294.583zm3.72-.09l1.111 1.1.828-1.966z"/></g><g><path fill="#fff" d="M100.504 28.562c.87 1.248 2.517 1.823 4.225.622l3.431-2.414-.817-1.172-3.406 2.396c-1.107.778-1.902.414-2.334-.205-.432-.62-.5-1.495.607-2.274l3.406-2.396-.817-1.172-3.432 2.414c-1.707 1.2-1.739 2.944-.863 4.201"/></g><g><path fill="#fff" d="M107.778 34.895l.177.545c.22.72.303 1.33-.27 1.591-.5.226-1.026-.14-1.38-.9l-.024-.057c-.442-.983-.277-1.876.005-2.357l-1.163-.497c-.472.84-.66 2.086-.065 3.41l.025.056c.668 1.46 1.936 2.216 3.187 1.648 1.364-.618 1.413-1.846.97-3.26l-.182-.554c-.192-.63-.29-1.2.153-1.401.574-.26 1.052.376 1.247.81l.034.076c.217.482.29 1.325.115 1.996l1.163.497c.334-.971.365-2.112-.055-3.048l-.034-.075c-.634-1.361-1.87-2.097-3.103-1.539-1.157.525-1.219 1.724-.8 3.059"/></g><g><path fill="#fff" d="M12.45 82.112l1.218-.577-1.34-2.854 1.434-.68 1.45 3.089 1.22-.578-2.062-4.389-6.562 3.112 2.062 4.389 1.218-.578-1.45-3.09 1.47-.697z"/></g><g><path fill="#fff" d="M19.5 85.365c1.184 1.671.899 3.908-.816 5.134-1.723 1.231-3.912.764-5.096-.908l-1.46-2.06 5.912-4.228 1.46 2.062m-1.646 3.963c1.191-.852 1.281-2.143.548-3.178l-.63-.891-3.717 2.657.631.89c.733 1.036 1.97 1.38 3.168.522"/></g><g><path fill="#fff" d="M23.91 92.787l2.424 2.394.945-.965-3.444-3.401-5.085 5.197 3.444 3.401.944-.965-2.424-2.394 1.14-1.165 2.24 2.21.944-.964-2.24-2.211z"/></g><g><path fill="#fff" d="M29.821 96.28l-4.194 5.949 3.832 2.726.78-1.104-2.665-1.896 3.415-4.844z"/></g><g><path fill="#fff" d="M40.08 107.452l.252-4.974-.767-.343-3.512 3.515.282-4.96-1.45-.65-.272 7.862.766.344 3.397-3.282-.166 4.727.777.348 5.626-5.467-1.45-.649z"/></g><g><path fill="#fff" d="M46.53 112.28l4.733.969.27-1.327-3.332-.682.325-1.602 3.077.63.27-1.327-3.078-.63.316-1.56 3.332.681.27-1.327-4.734-.968z"/></g><g><path fill="#fff" d="M55.922 107.788l.87.043-.222 4.577-.87-.043-.065 1.353 3.17.155.064-1.353-.87-.042.223-4.577.87.042.065-1.352-3.17-.156z"/></g><g><path fill="#fff" d="M66.102 109.095h-.584c-.658-.013-1.23-.098-1.283-.584-.067-.632.687-.892 1.162-.943l.082-.01c.525-.056 1.35.138 1.932.515l.836-.96c-.817-.624-1.891-1.01-2.912-.9l-.083.008c-1.492.183-2.579 1.138-2.434 2.495.136 1.274 1.257 1.708 2.656 1.725h.574c.752.013 1.359.126 1.426.758.06.549-.452.94-1.286 1.04l-.062.007c-1.072.115-1.87-.322-2.238-.743l-.836.96c.65.715 1.775 1.285 3.219 1.13l.06-.008c1.598-.183 2.713-1.162 2.566-2.54-.16-1.501-1.312-1.932-2.795-1.95"/></g><g><path fill="#fff" d="M75.032 107.258l-.574.102c-.65.103-1.229.119-1.365-.351-.175-.61.522-.998.98-1.131l.08-.023c.508-.148 1.352-.101 1.992.168l.656-1.091c-.913-.472-2.037-.665-3.023-.378l-.08.023c-1.438.44-2.343 1.572-1.964 2.882.355 1.23 1.533 1.462 2.914 1.233l.565-.099c.742-.119 1.36-.114 1.535.496.154.53-.282 1.005-1.086 1.25l-.06.017c-1.035.301-1.897.01-2.332-.34l-.657 1.09c.764.591 1.97.956 3.365.55l.06-.018c1.54-.459 2.468-1.618 2.084-2.949-.418-1.45-1.627-1.673-3.09-1.431"/></g><g><path fill="#fff" d="M87.948 97.927l1.588 2.478-2.362 1.528-1.589-2.478-1.202.778 3.928 6.13 1.203-.778-1.611-2.514 2.363-1.527 1.61 2.513 1.203-.778-3.928-6.13z"/></g><g><path fill="#fff" d="M94.345 92.665l7.126 3.262-1.152 1.095-1.288-.61-1.86 1.768.535 1.326-1.152 1.095-2.819-7.357zm1.465 2.191l.786 1.997 1.132-1.085z"/></g><g><path fill="#fff" d="M105.117 86.277l-3.396-2.498-.845 1.16 3.371 2.479c1.096.806 1.009 1.684.562 2.297-.447.614-1.254.963-2.35.157l-3.371-2.479-.846 1.16 3.397 2.497c1.69 1.242 3.351.71 4.257-.535.9-1.235.911-2.996-.779-4.238"/></g><g><path fill="#fff" d="M110.495 77.93c-1.354-.655-2.327.1-3.124 1.356l-.308.498c-.358.555-.732.998-1.17.786-.57-.276-.392-1.056-.185-1.488l.036-.075c.23-.479.828-1.08 1.454-1.377l-.37-1.22c-.96.368-1.853 1.08-2.299 2.01l-.035.075c-.634 1.37-.4 2.8.824 3.393 1.15.555 2.107-.172 2.86-1.357l.303-.489c.408-.635.823-1.093 1.393-.817.495.24.556.88.2 1.646l-.026.056c-.468.976-1.26 1.426-1.81 1.518l.37 1.22c.95-.178 2.024-.837 2.654-2.15l.027-.057c.688-1.459.448-2.927-.794-3.528"/></g></g></g></g></svg>