<svg xmlns="http://www.w3.org/2000/svg" width="140" height="54" viewBox="0 0 140 54"><defs><clipPath id="6t9va"><path d="M136.806 29.021H140v3.196h-3.193z"/></clipPath><clipPath id="6t9vb"><path d="M70.131 42.695h14.265v9.493H70.13z"/></clipPath><clipPath id="6t9vc"><path d="M0 52.189h139.995V.198H0z"/></clipPath></defs><g><g><g><g><path fill="#fefefe" d="M70.931 1.765l9.171 9.183.421-.422L70.931.922l-.423.424.422.42z"/></g><g><g><path fill="#fefefe" d="M69.043 20.578l-9.57-9.63.423-.42 9.148 9.205.537-.537-3.38-3.384-6.002-6.01L69.792.198l.42.421-9.17 9.183.514.515L66.565 5.3l.422.42-4.285 4.292-.725.726 4.64 4.645h.461v-.561h-.69v-.563h-.012V7.776l.177-.079a8.458 8.458 0 0 1 2.705-.696l-1.282-1.283-.913-.915-.01-.009 2.965-2.968 1.348 1.343 1.623 1.625-.028.029-1.638 1.636h.003l-.54.542c.929.082 1.846.313 2.704.696l.177.08v6.45h.01v.596h-.762v.56h.473l4.64-4.644-5.002-5.008.422-.421 5.211 5.217.21.212.936.936-9.592 9.604-.421-.422 9.171-9.182-.515-.515-.748.75-4.024 4.028v.042h-.041zm3.147-9.695h.881V8.458h-.88zM70 6.905a.016.016 0 0 0 .008.005.022.022 0 0 0 .01.002c.003 0 .006 0 .01-.002a.026.026 0 0 0 .007-.005l2.075-2.082-1.388-1.394-.724-.726-2.093 2.1zm.026.66c-.735-.002-1.469.099-2.176.297h4.352a8.05 8.05 0 0 0-2.176-.298zm-1.577 3.318h3.146V8.458h-3.146zm-1.477.009h.882V8.458h-.882zm0 3.335h6.1v-2.748h-6.1zm.703 1.157h4.645v-.561h-4.645zm2.327 3.39l2.79-2.794h-5.58l2.065 2.068z"/></g><g><path fill="#fefefe" d="M70.6 11.983a1.04 1.04 0 0 1 .28 1.447 1.04 1.04 0 1 1-1.268-1.543 1.031 1.031 0 0 1 .987.096m-.172 1.031a.436.436 0 0 0-.041-.417.442.442 0 0 0-.37-.196.449.449 0 0 0-.41.27.435.435 0 0 0 .042.418.445.445 0 0 0 .618.12.445.445 0 0 0 .161-.195"/></g><g><g/><g clip-path="url(#6t9va)"><path fill="#fefefe" d="M138.403 29.021l-1.597 1.598 1.597 1.598 1.596-1.598z"/></g></g><g><path fill="#fefefe" d="M0 30.62l1.596 1.598 1.596-1.599-1.596-1.598z"/></g><g><path fill="#fefefe" d="M61.122 43.16l.167-.18.052-.103.115-.141a8.88 8.88 0 0 0 .592-.67c.222-.274.45-.566.686-.875a70.56 70.56 0 0 0 1.324-1.788l.457-.637c.12-.168.188-.255.205-.264a.65.65 0 0 1 .032-.103c.022-.06.04-.124.052-.193a.568.568 0 0 0 .006-.186c-.008-.056-.038-.08-.09-.071-.077-.017-.14 0-.187.052a3.947 3.947 0 0 1-.134.141l-.18.206c-.154.189-.313.388-.475.598-.163.21-.317.405-.463.585a14.05 14.05 0 0 0-.784 1.004c-.137.18-.313.394-.527.643-.214.25-.432.502-.655.76-.223.256-.436.512-.636.765a5.345 5.345 0 0 0-.47.676.62.62 0 0 0-.07.083 2.1 2.1 0 0 0-.058.084c-.103.137-.204.266-.302.386s-.19.249-.276.386a19.052 19.052 0 0 0-.874 1.158 1.389 1.389 0 0 0-.18.219c-.051.077-.112.15-.18.218a.2.2 0 0 1-.064.123.28.28 0 0 0-.077.108 5.465 5.465 0 0 0-.405.54 3.83 3.83 0 0 1-.417.529.574.574 0 0 1-.084.109 1.37 1.37 0 0 0-.097.109c-.016.026-.04.06-.07.103a.25.25 0 0 1-.11.09 8.98 8.98 0 0 1 .142-1.017c.068-.351.124-.677.167-.977.043-.394.102-.806.18-1.235.077-.43.15-.875.219-1.338a.488.488 0 0 0 .07-.238.697.697 0 0 1 .058-.251c.008-.017.008-.03 0-.039-.009-.008-.009-.021 0-.038.008-.07.021-.135.039-.2a7.83 7.83 0 0 1 .051-.186l.025-.167a.664.664 0 0 1 .04-.142 6.92 6.92 0 0 0 .082-.514c.022-.172.05-.33.084-.477a3.871 3.871 0 0 1 .129-.45c.042-.086.081-.168.115-.244.034-.078.03-.168-.012-.27a.902.902 0 0 0-.232-.207 2.324 2.324 0 0 0-.282-.141.92.92 0 0 0-.553.219c-.12.591-.223 1.187-.309 1.788l-.257 1.789c-.034.223-.066.452-.096.687-.03.237-.066.466-.11.69a36.528 36.528 0 0 0-.199 1.568c-.055.532-.104 1.06-.147 1.583 0 .189.062.343.186.463s.298.172.52.155a.362.362 0 0 0 .206-.007.546.546 0 0 0 .167-.096 1.13 1.13 0 0 0 .142-.142l.115-.141a30.765 30.765 0 0 0 1.002-1.364c0-.018.003-.03.008-.039a.11.11 0 0 0 .005-.039c.155-.196.296-.373.424-.527.13-.154.266-.33.412-.527a.387.387 0 0 1 .173-.155c.064-.026.114-.086.148-.18.043-.051.084-.104.122-.16.038-.056.08-.114.123-.174v-.078a.264.264 0 0 0 .089-.128.25.25 0 0 1 .103-.129c.129-.206.27-.405.424-.598.154-.193.304-.384.45-.572.025-.044.049-.08.07-.11l.084-.11"/></g><g><path fill="#fefefe" d="M63.032 41.872c-.043-.051-.098-.064-.167-.039a.681.681 0 0 0-.205.13c-.068.06-.128.124-.18.192-.051.069-.073.116-.065.142a1.953 1.953 0 0 1-.038.128.645.645 0 0 0-.032.155.27.27 0 0 0 .02.135c.016.039.05.067.102.083.034.018.058.022.07.014a.08.08 0 0 1 .045-.014.272.272 0 0 1 .123-.083c.055-.021.092-.053.11-.096.016 0 .025-.003.025-.007s.008-.002.025.007c0-.026.016-.052.046-.078.03-.026.04-.051.032-.077.034.017.048.009.045-.025-.005-.035.006-.044.032-.026 0-.018.004-.028.012-.032.009-.004.009-.016 0-.032.069-.035.114-.101.136-.2a.273.273 0 0 0-.058-.25.065.065 0 0 1-.033-.013.075.075 0 0 0-.045-.014"/></g><g><path fill="#fefefe" d="M70.888 41.973l.039-.129a9.28 9.28 0 0 1 1.035-.18c.363-.042.7-.085 1.008-.128l.013-.026a.162.162 0 0 1 .09-.026.235.235 0 0 0 .115-.038c.009-.01.014-.03.014-.065 0-.034.008-.06.025-.077-.009 0-.013.009-.013.026 0 .008-.004.013-.012.013a.437.437 0 0 0-.026-.046c-.01-.012-.004-.027.012-.044a.775.775 0 0 0-.314-.058 5.42 5.42 0 0 0-.29.02 7.752 7.752 0 0 1-.302.031.71.71 0 0 1-.134 0 .649.649 0 0 0-.128 0 7.303 7.303 0 0 0-.284.032 4.82 4.82 0 0 1-.295.045 2.514 2.514 0 0 0-.308.058h-.013c.085-.188.173-.373.263-.553.09-.18.178-.365.263-.554a5.03 5.03 0 0 0 .296-.617c.085-.214.176-.425.27-.63a.457.457 0 0 0 .032-.116.335.335 0 0 1 .033-.103.807.807 0 0 0 .083-.122.113.113 0 0 0 .007-.11c-.018-.068-.07-.122-.155-.16a.614.614 0 0 0-.257-.058.718.718 0 0 0-.244.051c-.095.035-.15.065-.167.09a.24.24 0 0 0-.058.116 1.13 1.13 0 0 1-.045.142.521.521 0 0 1-.064.148.334.334 0 0 0-.052.122.09.09 0 0 0-.026.064c0 .026-.008.051-.025.077a.75.75 0 0 1-.09.193c-.043.112-.088.226-.135.341-.047.116-.1.23-.16.34-.12.267-.234.529-.341.786-.107.257-.208.52-.302.784a.821.821 0 0 1-.122.04l-.122.025c-.026 0-.086.009-.18.025a8.13 8.13 0 0 0-.308.065c-.112.026-.221.05-.328.07-.108.022-.19.042-.25.059l-.155.064-.058.115c-.02.044-.04.087-.058.13a.785.785 0 0 0-.026.18c0 .052.022.09.065.115.009.018.028.025.058.02.03-.004.066-.01.11-.02a.23.23 0 0 0 .096-.05.918.918 0 0 1 .083-.066c.06-.016.122-.036.186-.057l.174-.058a2.194 2.194 0 0 1 .681-.218c-.043.12-.084.241-.122.366l-.123.38c-.094.325-.196.647-.308.964-.111.318-.21.644-.296.978l-.01.049c-.034.027-.067.056-.112.08-.064.035-.13.073-.199.116a.32.32 0 0 0-.14.025.79.79 0 0 0-.18.11c-.06.047-.121.096-.18.148a2.325 2.325 0 0 0-.206.122.524.524 0 0 1-.045.02c-.022.008-.08.034-.174.077a5.533 5.533 0 0 1-.218.103c-.06.025-.129.056-.206.09a1.615 1.615 0 0 1 .013-.336 7.64 7.64 0 0 1 .07-.488c.03-.171.06-.335.09-.489.03-.154.05-.266.058-.334.026-.095.054-.194.084-.296a.8.8 0 0 0 .032-.296c-.008-.077-.062-.148-.16-.212a.515.515 0 0 0-.277-.097.848.848 0 0 0-.36.116 8.11 8.11 0 0 0-.321.193 3.934 3.934 0 0 0-.72.54c-.205.197-.419.395-.642.592a.75.75 0 0 0-.141.122.251.251 0 0 1-.155.084c.052-.146.105-.278.161-.4.056-.12.11-.239.16-.359a.377.377 0 0 0 .026-.142c0-.051.01-.103.027-.154a5.38 5.38 0 0 0 .128-.22c.042-.077.042-.166 0-.27-.018-.085-.084-.145-.2-.18a.342.342 0 0 0-.385.123.531.531 0 0 1-.058.071 3.286 3.286 0 0 0-.026.148 1.452 1.452 0 0 1-.038.174.767.767 0 0 1-.077.141.74.74 0 0 0-.077.142c-.06.15-.126.29-.189.437a.674.674 0 0 0-.21.077l-.205.129a1.547 1.547 0 0 1-.187.09 1.93 1.93 0 0 1-.211.077 7.005 7.005 0 0 0-.643.27c-.214.103-.41.195-.585.277a7.947 7.947 0 0 1-.443.193c-.12.047-.193.058-.219.032-.025-.026-.025-.082 0-.167a1.88 1.88 0 0 1 .129-.302c.06-.116.124-.239.193-.367l.193-.373a.041.041 0 0 0 .025-.04c0-.016.009-.03.026-.038.009-.008.014-.01.019-.006.004.004.01.002.02-.006a.605.605 0 0 0 .038-.097.304.304 0 0 1 .038-.084.287.287 0 0 0 .052-.193.232.232 0 0 0 .02-.116c-.006-.033-.012-.08-.02-.141a.174.174 0 0 0-.058-.103.55.55 0 0 1-.084-.09c-.025.018-.058.015-.096-.006-.038-.022-.075-.024-.11-.007a.518.518 0 0 0-.192.077c-.12.172-.231.358-.334.56a26.37 26.37 0 0 0-.296.598 6.052 6.052 0 0 1-.192.438.983.983 0 0 1-.071.193c-.03.06-.058.124-.084.193a4.91 4.91 0 0 0-.103.348.641.641 0 0 0 0 .308.482.482 0 0 0 .251.187c.098.03.217.044.354.044.026 0 .042.002.05.007.01.004.027-.007.052-.032.06.025.172-.01.335-.11.163-.098.34-.212.533-.34.193-.13.377-.253.552-.373.176-.121.311-.198.405-.232.103-.052.208-.107.315-.168.107-.06.2-.124.276-.192.095-.043.18-.092.257-.148.028-.02.052-.042.08-.063-.024.05-.043.104-.067.153a4.39 4.39 0 0 0-.321.971c-.026.06-.05.124-.07.193a.311.311 0 0 0-.02.154c.017.069.07.129.16.18.09.052.17.07.238.052.086-.017.22-.129.399-.335.18-.205.415-.463.706-.772.095-.093.193-.18.296-.257.103-.077.197-.154.283-.232.146-.145.291-.278.437-.399.145-.12.295-.24.449-.36l.155-.128a.456.456 0 0 1 .18-.09 3.126 3.126 0 0 1-.065.283 1.661 1.661 0 0 0-.051.321 6.613 6.613 0 0 1-.058.283c-.03.138-.06.281-.09.431l-.084.425a1.767 1.767 0 0 0-.038.264c0 .094.036.2.11.315.072.116.155.165.25.148.06 0 .126-.004.199-.013.073-.008.152-.021.238-.038.102-.034.212-.092.328-.174.115-.081.22-.148.314-.2a4.87 4.87 0 0 1 .2-.128.332.332 0 0 0 .064-.046.66.66 0 0 1 .058-.05c.025-.022.085-.07.18-.148a.446.446 0 0 0 .141-.091c.034-.034.077-.08.128-.14.019-.011.027-.025.045-.036-.035.156-.072.308-.103.472-.055.3-.092.61-.109.926 0 .044.004.086.013.129.009.043.047.081.115.116h.013a.359.359 0 0 1 .122-.033.24.24 0 0 0 .11-.03c.043-.01.06-.02.051-.034-.008-.012.009-.028.052-.044a.675.675 0 0 0 .012-.13c0-.042.009-.085.026-.128l.077-.129a.4.4 0 0 0 .013-.115c0-.051.004-.099.013-.142l.025-.128a.759.759 0 0 1 .04-.13c0-.024.01-.05.031-.077a.327.327 0 0 0 .045-.063.77.77 0 0 0 .07-.232.59.59 0 0 1 .084-.232.893.893 0 0 1 .078-.218.994.994 0 0 0 .076-.207c.13-.454.27-.909.425-1.363.154-.455.304-.91.45-1.364"/></g><g><g/><g clip-path="url(#6t9vb)"><path fill="#fefefe" d="M84.28 43.904c.077 0 .116.013.116.039 0 .025-.02.062-.058.11a1.369 1.369 0 0 1-.142.147.92.92 0 0 0-.135.154c.01 0-.002.011-.032.032a.964.964 0 0 1-.102.065 1.668 1.668 0 0 0-.148.096c-.095.069-.21.144-.347.225l-.411.245c-.138.082-.266.156-.386.225s-.21.116-.27.142l-.925.437a.79.79 0 0 1-.225.097c-.081.021-.16.045-.237.07-.103.026-.219.052-.347.077a1.682 1.682 0 0 1-.386.033 1.046 1.046 0 0 1-.366-.077.643.643 0 0 1-.29-.239.515.515 0 0 1-.102-.282 1.14 1.14 0 0 1 .026-.341c.025-.116.061-.232.109-.348.047-.116.096-.22.147-.315a.376.376 0 0 0 .103-.129.639.639 0 0 0 .052-.129c.113-.135.235-.261.354-.39-.009.003-.017.008-.025.01-.09.032-.17.08-.238.149-.008.017 0 .026.026.026-.043.043-.124.109-.245.199-.12.09-.25.185-.391.283a30.5 30.5 0 0 1-.412.283c-.132.09-.233.161-.301.212l-.232.155c-.077.052-.15.112-.218.18a.607.607 0 0 0-.135.064 1.82 1.82 0 0 0-.122.09l-.103.078c-.06.043-.114.079-.16.109a.293.293 0 0 0-.11.135.4.4 0 0 0-.16.232c-.03.103-.067.201-.11.295a94.354 94.354 0 0 0-.713 1.66 13.588 13.588 0 0 1-.842 1.68 7.711 7.711 0 0 1-1.098 1.447 4.172 4.172 0 0 1-1.459.978 1.63 1.63 0 0 1-.314.07.613.613 0 0 1-.315-.044.855.855 0 0 1-.225-.239c-.056-.09-.071-.14-.046-.148-.016-.446.09-.913.322-1.402.23-.489.531-.971.9-1.448.368-.475.77-.93 1.207-1.363.437-.433.853-.826 1.247-1.178a2.29 2.29 0 0 0 .231-.199 1.87 1.87 0 0 1 .218-.187c.086-.042.144-.074.174-.096a.49.49 0 0 0 .057-.045c.01 0 .028-.038.058-.116.03-.077.037-.116.02-.116l.077-.135c.018-.03.032-.058.045-.083a.48.48 0 0 0 .032-.084c.009-.03.026-.08.052-.147a1.67 1.67 0 0 0 .045-.13.231.231 0 0 0-.007-.141c-.017 0-.034.026-.051.077-.026 0-.04.005-.04.013a1.743 1.743 0 0 1-.05.052l-.052.051a.188.188 0 0 0-.09.064 1.707 1.707 0 0 1-.237.2 1.573 1.573 0 0 0-.225.186.725.725 0 0 1-.141.097 6.197 6.197 0 0 1-.22.116 3.305 3.305 0 0 1-.224.102.871.871 0 0 1-.174.058.446.446 0 0 1-.147.013 2.57 2.57 0 0 1-.257-.013l-.257-.025c-.082-.008-.131-.022-.148-.04h.026a.079.079 0 0 1-.038-.037c-.01-.018-.03-.026-.065-.026a.409.409 0 0 1-.064-.18.958.958 0 0 1 0-.22c.007-.072.02-.14.036-.205-.036.018-.069.033-.082.026a1.51 1.51 0 0 0-.374.231 3.72 3.72 0 0 1-.34.258 1.5 1.5 0 0 1-.373.18.858.858 0 0 1-.469 0 .112.112 0 0 1-.057-.02.406.406 0 0 0-.07-.032.35.35 0 0 1-.162-.122c-.03-.047-.057-.1-.083-.161a1.446 1.446 0 0 1-.013-.553c-.017-.008-.028-.006-.032.007-.005.012-.01.019-.02.019a.37.37 0 0 0-.05.032 1.114 1.114 0 0 1-.065.045l-.122.142a.418.418 0 0 1-.148.102.173.173 0 0 1-.07.078.324.324 0 0 0-.07.051c-.01 0-.012.007-.007.02.003.012.001.019-.007.019a.896.896 0 0 1-.077.032.153.153 0 0 0-.077.058 3.458 3.458 0 0 1-.63.347c-.06.043-.122.08-.186.11a.315.315 0 0 1-.186.031h-.11a.298.298 0 0 1-.109-.025 3.455 3.455 0 0 0-.205-.02.226.226 0 0 1-.168-.083c-.094-.06-.12-.171-.077-.335 0-.008.004-.012.013-.012s.013-.01.013-.026a.636.636 0 0 1 .083-.264c.048-.081.097-.157.148-.225.069-.12.146-.231.231-.335.086-.103.167-.21.245-.321.068-.06.175-.16.32-.296.146-.137.3-.277.463-.418.163-.142.313-.266.45-.373.138-.108.232-.166.283-.174a.655.655 0 0 0 .225-.161.533.533 0 0 1 .263-.148c.009 0 .013-.002.013-.006s.004-.006.013-.006c.017 0 .036.002.058.006.02.004.04-.002.058-.02a.396.396 0 0 0 .18.039c.034.043.073.083.115.122a.176.176 0 0 1 .065.136c.025.026.03.06.012.102a.162.162 0 0 1-.077.09.102.102 0 0 1-.09.032.177.177 0 0 0-.103.02.837.837 0 0 0-.244.154l-.154.103-.025.026a.217.217 0 0 0-.084.019c-.03.013-.054.045-.071.097a.658.658 0 0 0-.205.096 6.466 6.466 0 0 1-.206.135 2.484 2.484 0 0 1-.231.206c-.07.06-.142.125-.219.193-.077.07-.15.137-.218.206a.811.811 0 0 0-.122.122.378.378 0 0 1-.148.11c0 .034-.018.064-.052.09v.025a.299.299 0 0 0-.122.11c-.03.047-.062.092-.096.135a.468.468 0 0 1-.103.206.36.36 0 0 0-.09.193.486.486 0 0 0 .206-.116c.291-.172.57-.354.835-.547.265-.193.54-.397.823-.611.077-.069.151-.124.225-.167a.733.733 0 0 0 .211-.206h.04v-.013a.159.159 0 0 1 .038-.065.162.162 0 0 0 .039-.077.147.147 0 0 0 .012-.064c0-.025.009-.047.026-.065a.291.291 0 0 1 .09-.012h.244c.034.017.081.038.141.064.06.026.09.086.09.18a.882.882 0 0 1-.109.219 16.35 16.35 0 0 0-.148.218.559.559 0 0 1-.09.207v.064c-.034.017-.06.056-.077.116l-.02.103a.485.485 0 0 1-.044.116l-.077.283c0 .11.02.175.064.192.043.018.096.013.16-.012.065-.026.135-.062.213-.11.077-.047.145-.084.205-.109.146-.052.295-.129.45-.232.154-.102.291-.188.411-.257.059-.022.093-.029.14-.043.031-.067.088-.155.183-.272.107-.133.229-.27.366-.412.137-.141.267-.275.392-.399l.263-.263a1.387 1.387 0 0 1 .18-.129c.043-.025.081-.051.116-.078.034-.025.06-.038.077-.038a3.43 3.43 0 0 0 .283-.174 1.31 1.31 0 0 1 .283-.148.304.304 0 0 1 .103-.032.695.695 0 0 1 .076-.006c.137.008.2.038.187.09-.013.052-.058.11-.135.174a4.773 4.773 0 0 1-.27.205 1.202 1.202 0 0 0-.219.187c-.06.043-.115.086-.167.129a.524.524 0 0 0-.128.167.985.985 0 0 1-.141.116.25.25 0 0 0-.103.154 1.485 1.485 0 0 0-.27.296.456.456 0 0 0-.2.193.798.798 0 0 1-.173.219c-.068.103-.135.21-.199.321a1.814 1.814 0 0 0-.16.373.168.168 0 0 1-.02.078.156.156 0 0 0-.019.064c.034.017.062.021.084.013a.938.938 0 0 0 .057-.026c.069-.043.13-.083.186-.122.056-.039.123-.08.2-.122a.606.606 0 0 1 .205-.128c.171-.12.347-.254.527-.4.18-.145.356-.291.527-.438a.625.625 0 0 0 .135-.115c.047-.051.092-.099.135-.142a1.38 1.38 0 0 1 .14-.096c.052-.03.078-.066.078-.11.018-.042.024-.068.02-.076-.004-.01.014-.035.058-.078a1.06 1.06 0 0 0 .083-.096c.03-.04.079-.058.148-.058.026 0 .05.006.07.019.022.013.05.015.084.007.008.017.025.023.051.019a.068.068 0 0 1 .064.02c.07.068.11.127.123.18a.43.43 0 0 1-.007.192 1.238 1.238 0 0 0-.058.226.756.756 0 0 1-.07.224 1.52 1.52 0 0 1-.096.367 2.037 2.037 0 0 0-.11.354.874.874 0 0 1 .27-.257c.129-.086.263-.168.405-.245a7.43 7.43 0 0 1 .405-.206c.128-.06.218-.111.27-.154h.038c.017-.017.037-.034.058-.051.021-.018.04-.026.057-.026.044-.034.09-.066.142-.097a.478.478 0 0 1 .18-.058c0-.008-.005-.013-.013-.013.171-.094.343-.184.514-.27a2.83 2.83 0 0 1 .499-.186c.155-.142.313-.265.476-.354.094-.06.193-.111.296-.155a4.65 4.65 0 0 0 .283-.128.478.478 0 0 0 .083-.052.156.156 0 0 1 .097-.025c.307 0 .509.053.604.16.094.108.14.213.14.316-.007.034-.037.072-.089.116a.518.518 0 0 0-.116.128 2.538 2.538 0 0 0-.115.123.48.48 0 0 0-.077.108c-.343.301-.686.567-1.029.798a.755.755 0 0 1-.34.142c-.142.026-.285.03-.43.013a1.191 1.191 0 0 0-.277.457.74.74 0 0 0-.038.27c.004.09.04.165.109.225.171.017.321 0 .45-.052a3.7 3.7 0 0 1 .373-.128c.093-.026.192-.056.295-.09.102-.034.193-.069.27-.103a50.094 50.094 0 0 0 .77-.373c.104-.052.21-.108.322-.168l.424-.231a29.714 29.714 0 0 0 .822-.425.739.739 0 0 1 .142-.096.82.82 0 0 1 .167-.058c.008 0 .019-.004.032-.013a.063.063 0 0 1 .032-.013m-7.77 2.843a.054.054 0 0 0 .019-.064.36.36 0 0 1-.168.09c-.069.018-.111.048-.129.09a86.814 86.814 0 0 0-1.224 1.197 15.337 15.337 0 0 0-.734.784c-.137.172-.283.348-.437.528-.155.18-.303.371-.444.573a3.987 3.987 0 0 0-.368.637 2.503 2.503 0 0 0-.206.72c.026.017.035.054.026.11a.166.166 0 0 0 .051.147c.284-.042.556-.16.818-.353.262-.193.51-.433.748-.72.236-.289.458-.601.67-.94.21-.339.4-.678.572-1.017.172-.339.326-.658.464-.958.137-.3.25-.549.335-.746-.017-.034-.015-.06.006-.078m4.668-2.955a6.005 6.005 0 0 0-.662.713.431.431 0 0 0 .225-.065c.073-.043.143-.086.212-.13.171-.138.347-.291.527-.46.18-.168.342-.338.488-.512.017 0 .026-.013.026-.038a2.41 2.41 0 0 0-.816.492m-.589-.266c-.01 0-.02-.001-.033.005.012.012.015.01.018.01l.015-.015"/></g></g><g/><g clip-path="url(#6t9vc)"><path fill="#fefefe" d="M84.989 42.073h37.745v-.668H84.989z"/></g><g clip-path="url(#6t9vc)"><path fill="#fefefe" d="M17.255 42.073H55v-.668H17.255z"/></g><g clip-path="url(#6t9vc)"><path fill="#fefefe" d="M84.989 19.84h37.745v-.668H84.989z"/></g><g clip-path="url(#6t9vc)"><path fill="#fefefe" d="M17.255 19.84H55v-.668H17.255z"/></g><g clip-path="url(#6t9vc)"><path fill="#fefefe" d="M5.469 25.773h.743c.183 0 .315.044.395.132.08.088.12.235.12.443v6.38c0 .223-.044.375-.132.458-.088.082-.256.123-.506.123h-.62v.562H9.29v-.562h-.638c-.246 0-.411-.041-.495-.123-.084-.083-.126-.235-.126-.457v-6.417c0-.199.038-.343.114-.43.076-.088.198-.132.366-.132h3.055c.187 0 .32.042.398.126.078.084.117.23.117.436v6.417c0 .222-.044.374-.131.457-.088.082-.255.123-.501.123h-.638v.562h3.833v-.562h-.631c-.25 0-.419-.041-.507-.123-.088-.083-.131-.235-.131-.457v-6.381c0-.2.04-.345.12-.437.08-.092.204-.138.371-.138h.778v-.568H5.47z"/></g><g clip-path="url(#6t9vc)"><path fill="#fefefe" d="M24.942 24.984c1.198 0 2.182.426 2.953 1.277.77.852 1.155 1.944 1.155 3.276 0 1.336-.383 2.426-1.15 3.27-.766.843-1.753 1.266-2.958 1.266-1.206 0-2.195-.425-2.967-1.272-.773-.847-1.159-1.935-1.159-3.264 0-1.328.387-2.419 1.161-3.272.775-.854 1.763-1.28 2.965-1.28m1.918 7.552c.424-.664.637-1.664.637-3 0-1.359-.21-2.365-.631-3.017-.421-.653-1.064-.98-1.929-.98-.864 0-1.508.33-1.93.988-.423.658-.634 1.661-.634 3.01 0 1.347.21 2.35.63 3.008.421.659 1.066.987 1.934.987.858 0 1.498-.332 1.923-.996"/></g><g clip-path="url(#6t9vc)"><path fill="#fefefe" d="M41.871 25.911c-.08.092-.12.238-.12.437v6.961h1.27v2.953h-.456c-.063-.894-.258-1.516-.585-1.866-.328-.35-.884-.524-1.668-.524h-2.699c-.78 0-1.334.174-1.662.524-.328.35-.525.972-.591 1.866h-.439V33.31h1.218c.452-.734.81-1.661 1.071-2.78a15.44 15.44 0 0 0 .392-3.52c0-.53-.058-.87-.173-1.016-.115-.146-.344-.22-.688-.22h-.421v-.568h6.701v.568h-.778c-.168 0-.292.046-.372.138zm-1.425-.138h-2.16c-.038 1.758-.173 3.24-.403 4.445-.23 1.205-.572 2.235-1.025 3.091h3.588z"/></g><g clip-path="url(#6t9vc)"><path fill="#fefefe" d="M50.704 26.265c.775-.854 1.763-1.28 2.965-1.28 1.198 0 2.182.425 2.952 1.277.77.852 1.156 1.943 1.156 3.275 0 1.336-.383 2.426-1.15 3.27-.766.844-1.753 1.266-2.958 1.266-1.206 0-2.195-.424-2.967-1.272-.774-.847-1.16-1.935-1.16-3.264 0-1.328.388-2.419 1.162-3.272m4.888.255c-.42-.653-1.063-.98-1.928-.98s-1.508.33-1.93.988c-.423.658-.635 1.662-.635 3.01 0 1.347.21 2.35.632 3.008.42.659 1.065.988 1.933.988.857 0 1.498-.332 1.923-.997.424-.664.636-1.664.636-3 0-1.359-.21-2.365-.63-3.017"/></g><g clip-path="url(#6t9vc)"><path fill="#fefefe" d="M86.51 33.186c-.088.082-.258.123-.507.123h-.62v.563h3.822v-.563h-.54c-.307 0-.504-.04-.59-.12-.085-.08-.129-.233-.129-.46v-6.381c0-.246.057-.407.17-.484.113-.076.396-.114.849-.114 1.147 0 1.903.164 2.268.492.365.328.63 1.004.798 2.028h.515l-.152-3.065h-7.011v.569h.743c.184 0 .315.044.395.132.08.088.12.235.12.442v6.382c0 .222-.044.374-.132.456"/></g><g clip-path="url(#6t9vc)"><path fill="#fefefe" d="M100.212 33.186c.088-.082.132-.234.132-.456v-6.381c0-.208-.04-.355-.12-.443-.08-.088-.212-.132-.396-.132h-.743v-.569h4.12c1.112 0 1.922.192 2.43.575.506.382.76.988.76 1.816 0 .817-.296 1.43-.89 1.837-.592.409-1.478.612-2.657.612a14.855 14.855 0 0 1-1.2-.035v2.72c0 .222.043.374.127.456.084.082.249.124.494.124h.744v.562h-3.928v-.562h.62c.25 0 .42-.042.507-.124zm1.437-3.732c.081.015.17.025.266.03.095.003.242.005.442.005 1.014 0 1.709-.14 2.084-.422.374-.281.56-.775.56-1.483 0-.668-.154-1.14-.464-1.417-.31-.278-.857-.417-1.641-.417h-.627a.802.802 0 0 0-.088.006.04.04 0 0 1-.017.006c-.188 0-.32.041-.398.123-.078.082-.117.233-.117.451z"/></g><g clip-path="url(#6t9vc)"><path fill="#fefefe" d="M117.53 33.227c.093-.047.14-.129.14-.247a.651.651 0 0 0-.026-.164 2.354 2.354 0 0 0-.085-.251l-.55-1.512h-3.225l-.368.931a3.726 3.726 0 0 0-.12.4c-.033.136-.05.235-.05.298 0 .207.07.361.214.463.142.1.363.152.663.152h.3v.574h-3.097v-.574h.1c.32 0 .565-.067.737-.202.172-.135.338-.404.498-.806l2.814-7.225h.47l3.054 7.641c.098.242.195.401.293.478.097.076.27.114.52.114h.252v.574h-3.581v-.574h.537c.246 0 .416-.024.51-.07zm-.737-2.79l-1.423-3.48-1.37 3.48z"/></g><g clip-path="url(#6t9vc)"><path fill="#fefefe" d="M127.828 25.205h6.701v.568h-.778c-.168 0-.292.046-.372.138-.08.092-.12.238-.12.437v6.961h1.27v2.953h-.456c-.063-.894-.258-1.516-.586-1.866-.327-.35-.883-.525-1.668-.525h-2.698c-.78 0-1.334.175-1.662.525-.327.35-.525.972-.59 1.866h-.44V33.31h1.217c.453-.735.81-1.662 1.072-2.781.26-1.119.392-2.292.392-3.518 0-.532-.058-.87-.173-1.017-.115-.146-.344-.22-.688-.22h-.42zm1.966.568c-.039 1.758-.173 3.24-.404 4.445-.23 1.205-.57 2.235-1.024 3.091h3.588v-7.536z"/></g><g clip-path="url(#6t9vc)"><path fill="#fefefe" d="M71.702 25.908c.076-.09.198-.135.366-.135h.778v-.568h-6.853v.568h.404c.335 0 .561.069.678.205.118.137.176.417.176.839 0 .158-.028.851-.046 1.173-.075 1.27-.382 3.892-.833 4.455-.262.32-.663.533-1.246.684l.074.206.274.76.014.04.108-.034c1.832-.61 1.944-2.66 2.171-5.005.036-.365.094-1.398.099-1.464.04-.725.072-1.138.094-1.237.05-.235.147-.397.29-.487.142-.09.38-.135.716-.135h1.317v6.956c0 .223-.044.374-.132.457-.088.082-.256.123-.506.123h-.632v.562h3.833v-.562h-.632c-.245 0-.41-.041-.497-.123-.086-.083-.13-.234-.13-.457v-6.381c0-.204.04-.35.115-.44"/></g></g></g></g></g></svg>