<svg xmlns="http://www.w3.org/2000/svg" width="100" height="123" viewBox="0 0 100 123"><defs><clipPath id="qi6ta"><path d="M89.55 103.345h8.955v10.698H89.55z"/></clipPath></defs><g><g><g><g><path fill="#fefefe" d="M3.512 108.292c.682 0 1.332-.044 1.512-.09.25-.06.458-.193.682-.46.162-.226.34-.642.34-.926 0-.104.044-.135.118-.135l.398.047c.074.014.136.028.12.118-.046.254-.046 1.028-.046 1.549 0 .671.062 1.385.09 1.699.014.088-.044.104-.118.118l-.356.077c-.058.014-.088-.016-.116-.12a4.705 4.705 0 0 0-.298-.759c-.164-.283-.52-.478-.814-.523-.4-.06-.86-.09-1.512-.09v.895c0 .804.074 2.25.074 2.517 0 .774.162 1.044.356 1.132.222.09.502.135 1.244.135.252 0 .874-.016 1.186-.044.294-.03.74-.18 1.124-.493.388-.311 1.218-1.236 1.512-1.592.06-.06.104-.077.148-.047l.252.15c.06.03.074.074.06.118l-.666 2.25c-.046.133-.15.223-.328.223-.074 0-.4-.014-1.346-.028-.964 0-2.534-.016-5.098-.016-.55 0-.964.016-1.26.016-.31.014-.504.028-.636.028-.104 0-.134-.044-.134-.163v-.313c0-.089.044-.133.148-.133h.444c.682 0 .74-.107.74-.628v-4.988c0-1.237-.028-3.071-.042-3.218-.06-.478-.21-.581-.608-.581H.104c-.06 0-.074-.046-.074-.15v-.357c0-.046.014-.106.104-.106.326 0 .842.046 2.192.046l5.2-.016c.238 0 .52-.03.594-.03.074 0 .102.03.118.076.06.207.55 2.248.608 2.397.03.074.03.107-.044.15l-.24.12c-.058.03-.132.014-.174-.06-.076-.12-1.41-1.46-1.752-1.67-.31-.193-.726-.386-1.124-.4l-1.958-.06z"/></g><g><path fill="#fefefe" d="M13.193 107.158c0-.386-.046-2.502-.074-2.725-.046-.358-.24-.418-.49-.418h-.742c-.074 0-.118-.014-.118-.103v-.432c0-.06.044-.076.104-.076.192 0 .844.046 2.328.046.384 0 1.866-.046 2.206-.046 2.016 0 3.616.179 5.024 1.355.978.82 1.66 2.057 1.66 3.784 0 1.714-.49 2.846-1.468 3.92-1.436 1.564-3.972 1.578-4.906 1.578-.236 0-1.984-.044-2.798-.044-1.29 0-1.882.044-2.09.044-.074 0-.104-.03-.104-.133v-.39c0-.058.044-.088.12-.088h.77c.28 0 .444-.119.474-.358.044-.312.104-3.664.104-4.796zm2.222 1.446c0 .193.014 2.724.03 3.65 0 .297.058.536.252.818.176.27.68.358 1.184.358.86 0 2-.43 2.77-1.46.594-.788 1.054-2.01 1.054-3.396 0-1.223-.504-2.474-1.2-3.248-.786-.879-2.09-1.355-2.95-1.355-.414 0-.636.014-.83.118-.222.105-.28.344-.296.642-.014.625-.014 2.576-.014 2.815z"/></g><g><path fill="#fefefe" d="M29.112 108.292c.682 0 1.332-.044 1.512-.09.252-.06.458-.193.682-.46.162-.226.34-.642.34-.926 0-.104.044-.135.118-.135l.4.047c.072.014.134.028.118.118-.046.254-.046 1.028-.046 1.549 0 .671.062 1.385.09 1.699.016.088-.044.104-.118.118l-.356.077c-.058.014-.088-.016-.116-.12a4.705 4.705 0 0 0-.298-.759c-.162-.283-.52-.478-.814-.523-.4-.06-.86-.09-1.512-.09v.895c0 .804.074 2.25.074 2.517 0 .774.162 1.044.356 1.132.222.09.504.135 1.244.135.252 0 .874-.016 1.186-.044a2.25 2.25 0 0 0 1.124-.493c.388-.311 1.218-1.236 1.512-1.592.06-.06.106-.077.148-.047l.252.15c.062.03.074.074.062.118l-.668 2.25c-.046.133-.15.223-.328.223-.074 0-.4-.014-1.346-.028-.964 0-2.534-.016-5.098-.016-.55 0-.964.016-1.26.016-.31.014-.504.028-.636.028-.104 0-.134-.044-.134-.163v-.313c0-.089.046-.133.148-.133h.444c.682 0 .74-.107.74-.628v-4.988c0-1.237-.028-3.071-.042-3.218-.06-.478-.208-.581-.608-.581h-.578c-.058 0-.074-.046-.074-.15v-.357c0-.046.016-.106.104-.106.326 0 .842.046 2.192.046l5.202-.016c.236 0 .518-.03.592-.03.074 0 .102.03.118.076.06.207.55 2.248.608 2.397.03.074.03.107-.044.15l-.238.12c-.06.03-.134.014-.176-.06-.076-.12-1.41-1.46-1.752-1.67-.31-.193-.724-.386-1.124-.4l-1.958-.06z"/></g><g><path fill="#fefefe" d="M40.901 109.334c0 .253 0 3.47.044 4.066h.844c.698 0 1.364 0 2.164-.075.8-.072 1.808-1.86 2.03-2.41.044-.091.088-.135.178-.091l.294.118c.046.03.046.047.032.135-.044.105-.636 2.562-.726 2.964-.386-.028-4.652-.044-6.016-.044-1.468 0-2 .044-2.194.044-.104 0-.118-.028-.118-.133v-.374c0-.074.014-.102.104-.102h.46c.546 0 .636-.21.636-.372 0-.286.046-3.994.046-4.903v-.834c0-.953-.03-2.532-.046-2.771-.028-.388-.104-.537-.444-.537h-.548c-.09 0-.104-.074-.104-.149v-.356c0-.076.014-.106.104-.106.162 0 .696.046 2.044.046 1.734 0 2.356-.046 2.49-.046.118 0 .132.046.132.15v.342c0 .075-.03.119-.146.119h-.698c-.458 0-.518.149-.518.551 0 .195-.044 2.445-.044 3.487z"/></g><g><path fill="#fefefe" d="M50.16 107.158c0-.386-.046-2.502-.074-2.725-.046-.358-.24-.418-.49-.418h-.742c-.074 0-.118-.014-.118-.103v-.432c0-.06.044-.076.104-.076.192 0 .844.046 2.328.046.384 0 1.866-.046 2.206-.046 2.016 0 3.616.179 5.024 1.355.978.82 1.658 2.057 1.658 3.784 0 1.714-.488 2.846-1.466 3.92-1.436 1.564-3.972 1.578-4.906 1.578-.236 0-1.984-.044-2.798-.044-1.29 0-1.882.044-2.09.044-.074 0-.104-.03-.104-.133v-.39c0-.058.044-.088.118-.088h.772c.28 0 .444-.119.474-.358.044-.312.104-3.664.104-4.796zm2.222 1.446c0 .193.014 2.724.03 3.65 0 .297.058.536.252.818.176.27.68.358 1.184.358.86 0 2-.43 2.77-1.46.594-.788 1.054-2.01 1.054-3.396 0-1.223-.504-2.474-1.2-3.248-.786-.879-2.09-1.355-2.95-1.355-.414 0-.636.014-.83.118-.222.105-.28.344-.296.642-.014.625-.014 2.576-.014 2.815z"/></g><g><path fill="#fefefe" d="M65.195 113.254c-1.052-.641-2.178-2.25-2.178-4.426 0-.907.236-2.322 1.378-3.708 1.304-1.594 2.978-1.892 4.312-1.892 1.228 0 2.368.193 3.612 1.176 1.128.895 2.032 2.4 2.032 4.454 0 1.088-.34 2.22-1.112 3.264-.962 1.207-2.222 2.1-4.564 2.1-1.022 0-2.31-.238-3.48-.968m6.83-4.275c0-3.264-2.132-5.051-3.378-5.051-.296 0-1.038-.075-1.942.804-.874.835-1.318 2.399-1.318 3.62 0 3.814 2.18 5.17 3.408 5.17 2.74 0 3.23-3.322 3.23-4.543"/></g><g><path fill="#fefefe" d="M78.132 107.218c0-1.102 0-2.055-.016-2.457-.016-.493-.206-.746-.414-.746h-.594c-.074 0-.088-.044-.088-.103v-.404c0-.074.014-.104.088-.104.134 0 .594.046 2.21.046.828 0 2.132-.046 2.74-.046 1.156 0 2.016.418 2.622.983.534.493.844 1.074.844 1.625 0 1.892-1.408 2.74-2.71 2.86v.106c.458.147.694.432.978.788.192.237 1.006 1.564 1.124 1.743.09.133.89 1.265 1.186 1.61.178.192.74.313 1.082.313.104 0 .118.058.118.118v.358c0 .089-.014.133-.118.133-.118 0-.504-.044-1.644-.044-.432 0-.978.03-1.408.044-.446-.342-1.364-2.071-1.616-2.576-.504-1.013-1.11-2.117-1.822-2.117h-.504v.76c0 .88.046 2.548.074 2.74.03.314.148.584.37.584h.61c.102 0 .116.044.116.118v.358c0 .105-.014.133-.236.133-.016 0-.384-.044-1.942-.044-1.57 0-1.91.044-2.074.044-.116 0-.116-.044-.116-.149v-.342c0-.074 0-.118.072-.118h.444c.326 0 .592-.107.592-.479.032-1.474.032-2.873.032-4.29zm2.072 1.609c.284.016.461.016.595.016 1.96 0 2.423-1.878 2.423-2.578 0-.686-.239-1.341-.564-1.669-.537-.476-1.205-.655-1.652-.655-.25 0-.445.03-.564.134-.09.06-.132.223-.162.402z"/></g><g><g/><g clip-path="url(#qi6ta)"><path fill="#fefefe" d="M93.15 108.738c.578 0 1.186-.044 1.466-.088.252-.03.534-.225.772-.537.162-.21.266-.521.326-.79.014-.075.06-.12.118-.12l.342.031c.058 0 .088.044.088.105-.03.253-.03 1.488-.03 1.697 0 .537.044 1.253.074 1.55 0 .075-.03.105-.104.119l-.326.074c-.058.014-.102-.03-.116-.118-.032-.121-.194-.567-.284-.716-.176-.252-.458-.521-.724-.595-.476-.091-.994-.105-1.602-.105v.567c0 .446.016 2.948.016 3.143 0 .4.148.477.356.477h.872c.09 0 .134.03.134.088v.402c0 .09-.028.12-.118.12-.148 0-.74-.045-2.282-.045-1.452 0-2.016.046-2.238.046-.058 0-.088-.03-.088-.135v-.402c0-.06.044-.074.104-.074h.52c.31 0 .43-.06.442-.298.016-.298.06-2.176.06-4.738v-1.043c0-.656-.03-2.755-.03-2.906 0-.281-.206-.43-.608-.43h-.606c-.088 0-.134-.03-.134-.09v-.433c0-.058.046-.089.104-.089.162 0 .726.045 2.534.045.206 0 4.104-.045 4.816-.045.326 0 .652-.06.77-.06.074 0 .118.09.148.253l.578 2.43c.014.06 0 .104-.046.118l-.296.163c-.074.032-.104 0-.208-.149-.19-.251-.548-.73-1.154-1.37-.268-.297-.668-.58-1.022-.669-.372-.104-1.942-.15-2.608-.15 0 .195-.016 3.159-.016 4.067z"/></g></g><g><path fill="#fefefe" d="M11.135 122.458c.148-.047.148-.163.158-.393.006-.189.006-.7.006-1.138 0-.494-.006-1.088-.012-1.158-.01-.129-.034-.185-.13-.22-.066-.025-.174-.035-.28-.045-.016-.01-.01-.073 0-.077.162 0 .426.014.584.014h2.106c.202 0 .446-.014.532-.014.006.02.01.056 0 .07-.094.023-.172.03-.222.053-.114.034-.152.076-.158.27-.004.148-.016.597-.016 1.178 0 .444-.004 1.071.016 1.224.01.139.032.2.132.236a.955.955 0 0 0 .28.05c.004.012.004.062-.012.076-.102 0-.324-.014-.552-.014-.232 0-.452.01-.572.014-.012-.004-.012-.07 0-.076.09-.008.226-.03.298-.06.076-.037.086-.113.092-.236.01-.159.004-1.045.004-1.265 0-.235.006-1.254-.01-1.333-.006-.02-.032-.034-.036-.034a53.221 53.221 0 0 0-1.7 0c-.01 0-.02.026-.02.03-.01.077-.01 1.112-.01 1.347 0 .21.004.98.01 1.185.004.173.016.28.136.316.072.02.122.03.27.05 0 .022.004.068-.01.076-.24-.004-.354-.014-.548-.014-.194 0-.476.01-.594.014a.164.164 0 0 1 0-.076c.106-.014.198-.03.258-.05"/></g><g><path fill="#fefefe" d="M15.555 119.427c.112 0 .258.016.538.016h.98c.188 0 .436-.006.512-.016.006 0 .014.01.014.016a4.755 4.755 0 0 0-.09.648c-.01.01-.066.014-.08.006a1.782 1.782 0 0 0-.042-.302c-.036-.123-.07-.205-.29-.215-.132-.004-.694-.01-.776 0-.036.006-.052.046-.052.072-.008.183-.014 1.153-.008 1.199 0 .02.004.042.014.042.128.008.664.004.814-.006.162-.01.19-.092.216-.169.022-.056.038-.123.05-.189.016-.01.082-.006.088.006-.014.08-.036.29-.036.453 0 .22.012.331.012.408-.016.022-.076.026-.088.006-.01-.077-.014-.117-.03-.173-.016-.062-.036-.17-.208-.18-.154-.01-.674-.015-.814-.003-.01 0-.018.034-.018.04-.006.087 0 .847.008 1.148.006.133.074.173.124.183.102.02.284.03.644.03.31 0 .37-.066.436-.13.076-.069.194-.262.274-.46.012-.005.056.02.066.035a3.05 3.05 0 0 1-.208.638c-.03.05-.046.056-.304.056-.254 0-.412-.016-1.204-.016-.338 0-.462.016-.654.016-.012-.01-.014-.06 0-.076.128-.01.23-.016.32-.04.122-.033.164-.089.176-.298.006-.076.012-.678.012-1.279 0-.507-.006-.997-.012-1.074-.01-.203-.028-.25-.156-.28a1.417 1.417 0 0 0-.234-.04c-.016-.012-.01-.062.006-.072"/></g><g><path fill="#fefefe" d="M20.005 121.163c0-.005.01-.027.014-.027.056.01.11.022.228.022a.69.69 0 0 0 .376-.086c.254-.149.316-.4.316-.686 0-.464-.216-.846-.88-.846a.858.858 0 0 0-.202.02c-.016.006-.032.026-.036.066-.006.123-.016.505-.016 1.2 0 .333-.014.914 0 1.316.006.281.052.301.21.332.07.016.162.026.232.036.022.01.016.072.006.076-.126 0-.422-.014-.604-.014-.224 0-.498.014-.584.014-.016-.01-.02-.066-.006-.076.096-.01.178-.02.238-.036.108-.03.164-.02.178-.31.01-.155.022-.434.022-1.19 0-.312.004-1-.006-1.143-.01-.175-.03-.255-.158-.285a1.667 1.667 0 0 0-.252-.042c-.006-.017.004-.07.014-.077.086 0 .314.016.548.016.244 0 .41-.01.69-.01.178 0 .466.04.65.187a.805.805 0 0 1 .3.65.933.933 0 0 1-.528.889 1.1 1.1 0 0 1-.706.08.208.208 0 0 1-.044-.076"/></g><g><path fill="#fefefe" d="M22.463 119.427c.096 0 .298.016.584.016.274 0 .384-.012.522-.016.012.016.012.06 0 .077a1.397 1.397 0 0 0-.218.042c-.1.03-.136.07-.142.217-.006.082-.01.971-.01 1.17 0 1.046-.006 1.337.016 1.424.01.044.04.05.05.054.056.012 1.01.016 1.072.012.034-.006.07-.022.076-.066.014-.195.014-.991.014-1.43 0-.494 0-1.096-.006-1.168-.008-.127-.028-.159-.106-.195-.064-.03-.132-.04-.264-.06-.01-.02-.01-.06 0-.077.072 0 .178.016.538.016.274 0 .382-.012.522-.016.012.02.006.06-.004.077-.06.006-.172.02-.222.036-.102.03-.128.086-.132.233-.01.082-.016.961-.016 1.16 0 1.046.006 1.291.016 1.414 0 .02.018.064.056.064.188.012 1.038.022 1.114 0 .016-.004.026-.018.032-.04.016-.117.01-.398.01-1.351 0-.242-.006-1.215-.01-1.297-.006-.077-.04-.143-.118-.17-.066-.023-.152-.033-.244-.05a.125.125 0 0 1 0-.076c.098 0 .316.016.55.016.202 0 .45-.016.532-.016.01.01.01.06 0 .077-.096.02-.186.03-.244.05-.104.036-.13.092-.136.287-.006.141-.016.575-.016 1.159 0 .86 0 1.065.01 1.244.012.137.038.18.132.214.068.026.182.042.28.052.01.016.01.06-.01.076-.202 0-.326-.016-.514-.016h-3.12c-.194 0-.482.01-.6.016-.01-.006-.01-.066 0-.076.108-.016.204-.03.264-.052.148-.047.142-.133.152-.362.006-.19.012-.73.012-1.169 0-.494-.006-1.086-.012-1.158-.01-.129-.03-.169-.106-.205a1.165 1.165 0 0 0-.304-.054c-.016-.01-.01-.073 0-.083"/></g><g><path fill="#fefefe" d="M28.491 122.044c.31-.734.766-2.045.878-2.353.036-.103.06-.187.07-.255.006 0 .048.006.118.006.076 0 .11-.006.116-.006.01.046.03.128.062.225.092.255.678 2.113.832 2.49.132.3.152.317.492.357.01.016.006.066-.01.077a10.13 10.13 0 0 0-1.096 0c-.006-.01-.01-.065 0-.077.102-.014.182-.026.254-.05.08-.036.08-.073.06-.143-.056-.22-.248-.766-.346-1.048 0 0-.028-.024-.034-.024-.052-.006-.158-.006-.474-.006-.338 0-.364 0-.416.006-.014 0-.034.02-.04.036-.102.266-.308.827-.33.974-.014.092-.02.175.148.215.06.014.106.026.214.04.008.012.006.066-.006.077-.09 0-.356-.015-.578-.015-.248 0-.402.015-.478.015-.014-.004-.014-.065 0-.077.356-.046.406-.086.564-.464m.964-2.204c-.08.213-.334.975-.41 1.198 0 .02.004.032.02.036.044.006.172.006.446.006.112 0 .31 0 .334-.006.006 0 .016-.016.01-.036-.12-.388-.304-.98-.38-1.202-.004 0-.02 0-.02.004"/></g><g><path fill="#fefefe" d="M34.161 122.044c.31-.734.772-2.041.878-2.337.036-.103.062-.205.072-.271.006 0 .046.006.116.006.076 0 .112-.006.118-.006.01.046.028.142.06.24.092.274.68 2.098.832 2.474.132.302.152.318.492.358.012.016 0 .073-.01.077-.126-.004-.416-.015-.532-.015-.122 0-.462.004-.568.015-.004-.01-.01-.067 0-.077.1-.014.182-.026.252-.05.082-.036.082-.073.062-.143-.096-.344-.598-1.874-.792-2.46 0-.005-.016 0-.02 0-.138.413-.7 1.97-.808 2.281-.076.213-.026.296.128.332.06.014.082.02.214.04.01.01.004.066-.006.077-.092 0-.35-.015-.574-.015-.248 0-.4.015-.476.015-.01-.004-.01-.073 0-.077.354-.046.406-.086.562-.464"/></g><g><path fill="#fefefe" d="M37.963 119.427c.092 0 .356.016.588.016.214 0 .366-.016.488-.016.01.016.016.06.004.077-.076.01-.162.02-.206.03-.112.03-.134.106-.144.265a52.301 52.301 0 0 0-.004 2.385c.01.157.026.243.152.28.072.02.164.036.258.046.016.016.006.066-.006.076-.104 0-.288-.016-.51-.016-.248 0-.35.016-.614.016-.016-.016-.012-.066 0-.076.07-.006.166-.022.226-.036.128-.027.148-.103.158-.22.01-.122.016-1.005.016-1.43 0-.381 0-.78-.01-1.015-.016-.122-.012-.229-.126-.26a2.323 2.323 0 0 0-.276-.045c-.014-.01-.004-.067.006-.077"/></g><g><path fill="#fefefe" d="M40.445 119.427c.162 0 .426.016.584.016.274 0 .384-.012.522-.016.01.016.01.066-.004.077-.062.006-.158.02-.21.036-.1.03-.142.054-.146.223-.012.205-.012.55-.012 1.084 0 .02.012.034.022.04.01.006.08.01.944.01.502 0 .796 0 .842-.004.01 0 .02-.022.02-.026 0-.268 0-.98-.01-1.138-.006-.097-.03-.153-.1-.18a1.47 1.47 0 0 0-.26-.045c-.016-.017-.016-.06 0-.077.098 0 .31.016.542.016.21 0 .458-.016.54-.016.01.016.016.06 0 .077-.092.016-.174.026-.23.046-.106.036-.146.07-.152.291-.006.141-.016.575-.016 1.159 0 .442.006 1.075.016 1.228.01.139.036.195.132.23.066.026.132.036.278.052.012.016.012.06-.01.076-.202 0-.324-.016-.558-.016-.232 0-.444.01-.568.016-.016-.02-.01-.06 0-.076.086-.01.158-.016.254-.04.108-.033.132-.073.136-.256.006-.128.006-.802.006-1.118 0-.02-.01-.036-.02-.036-.072-.004-.584-.004-.852-.004-.356 0-.88 0-.934.004-.01 0-.022.026-.022.03 0 .262.006.975.012 1.052.014.175.004.275.128.311.07.02.11.035.278.057.01.016 0 .07-.016.076-.158-.006-.35-.016-.542-.016-.194 0-.478.01-.594.016-.016-.016-.016-.06 0-.076.106-.016.198-.03.258-.052.148-.047.148-.163.158-.393.004-.189.004-.7.004-1.138 0-.494-.004-1.086-.01-1.158-.01-.153-.054-.2-.13-.22-.076-.02-.154-.025-.28-.045-.016-.017-.012-.06 0-.077"/></g><g><path fill="#fefefe" d="M45.104 119.427c.092 0 .356.016.59.016.212 0 .366-.016.486-.016.01.016.016.06.006.077-.076.01-.162.02-.208.03-.112.03-.132.106-.144.265-.01.215-.014.724-.014 1.17 0 .48.004 1.046.01 1.215.01.157.026.243.152.28.072.02.164.036.258.046.016.016.006.066-.004.076-.106 0-.288-.016-.512-.016-.248 0-.35.016-.614.016-.016-.016-.01-.066 0-.076.07-.006.168-.022.228-.036.128-.027.146-.103.156-.22.012-.122.016-1.005.016-1.43 0-.381 0-.78-.01-1.015-.016-.122-.01-.229-.126-.26a2.348 2.348 0 0 0-.274-.045c-.016-.01-.006-.067.004-.077"/></g><g><path fill="#fefefe" d="M50.111 119.54c-.098.02-.178.066-.184.195a61.41 61.41 0 0 0-.014 1.305c0 .271.012 1.001.014 1.138.006.189.052.265.174.296.056.016.158.026.23.036.01.004.004.072-.006.076-.076 0-.362-.014-.566-.014-.212 0-.466.014-.526.014-.004-.01-.01-.066 0-.076.126-.014.168-.026.234-.04.092-.033.126-.073.136-.292.01-.189.006-.76.006-1.032 0-.01-.012-.034-.024-.034-.088 0-.098 0-.178.01a.511.511 0 0 0-.352.215c-.232.3-.552.79-.746 1a.578.578 0 0 1-.232.183c-.15.066-.412.092-.59.082-.01-.006-.016-.062-.01-.072.234-.02.27 0 .524-.276.232-.255.73-1.04.952-1.148.006-.004.012-.01 0-.02-.4-.096-.724-.382-.724-.832 0-.459.334-.82 1.026-.82.176 0 .44.01.596.01.134 0 .34-.017.464-.017.01.006.016.068 0 .077a4.39 4.39 0 0 0-.204.036m-.894 0c-.37 0-.648.23-.648.666 0 .743.618.814 1.016.8.008 0 .024-.016.024-.027 0-.337 0-1.167-.016-1.342 0-.02-.02-.05-.05-.06a1.014 1.014 0 0 0-.326-.037"/></g><g><path fill="#fefefe" d="M53.687 122.458c.146-.047.146-.163.156-.393.006-.189.006-.7.006-1.138 0-.494-.006-1.088-.01-1.158-.012-.129-.036-.185-.132-.22a1.173 1.173 0 0 0-.28-.045c-.016-.01-.01-.073 0-.077.162 0 .426.014.584.014h2.106c.202 0 .446-.014.532-.014.006.02.01.056 0 .07-.094.023-.17.03-.222.053-.112.034-.152.076-.158.27-.004.148-.014.597-.014 1.178 0 .444-.006 1.071.014 1.224.012.139.032.2.132.236a.955.955 0 0 0 .28.05c.004.012.004.062-.01.076-.102 0-.326-.014-.554-.014-.232 0-.452.01-.572.014-.01-.004-.01-.07 0-.076.092-.008.228-.03.298-.06.076-.037.086-.113.092-.236.01-.159.004-1.045.004-1.265 0-.235.006-1.254-.01-1.333-.004-.02-.03-.034-.034-.034a53.223 53.223 0 0 0-1.7 0c-.012 0-.022.026-.022.03-.01.077-.01 1.112-.01 1.347 0 .21.006.98.01 1.185.006.173.016.28.138.316.072.02.122.03.268.05 0 .022.006.068-.01.076-.238-.004-.354-.014-.548-.014-.194 0-.476.01-.594.014a.164.164 0 0 1 0-.076c.108-.014.198-.03.26-.05"/></g><g><path fill="#fefefe" d="M58.104 119.427c.112 0 .26.016.538.016h.98c.188 0 .438-.006.514-.016.004 0 .012.01.012.016a4.457 4.457 0 0 0-.088.648c-.012.01-.068.014-.082.006a1.782 1.782 0 0 0-.042-.302c-.036-.123-.07-.205-.29-.215a14.15 14.15 0 0 0-.774 0c-.038.006-.054.046-.054.072-.008.183-.012 1.153-.008 1.199 0 .02.004.042.014.042.128.008.666.004.814-.006.162-.01.192-.092.218-.169.02-.056.036-.123.05-.189.014-.01.08-.006.086.006a3.35 3.35 0 0 0-.034.453c0 .22.01.331.01.408-.016.022-.076.026-.086.006-.012-.077-.016-.117-.032-.173-.016-.062-.036-.17-.208-.18a9.974 9.974 0 0 0-.812-.003c-.012 0-.02.034-.02.04-.004.087 0 .847.008 1.148.006.133.074.173.124.183.102.02.284.03.644.03.31 0 .372-.066.436-.13.076-.069.194-.262.276-.46.01-.005.054.02.066.035-.026.163-.154.541-.21.638-.03.05-.044.056-.304.056-.254 0-.41-.016-1.204-.016-.338 0-.46.016-.654.016-.01-.01-.014-.06 0-.076.128-.01.23-.016.32-.04.122-.033.164-.089.178-.298.004-.076.01-.678.01-1.279 0-.507-.006-.997-.01-1.074-.012-.203-.03-.25-.158-.28a1.417 1.417 0 0 0-.234-.04c-.014-.012-.01-.062.006-.072"/></g><g><path fill="#fefefe" d="M61.563 119.427c.092 0 .258.016.534.016.232 0 .4-.016.466-.016.01.01.01.06 0 .077-.244.042-.274.082-.286.183-.008.102-.004.45 0 .639.016.611.442.662.746.662.19 0 .422-.04.59-.127a.07.07 0 0 0 .01-.026c0-.342.006-.897-.01-1.092-.008-.137-.04-.173-.162-.21a1.75 1.75 0 0 0-.198-.03c-.01-.01-.01-.066 0-.076.148 0 .3.016.538.016.31 0 .442-.016.538-.016.016.01.016.067.006.077-.118.02-.168.03-.23.046-.11.03-.148.07-.152.25-.006.234-.016.785-.016 1.17 0 0 .006 1.091.016 1.29.01.107.036.177.172.214.062.014.138.026.238.036.012.016.006.066-.008.076-.138 0-.264-.016-.518-.016-.32 0-.436.016-.604.016-.01-.006-.01-.076 0-.076.07-.006.152-.016.222-.03.144-.033.158-.103.162-.394.006-.266.006-.82.006-1.117 0-.006-.01-.026-.016-.022-.232.13-.526.22-.79.22-.304 0-.558-.057-.736-.29-.076-.103-.128-.261-.128-.567 0 0-.006-.382-.006-.505 0-.149-.028-.235-.176-.271a1.705 1.705 0 0 0-.214-.03c-.01-.02-.01-.057.006-.077"/></g><g><path fill="#fefefe" d="M65.788 119.427c.114 0 .26.016.54.016h.978c.19 0 .438-.006.514-.016.004 0 .014.01.014.016a4.461 4.461 0 0 0-.09.648c-.01.01-.068.014-.082.006a1.782 1.782 0 0 0-.042-.302c-.036-.123-.07-.205-.29-.215-.13-.004-.694-.01-.774 0-.036.006-.052.046-.052.072-.008.183-.014 1.153-.008 1.199 0 .02.002.042.012.042.128.008.666.004.814-.006.162-.01.192-.092.218-.169.02-.056.036-.123.05-.189.016-.01.082-.006.086.006a3.35 3.35 0 0 0-.034.453c0 .22.01.331.01.408-.016.022-.076.026-.086.006a1.074 1.074 0 0 0-.032-.173c-.014-.062-.036-.17-.206-.18-.154-.01-.676-.015-.814-.003-.01 0-.018.034-.018.04-.006.087 0 .847.008 1.148.004.133.072.173.122.183.102.02.286.03.644.03.31 0 .372-.066.438-.13.076-.069.192-.262.274-.46.01-.005.056.02.066.035-.026.163-.152.541-.21.638-.028.05-.044.056-.304.056-.254 0-.41-.016-1.204-.016-.338 0-.46.016-.654.016-.01-.01-.014-.06 0-.076.128-.01.23-.016.32-.04.122-.033.164-.089.178-.298.004-.076.01-.678.01-1.279 0-.507-.006-.997-.01-1.074-.01-.203-.03-.25-.158-.28-.06-.015-.13-.03-.232-.04-.016-.012-.01-.062.004-.072"/></g><g><path fill="#fefefe" d="M70.237 121.163c0-.005.01-.027.016-.027.054.01.11.022.228.022a.7.7 0 0 0 .376-.086c.254-.149.314-.4.314-.686 0-.464-.214-.846-.878-.846a.847.847 0 0 0-.202.02c-.016.006-.032.026-.038.066-.004.123-.014.505-.014 1.2 0 .333-.014.914 0 1.316.004.281.052.301.208.332.072.016.162.026.234.036.02.01.016.072.004.076-.126 0-.42-.014-.604-.014-.222 0-.498.014-.584.014-.016-.01-.018-.066-.004-.076.096-.01.178-.02.238-.036.106-.03.164-.02.178-.31.01-.155.02-.434.02-1.19 0-.312.006-1-.004-1.143-.012-.175-.03-.255-.158-.285a1.7 1.7 0 0 0-.254-.042c-.006-.017.006-.07.016-.077.086 0 .314.016.546.016.244 0 .412-.01.692-.01.178 0 .466.04.65.187a.817.817 0 0 1 .3.65.936.936 0 0 1-.528.889 1.113 1.113 0 0 1-.708.08.242.242 0 0 1-.044-.076"/></g><g><path fill="#fefefe" d="M75.182 119.587c-.168-.082-.366-.117-.644-.117-.804 0-1.274.572-1.274 1.464 0 .98.558 1.583 1.446 1.583.148 0 .406-.016.608-.21.138-.132.214-.255.33-.458.016-.006.074.018.074.04-.074.264-.276.622-.382.668a2.54 2.54 0 0 1-.726.107c-1.082 0-1.722-.612-1.722-1.683 0-.555.24-1.092.794-1.39.268-.147.598-.24 1.036-.24.394 0 .698.083.926.103-.034.15-.086.521-.092.72-.008.014-.088.03-.088.01-.052-.424-.128-.52-.286-.597"/></g><g><path fill="#fefefe" d="M77.316 122.462c.102-.025.112-.087.128-.27.01-.163.016-.515.016-1.208 0-.787 0-1.062-.012-1.237-.01-.137-.052-.18-.128-.197-.09-.026-.202-.036-.248-.042-.01-.01-.004-.067.006-.077.156.004.324.016.528.016.212 0 .4-.02.524-.02.01.014.01.06 0 .077-.076.01-.174.024-.22.034-.11.03-.132.086-.136.271-.006.213-.012.531-.012.973 0 .013.016.023.016.023.212-.017.402-.023.548-.023.68 0 .96.405.96.833 0 .414-.232.74-.644.899-.148.056-.296.086-.64.086-.228 0-.694-.01-1-.01-.01-.006-.016-.066 0-.076.112-.016.204-.026.314-.052m1.62-.72c0-.548-.29-.83-.92-.83-.166 0-.176.003-.232.01-.01 0-.022.026-.022.036 0 .317 0 1.106.012 1.3.004.046.014.093.05.123.112.083.29.103.41.103.508 0 .702-.35.702-.743"/></g><g><path fill="#fefefe" d="M80.646 122.485c.194-.036.204-.123.212-.382.006-.236.01-.996.01-1.205 0-.209 0-.899-.01-1.108-.004-.133-.014-.219-.156-.25a1.76 1.76 0 0 0-.234-.035c-.016-.016-.01-.073.006-.077.102 0 .334.016.556.016.244 0 .404-.02.494-.016.02.004.026.073 0 .077-.096.016-.112.016-.176.03-.154.03-.16.112-.164.291-.004.2-.004.78-.004 1.072 0 .01.004.02.018.02.33 0 .448-.096.528-.215.102-.147.158-.243.26-.448.334-.69.524-.903.838-.903a.32.32 0 0 1 .142.056c.01.004.03.046.03.056a.667.667 0 0 1-.07.28c-.016.02-.042.03-.048.026-.054-.036-.182-.102-.258-.102-.146 0-.238.092-.412.434-.216.428-.374.708-.526.81-.006.006-.01.016-.006.022.076.04.138.1.228.22.224.305.444.597.682.896.354.445.444.45.806.46.02 0 .01.077-.006.077-.12.02-.522-.006-.594-.016a.43.43 0 0 1-.288-.137c-.172-.168-.498-.643-.848-1.118-.146-.199-.254-.305-.468-.305-.004 0-.014.01-.014.02 0 .255.006.97.01 1.188.004.175.03.215.168.252.06.014.106.024.218.04.02.016.016.066 0 .076-.076 0-.386-.016-.578-.016-.184 0-.382.01-.534.016-.02 0-.02-.072-.01-.076z"/></g><g><path fill="#fefefe" d="M85.058 122.044c.308-.734.764-2.045.878-2.353.036-.103.06-.187.07-.255.004 0 .046.006.118.006.076 0 .11-.006.114-.006.012.046.032.128.064.225.09.255.678 2.113.832 2.49.13.3.152.317.492.357.01.016.004.066-.01.077a10.204 10.204 0 0 0-1.098 0c-.004-.01-.01-.065 0-.077.102-.014.184-.026.254-.05.082-.036.082-.073.06-.143-.054-.22-.248-.766-.344-1.048 0 0-.03-.024-.034-.024-.052-.006-.158-.006-.474-.006-.338 0-.364 0-.416.006-.014 0-.034.02-.04.036-.102.266-.31.827-.33.974-.016.092-.02.175.146.215.062.014.108.026.216.04.008.012.004.066-.006.077-.092 0-.356-.015-.578-.015-.25 0-.404.015-.48.015-.012-.004-.012-.065 0-.077.356-.046.406-.086.566-.464m.964-2.204c-.082.213-.336.975-.412 1.198 0 .02.006.032.022.036.044.006.172.006.444.006.112 0 .312 0 .336-.006.004 0 .016-.016.01-.036-.12-.388-.304-.98-.38-1.202-.006 0-.02 0-.02.004"/></g><g><path fill="#fefefe" d="M95.919 47.264l-5.864 5.894-39.688-39.921.58-.586 36.406 36.604.046.064 1.888-1.914-1.966-1.99-.046-.049-.788.776-.582-.585 4.15-4.172zm-5.864 4.718l4.7-4.722-4.636-4.643-.064-.064-2.216 2.228 2.61 2.62-2.468 2.48 2.028 2.036z"/></g><g><path fill="#fefefe" d="M12 48.403l.581.585-4.15 4.173-5.848-5.896 5.848-5.88L48.14 81.29l-.584.586-36.232-36.43-.062-.045-1.98 1.99 1.806 1.818.05.046zm-1.445 1.431l-2.438-2.447 2.562-2.574-2.202-2.196-.046-.062-4.684 4.705 4.622 4.658.062.064z"/></g><g><path fill="#fefefe" d="M54.425 12.316l30.21 30.376.582-.585-30.21-30.376z"/></g><g><path fill="#fefefe" d="M84.885 36.166l-23.97-24.1-.582.583L84.305 36.75z"/></g><g><path fill="#fefefe" d="M44.634 82.915l-30.21-30.376-.582.6 30.194 30.377z"/></g><g><path fill="#fefefe" d="M14.233 58.99L38.22 83.107l.582-.586-23.986-24.118z"/></g><g><path fill="#fefefe" d="M54.425 82.454l.582.586 30.21-30.36-.582-.602z"/></g><g><path fill="#fefefe" d="M60.208 82.01l.582.569 23.97-24.102-.582-.583z"/></g><g><path fill="#fefefe" d="M44.634 11.84l-.598-.57-30.194 30.36.582.586z"/></g><g><path fill="#fefefe" d="M38.669 12.14l-.582-.585-23.97 24.102.582.586z"/></g><g><path fill="#fefefe" d="M50.945 84.13l4.15 4.172-5.848 5.896-5.864-5.896 39.692-39.905.598.585-36.406 36.602 2.026 2.023 1.984-1.975-.914-.917zm.912 2.07l-2.564 2.593-2.608-2.624-2.138 2.133 4.638 4.663.062.063 4.686-4.726-2.03-2.039z"/></g><g><path fill="#fefefe" d="M47.535 10.387l-4.15-4.156L49.249.335l5.846 5.896-39.704 39.905-.566-.583 36.31-36.525-1.806-1.802-.05-.062-1.9 1.912.738.726zm-.738-1.912l2.482-2.482 2.438 2.452 2.168-2.166.048-.048-4.638-4.662-.046-.064-4.7 4.726z"/></g><g><path fill="#fefefe" d="M55.74 40.355c-.013.016-.03.048-.045.078-.456.87-1.95 3.935-2.042 6.338-.048.966.186 1.772.644 2.23.314.316.754.473 1.288.473h.142c1.854-.095 5.408-1.09 7.12-2.954 1.542-1.691 1.32-4-.566-5.912-.268-.267-.55-.553-.832-.806l-.142-.141c-1.558-1.518-3.034-2.94-3.16-4.537-.048-.347-.378-3.446.992-4.663.548-.488 1.162-.599 1.728-.332.958.459 1.508 1.818 1.476 2.814a4.418 4.418 0 0 1-.314 1.548l-.062.159.158-.046c.424-.113.77-.318 1.036-.634.33-.41.408-1.041.204-1.627a1.604 1.604 0 0 0-.266-.522 1.301 1.301 0 0 1-.298-1.026c.548.157 1.02.648 1.24 1.311.282.837.158 1.721-.33 2.323-.91 1.106-2.374.965-2.436.965l-.47-.064c-.032 0-.066-.033-.08-.063a.102.102 0 0 1 .014-.112l.316-.362s.534-.634.582-1.864c.016-.823-.502-1.866-1.068-2.15-.316-.143-.63-.064-.96.221-.944.837-.866 3.191-.754 4.046l.016.016c.094 1.327 1.476 2.654 2.94 4.076.314.3.644.632.974.965 2.152 2.166 2.388 4.947.58 6.906-1.87 2.023-5.58 3.082-7.608 3.177-.062.016-.124.016-.188.016-.724 0-1.322-.237-1.776-.696-.598-.601-.912-1.58-.864-2.765.048-1.043.33-2.308.848-3.746l.11-.286-.234.208c-1.166 1.027-2.392 1.659-3.476 2.212l-.062.032c-.346.173-.676.346-.974.52a.808.808 0 0 1-.048-.536.832.832 0 0 1 .392-.475l.362-.189c1.604-.806 3.584-1.834 5.03-4.078.08-.11.142-.221.22-.348l.062-.11c.788-1.549 1.306-4.125.63-6.401-.032-.143-.094-.284-.14-.442l-.08.032-.08.014c.238 1.456.066 3.004-.14 3.889-.628 2.624-2.624 3.981-5.424 5.246-2.42 1.09-2.766 3.067-2.796 3.873-.016.426.58 1.438 1.146 2.37l.032.063c.11.175.204.332.298.49l.128.238c.17.3.722 1.486.91 4.03.22 2.892.612 4.44 2.216 4.884.802.22 1.682.236 2.388.236 1.102.032 1.778.08 1.778.727-.016.475-.19 2.528-.958 3.224-.74.68-1.18.569-2.486.253h-.014c-.3-.064-.566.016-.802.254-.346.364-.566 1.01-.534 1.58l.014.062.048.017c.52.094 1.148.458 1.338.963.046.08.078.11.108.126.08.033.252.033.646-.016.156-.014.346-.03.55-.046.188-.016.378-.016.55-.032h.094c.88-.048 1.73-.078 1.95-.585.11-.254.312-.853.548-1.549.96-2.907 1.448-4.156 1.95-4.377h.046v-.046c.016-.033.048-.175-.046-.429-.156-.442-.502-.836-.848-.995-.22-.095-.662-.079-1.07-.065-.706.033-1.524.065-1.964-.456-.25-.286-.33-.712-.236-1.249.078-.474.158-.884.236-1.28.252-1.263.424-2.18.33-3.272.188 0 .36.08.504.207a.69.69 0 0 1 .234.567c-.014.855-.172 1.675-.362 2.64l-.016.064c-.078.379-.14.757-.218 1.201-.062.316-.032.537.078.664.206.235.85.22 1.398.205.504-.032.99-.049 1.37.11.816.348 1.352 1.327 1.334 2.007 0 .364-.172.648-.456.79l-.03.016c-.33.3-.944 2.072-1.558 3.92-.25.758-.438 1.343-.564 1.612-.41.915-1.51.964-2.578 1.012h-.032c-.188.016-.394.03-.582.03-.204.016-.392.048-.55.064-.188.016-.378.03-.55.03-.362 0-.66-.094-.91-.553l-.032-.062c-.064-.221-.566-.52-.944-.52h-.046c-.158.015-.332-.111-.38-.254v-.016c-.218-.853.066-1.975.676-2.592.41-.41.928-.583 1.464-.443h.03c1.258.3 1.384.316 1.84-.094.472-.412.676-1.928.708-2.546v-.062l-.064-.016c-.204-.046-.644-.063-.974-.063h-.032c-.74-.016-1.666-.032-2.562-.269-2.2-.601-2.53-2.86-2.736-5.532-.032-.316-.062-.631-.094-.93l-.016-.065-.062-.016c-1.32-.063-2.516-.775-3.552-2.086l-.048-.064-.046.032c-.802.443-3.474 1.945-4.308 3.145-.676.998-1.226 2.371-.032 3.399.362.315.96.663 1.542 1.011 1.178.712 1.918 1.17 2.026 1.691a.707.707 0 0 1-.094.507 4.551 4.551 0 0 0-.266.456c-.41.728-1.07 1.945-2.218 1.567-1.554-.507-2.31-.302-2.656-.048-.268.205-.44.553-.502 1.027v.079l.062.016c.692.189 1.054.806 1.148.979 0 .032.014.048.03.048l.018.016c.094.063.424.095 1.178.095h.298c.362 0 .692.016.928.032.786.046 1.006.03 1.274-.332.172-.207.486-.682.848-1.218l.03-.047c1.62-2.419 2.124-3.066 2.454-3.193.094-.016.156-.127.174-.237.016-.11-.018-.268-.252-.41-.112-.079-.378-.157-.646-.222-.706-.205-1.586-.442-1.964-1.138-.19-.364-.204-.806-.046-1.297.438-1.373 2.78-1.864 4.21-2.037.018.27.05.505.08.71-1.036.127-3.284.523-3.614 1.55-.096.3-.096.537.014.726.22.427.944.634 1.524.79.33.095.614.176.818.302.408.252.63.664.582 1.104a.99.99 0 0 1-.612.839l-.016.016c-.3.221-1.242 1.596-2.092 2.875l-.016.032c-.408.602-.722 1.076-.912 1.295-.502.666-1.084.65-1.838.602h-.078c-.252-.014-.55-.047-.896-.03-1.43.016-1.856-.017-2.124-.54-.078-.156-.376-.647-.926-.647a.357.357 0 0 1-.362-.364v-.03c0-.9.268-1.58.802-1.977.708-.504 1.806-.537 3.3-.046.488.157.85-.285 1.368-1.235l.016-.03c.08-.142.158-.285.236-.41l.032-.048-.032-.032c-.19-.284-1.068-.807-1.65-1.169-.582-.331-1.226-.728-1.65-1.092-1.228-1.041-1.258-2.622-.078-4.329.878-1.297 3.394-2.75 4.446-3.32l.08-.046-.048-.064c-.284-.44-.486-.853-.63-1.139l.268-.046c.158-.032.314-.062.458-.11.596 1.184 1.852 3.128 3.802 3.366l.112.016-.016-.11c-.19-.934-.394-1.487-.504-1.74a7.505 7.505 0 0 0-.362-.632c-.062-.094-.108-.189-.174-.285-.548-.899-1.006-1.69-1.176-2.307l-.048-.142-.096.11c-.564.696-1.208 1.09-2.026 1.265-1.054.205-2.312-.316-3.426-.758-.756-.302-1.402-.553-1.636-.475-.66.205-1.132.033-1.352-.094l-.048-.016-.032.032a2.89 2.89 0 0 0-1.004 1.152c-.316.666-.63.744-1.07.68-.188-.03-.36-.063-.754.253a.352.352 0 0 1-.282.079.32.32 0 0 1-.236-.173c-.44-.696-.456-2.15-.456-2.307v-.207l.172-.094c.756-.489 1.65-1.185 1.762-1.454.188-.632.502-1.06.942-1.311.424-.222.926-.254 1.508-.079.598.19 1.604.236 2.736.141l.174-.016-.11-.125c-.268-.253-.866-.523-.896-.539-.174-.032-.316-.046-.394-.062a3.615 3.615 0 0 1-2.278-1.106l-.032-.032-.346.143-.142-.08c-.14-.08-.614-.411-.88-1.819-.142-.726.014-1.659.142-2.465.094-.567.172-1.138.14-1.39l-.016-.11-.108.062a.743.743 0 0 1-.66.079c-.582-.205-.82-.726-.944-1.042l-.032-.048c-.094-.079-.36-.159-.52-.19h-.062a.307.307 0 0 1-.202-.142c-.05-.062-.066-.159-.05-.237l.016-.063c.19-.774.802-2.039 1.84-1.787.158.048.33.08.536.112h.014c.944.19 2.122.427 2.39 1.311.078.254.156.618.268 1.044.22.947.566 2.385.912 2.908.298.458.47.631.532.712l.016.016h.032c.724.173 2.2.488 3.396.663a5.804 5.804 0 0 0-.818.6 44.705 44.705 0 0 1-2.828-.586l-.05-.014c-.078-.032-.266-.096-.862-.981-.442-.631-.772-2.085-1.022-3.145-.112-.41-.19-.774-.268-1.011-.142-.473-1.084-.664-1.84-.805a7.956 7.956 0 0 1-.58-.126h-.08c-.346 0-.614.52-.754.852l-.032.079.078.016c.316.126.52.3.598.506l.016.03c.14.332.252.554.52.65h.062l.016-.016c.376-.302.706-.253 1.006.125.314.38.204 1.075.046 2.039-.124.758-.252 1.612-.14 2.214.11.631.266.979.376 1.168l.048.048.204-.08a.346.346 0 0 1 .424.126c.016 0 .172.238.518.491.426.332.928.507 1.478.57.158.015.944.126 1.604.504.378.175.644.539.786.744l.016.046.062-.014c.74-.127 1.478-.302 2.108-.507l.03-.016.016-.016c.676-1.106 2.108-1.77 3.616-2.495l.062-.016c.472-.238.974-.475 1.478-.728 2.028-1.042 4.228-3.192 4.558-5.247a3.281 3.281 0 0 0-.472-2.292l-.202-.316.046.364c.11.726 0 1.343-.298 1.818l-.016.03v.016c.016.316-.016.634-.078.95-.252 1.09-1.336 2.069-3.302 2.955-.628.284-1.194.537-1.714.775-3.128 1.373-4.306 1.896-4.746 3.792-.252.078-.504.14-.772.205.284-1.597.928-2.465 2.422-3.318l.046-.032-.014-.064c-.032-.157-.094-.332-.142-.473a3.169 3.169 0 0 1-.188-.68V37.7l-.048-.032c-.756-.364-1.148-1.152-1.242-1.39l.66-.253c.11.238.52.996 1.242 1.106.534.095 1.116-.585 1.588-1.122.268-.3.486-.569.722-.712.094-.062.346-.235.914.27.17.143.266.348.25.569 0 .189-.08.38-.204.505a6.044 6.044 0 0 0-.628-.632l-.048-.032-.046.048c-.128.11-.268.284-.426.459-.472.537-1.1 1.279-1.886 1.375h-.094l.03.095c.032.078.048.156.08.22.032.111.078.222.11.349l.032.078.078-.032c.582-.3 1.256-.583 2.026-.931.504-.223 1.086-.475 1.7-.76 1.728-.79 2.702-1.61 2.908-2.465.424-1.88-1.322-3.067-1.714-3.286a.704.704 0 0 1 .582-.318c.158 0 .33.064.454.175.362.316.694.694.928 1.09l.174.283-.032-.331c-.03-.505-.204-1.074-.488-1.595-.47-.855-1.116-1.438-1.744-1.564l-.062-.017-.048.143c-.174.457-.44 1.2-.612 1.705a.376.376 0 0 1-.346.254c-.458.048-1.386.143-2.36.38-1.586.458-1.916.758-1.996.869l-.016.03.016.048c.016.048.064.11.112.175l.062.094 3.646-.884a.8.8 0 0 1-.612.884l-1.242.3-.048.016-.016.048c0 .047-.016.095-.016.127v.109l.094-.014c.05-.016.096-.016.158-.049l.424-.126a.803.803 0 0 1 .598.062.81.81 0 0 1 .346.412c-.124.032-.44.127-1.164.348a1.305 1.305 0 0 1-.534.062.707.707 0 0 1-.438-.205.845.845 0 0 1-.19-.504v-.095l-1.084.268c-.442.158-1.37.6-1.714 1.122a.512.512 0 0 0-.032.458l.032.079.08-.047a.38.38 0 0 1 .486.157l.158.332c-.504.27-.724.332-.772.332l-.202.064-.144-.175c-.282-.3-.612-.98-.202-1.61.376-.554 1.084-.95 1.6-1.203l.082-.03-.048-.08c-.142-.252-.19-.475-.112-.71.174-.507.898-.901 2.5-1.36h.016a16.3 16.3 0 0 1 2.218-.38h.046l.032-.048c.186-.551.438-1.247.566-1.61.062-.144.094-.238.094-.238a.335.335 0 0 1 .314-.237h.094c.706 0 1.432.41 2.058 1.154l.174.078c.298.11.582.237.85.41 1.382.682 2.372 1.913 2.86 3.574.628 2.163.344 4.946-.692 6.921zm-.845-5.578l-.174.426c-.882 2.151-3.034 3.86-4.622 4.682-.534.284-1.052.522-1.572.775-2.124.996-3.426 1.676-3.6 3.05a.923.923 0 0 1-.706.777 4.121 4.121 0 0 1 .016-.996l.03-.112-.124.032c-2.108.57-4.718.712-5.944.348-.392-.127-.708-.11-.958.016-.266.159-.472.443-.596.885-.112.38-.772.996-1.872 1.709l-.032.032v.046c0 .221.048.79.158 1.25l.03.094.08-.046c.362-.159.63-.143.864-.097.016 0 .046 0 .08.016h.032l.03-.03c.032-.032.078-.11.156-.27.566-1.152 1.526-1.611 1.572-1.627l.016-.016a.342.342 0 0 1 .394.11c.062.063.344.254.896.079.488-.143 1.194.143 2.122.507.958.394 2.168.885 3.002.71 1.162-.237 1.822-1.042 2.468-2.386v.046l.158-.364c.518-1.234 1.46-2.167 2.844-2.783 2.674-1.217 4.448-2.435 5.014-4.76.094-.443.172-1.043.204-1.645z"/></g></g></g></g></svg>