<svg xmlns="http://www.w3.org/2000/svg" width="160" height="151" viewBox="0 0 160 151"><g><g><g><path fill="#fff" d="M2.057 72.701h.326c.3 0 .437.094.626.385l1.243 1.941h1.645L4.38 72.658c-.326-.513-.514-.616-.634-.684.111-.077.3-.188.626-.634l1.466-2.3H4.2L3 70.913c-.188.282-.326.385-.626.385h-.317V69.04H.6v5.987h1.457z"/></g><g><path fill="#fff" d="M8.997 75.028h1.457v-1.976l2.066-4.012h-1.654l-1.14 2.207-1.132-2.207H6.94l2.057 4.012z"/></g><g><path fill="#fff" d="M16.974 70.408V69.04H14.06v1.368h.728v3.242h-.728v1.377h2.914V73.65h-.728v-3.242z"/></g><g><path fill="#fff" d="M21.43 72.367l-1.26-3.327h-1.62l2.46 5.988h.866L24.3 69.04h-1.62z"/></g><g><path fill="#fff" d="M139.442 70.348c.506 0 .96.172 1.32.496l.942-.872a3.088 3.088 0 0 0-2.262-.992 3.052 3.052 0 0 0-3.052 3.054 3.052 3.052 0 0 0 3.052 3.053 3.09 3.09 0 0 0 2.262-.992l-.942-.873c-.36.326-.814.488-1.32.488-.891 0-1.595-.65-1.595-1.676 0-1.027.704-1.686 1.595-1.686"/></g><g><path fill="#fff" d="M146.554 70.408V69.04h-2.914v1.368h.728v3.242h-.728v1.377h2.914V73.65h-.728v-3.242z"/></g><g><path fill="#fff" d="M151.441 75.028v-4.62h1.534V69.04h-4.525v1.369h1.534v4.619z"/></g><g><path fill="#fff" d="M156.397 75.028h1.457v-1.976l2.066-4.012h-1.654l-1.14 2.207-1.132-2.207h-1.654l2.057 4.012z"/></g><g><path fill="#fff" d="M126.225 75.35l-46.062 45.97L34.1 75.35l46.063-45.97zm-22.08-19.581l8.171 18.713h10.58zm-1.82.164c-1.173 2.995-3.33 8.069-6.121 12.727 5.61 1.4 10.965 3.614 13.813 4.886zm5.482 18.539c-4.659-1.97-13.054-5.107-19.778-5.347a9.928 9.928 0 0 1 2.14 5.347zm-17.638 1.745a9.956 9.956 0 0 1-2.046 5.231c6.582-.26 14.714-3.26 19.398-5.23zm4.25-7.977c2.526-4.12 4.552-8.659 5.81-11.756L89.234 67.457c1.686.13 3.436.408 5.185.783zm4.568-12.97c-3.103 1.255-7.64 3.273-11.761 5.791.375 1.744.654 3.486.784 5.164zM86.811 59.28c4.743-2.832 9.914-5.007 12.893-6.162l-17.792-7.63c1.27 2.837 3.493 8.19 4.9 13.792zm-5.779-16.059l18.486 7.929-18.486-18.449zm0 22.142a9.993 9.993 0 0 1 5.309 2.092c-.233-6.63-3.326-14.922-5.309-19.608zm-19.666-14.77l17.917-7.381V32.702zm-1.173 2.36c2.888 1.104 8.342 3.355 13.32 6.326 1.413-5.633 3.65-11.01 4.92-13.835zm19.09-5.11c-1.979 4.68-5.063 12.965-5.297 19.61a9.97 9.97 0 0 1 5.297-2.09zm-9.127 26.638a9.962 9.962 0 0 1 2.146-5.364c-6.768.237-15.164 3.389-19.808 5.364zm2.041 6.96a9.954 9.954 0 0 1-2.04-5.225H52.805c4.673 1.97 12.783 4.965 19.391 5.225zM73.1 61.06c-4.124-2.518-8.663-4.537-11.765-5.792l10.982 10.96c.13-1.68.408-3.424.783-5.168zm-12.998-4.568c1.256 3.093 3.278 7.621 5.8 11.737 1.747-.373 3.495-.65 5.18-.78zm4.026 12.15c-2.937-4.9-5.168-10.253-6.29-13.163l-7.563 18.068c2.833-1.27 8.208-3.5 13.853-4.905zm-26.698 5.84h10.57l7.573-18.107zM55.3 94.052l-7.253-17.835H37.43zm2.418 1.321c1.082-2.833 3.368-8.388 6.401-13.45-5.664-1.408-11.05-3.648-13.873-4.916zm8.19-13.035c-2.522 4.113-4.547 8.643-5.806 11.738l10.994-10.96c-1.69-.13-3.44-.406-5.187-.778zm-4.58 12.978c3.099-1.255 7.635-3.275 11.757-5.797-.374-1.745-.651-3.491-.78-5.176zm12.18-4.02c-4.986 2.975-10.445 5.225-13.329 6.327l18.251 7.503c-1.271-2.821-3.511-8.19-4.922-13.83zm5.785 16.062l-18.128-7.453 18.128 18.092zm0-22.022a9.998 9.998 0 0 1-5.3-2.087c.266 6.659 3.33 14.853 5.3 19.49zm-7.442-9.992c0 4.571 3.731 8.29 8.317 8.29 4.325 0 7.886-3.31 8.277-7.52v-1.539c-.39-4.21-3.952-7.52-8.277-7.52-4.586 0-8.317 3.719-8.317 8.29zm16.16 9c-.13 1.68-.41 3.424-.784 5.168 4.122 2.517 8.656 4.536 11.755 5.791zm-1.677-1.095a10.003 10.003 0 0 1-5.302 2.087v17.394c1.97-4.65 5.033-12.857 5.302-19.48zm13.13 16.352l-18.432 7.753v10.643zm.455-2.07c-2.943-1.133-8.249-3.345-13.103-6.239-1.41 5.62-3.641 10.982-4.912 13.812zm.316-3.45c-1.257-3.095-3.282-7.626-5.808-11.742-1.749.374-3.499.652-5.184.781zm-4.028-12.155c2.842 4.747 5.024 9.923 6.176 12.888l7.632-17.78c-2.838 1.27-8.194 3.489-13.808 4.892zm26.699-5.709h-10.634l-7.978 18.565z"/></g><g><path fill="#fff" d="M136.39 81.276h23.442V79.54H136.39z"/></g><g><path fill="#fff" d="M.58 81.296h23.442V79.56H.58z"/></g><g><path fill="#fff" d="M21.466 45.05l-1.63-.735-1.859 4.103-1.968-.888 1.718-3.79-1.63-.736-1.718 3.79-1.917-.865 1.86-4.103-1.63-.736-2.642 5.829 8.774 3.961z"/></g><g><path fill="#fff" d="M23.68 41.115l-7.92-5.47 1.902-2.743c1.542-2.224 4.45-2.872 6.747-1.285 2.308 1.594 2.714 4.53 1.172 6.754zm-.391-2.577l.822-1.184c.954-1.377.824-3.069-.783-4.177-1.595-1.101-3.24-.635-4.195.741l-.822 1.185z"/></g><g><path fill="#fff" d="M35.947 26.401l-1.266-1.261-3.189 3.188-1.529-1.524 2.947-2.945-1.267-1.26-2.946 2.945-1.49-1.484 3.189-3.19-1.266-1.26-4.53 4.529 6.817 6.792z"/></g><g><path fill="#fff" d="M44.527 19.883l-1.043-1.45-3.52 2.522-4.573-6.355-1.541 1.105 5.616 7.805z"/></g><g><path fill="#fff" d="M50.954 16.324l-.226-6.235 4.506 4.317 1.03-.46-.405-10.356-1.921.861.392 6.537-4.672-4.62-1.017.456.354 6.554-4.634-4.636-1.921.86 7.497 7.177z"/></g><g><path fill="#fff" d="M70.331 10.237l-.356-1.748-4.422.897-.43-2.112 4.084-.83-.356-1.748-4.085.829-.42-2.059 4.422-.897L68.411.82 62.13 2.096l1.919 9.417z"/></g><g><path fill="#fff" d="M75.677 1.922l.276 6.036-1.155.053.082 1.783 4.206-.192-.082-1.783-1.154.053-.277-6.036 1.155-.053L78.646 0 74.44.192l.082 1.783z"/></g><g><path fill="#fff" d="M88.013 8.406l-.082-.009c-1.42-.163-2.326-.957-2.682-1.605l-1.359.99c.634 1.11 1.925 2.169 3.838 2.388l.082.009c2.12.228 3.847-.707 4.056-2.52.226-1.978-1.139-2.867-3.053-3.32l-.756-.17c-.849-.208-1.565-.483-1.491-1.125.096-.831 1.147-.945 1.776-.874l.11.012c.696.08 1.706.569 2.351 1.223l1.36-.99C91.286 1.372 90.007.564 88.655.41l-.11-.013c-1.984-.2-3.668.714-3.873 2.5-.192 1.679 1.132 2.562 2.939 2.99l.742.168c.97.235 1.723.555 1.627 1.387-.084.724-.858 1.077-1.967.964"/></g><g><path fill="#fff" d="M99.124 12.527l.08.024c2.045.599 3.91-.018 4.436-1.766.573-1.907-.614-3.02-2.417-3.805l-.713-.299c-.799-.354-1.454-.751-1.269-1.37.241-.8 1.297-.728 1.902-.547l.106.031c.672.202 1.58.861 2.098 1.618l1.514-.736c-.68-1.178-1.794-2.2-3.098-2.59l-.105-.032c-1.918-.546-3.736.057-4.254 1.778-.486 1.616.661 2.72 2.363 3.46l.7.295c.913.403 1.596.851 1.355 1.652-.21.698-1.034.909-2.105.603l-.079-.024c-1.37-.411-2.12-1.353-2.354-2.053l-1.514.736c.428 1.203 1.51 2.473 3.354 3.025"/></g><g><path fill="#fff" d="M117.106 16.28l3.105 2.06-2.186 3.28 1.581 1.05 5.331-8.003-1.58-1.048-2.157 3.235-3.103-2.06 2.155-3.235-1.581-1.049-5.331 8.002 1.58 1.05z"/></g><g><path fill="#fff" d="M122.97 25.31l9.571-4.09.795.779-3.954 9.589-1.502-1.472.741-1.734-2.424-2.374-1.725.772zm4.96-.12l1.482 1.457 1.104-2.603z"/></g><g><path fill="#fff" d="M134.005 37.832c1.16 1.653 3.357 2.415 5.633.824l4.575-3.197-1.088-1.552-4.542 3.172c-1.476 1.032-2.537.55-3.113-.271-.576-.82-.667-1.98.81-3.012l4.54-3.173-1.088-1.553-4.576 3.198c-2.275 1.59-2.318 3.9-1.15 5.564"/></g><g><path fill="#fff" d="M143.704 46.22l.236.722c.295.953.404 1.763-.361 2.108-.665.299-1.366-.185-1.838-1.193l-.033-.074c-.59-1.303-.37-2.486.007-3.123l-1.55-.658c-.63 1.113-.88 2.763-.088 4.516l.034.074c.89 1.934 2.581 2.936 4.25 2.184 1.818-.819 1.883-2.445 1.292-4.319l-.242-.734c-.256-.834-.386-1.59.203-1.855.766-.345 1.403.498 1.663 1.074l.046.1c.288.638.386 1.754.153 2.644l1.551.657c.445-1.286.486-2.796-.074-4.036l-.045-.1c-.846-1.803-2.494-2.778-4.138-2.038-1.542.695-1.624 2.284-1.066 4.051"/></g><g><path fill="#fff" d="M16.6 108.763l1.624-.765-1.787-3.78 1.912-.9 1.935 4.09 1.625-.765-2.75-5.813-8.749 4.122 2.75 5.813 1.624-.766-1.935-4.092 1.963-.924z"/></g><g><path fill="#fff" d="M26 113.071c1.58 2.214 1.198 5.177-1.088 6.8-2.297 1.631-5.216 1.012-6.795-1.202l-1.947-2.73 7.883-5.599L26 113.071m-2.194 5.248c1.588-1.127 1.708-2.836.73-4.206l-.84-1.18-4.956 3.517.842 1.18c.977 1.369 2.625 1.824 4.224.689"/></g><g><path fill="#fff" d="M31.88 122.903l3.232 3.17 1.26-1.278-4.592-4.505-6.78 6.884 4.592 4.505 1.259-1.278-3.232-3.171 1.52-1.544 2.986 2.929 1.26-1.279-2.987-2.929z"/></g><g><path fill="#fff" d="M39.761 127.53l-5.591 7.879 5.109 3.61 1.039-1.462-3.553-2.511 4.553-6.416z"/></g><g><path fill="#fff" d="M53.44 142.326l.336-6.588-1.023-.454-4.682 4.656.375-6.57-1.933-.86-.363 10.413 1.023.455 4.528-4.347-.22 6.261 1.035.46 7.5-7.24-1.932-.86z"/></g><g><path fill="#fff" d="M62.04 148.72l6.31 1.285.36-1.757-4.442-.904.433-2.122 4.103.835.359-1.758-4.103-.834.422-2.068 4.442.903.359-1.757-6.311-1.283z"/></g><g><path fill="#fff" d="M74.563 142.772l1.16.056-.296 6.064-1.16-.057-.087 1.792 4.226.205.086-1.792-1.16-.056.297-6.063 1.16.056.087-1.791-4.226-.206z"/></g><g><path fill="#fff" d="M88.136 144.503h-.779c-.877-.017-1.64-.13-1.71-.774-.09-.837.916-1.18 1.549-1.248l.11-.013c.7-.075 1.799.183 2.576.682l1.114-1.271c-1.09-.827-2.522-1.34-3.883-1.194l-.11.012c-1.99.241-3.439 1.506-3.246 3.304.182 1.688 1.677 2.263 3.542 2.285h.765c1.003.018 1.812.167 1.901 1.004.08.727-.603 1.244-1.714 1.377l-.083.01c-1.43.152-2.492-.427-2.984-.985l-1.115 1.271c.867.948 2.367 1.703 4.292 1.497l.081-.01c2.13-.242 3.617-1.539 3.42-3.363-.213-1.99-1.749-2.56-3.726-2.584"/></g><g><path fill="#fff" d="M100.043 142.07l-.766.135c-.867.136-1.638.158-1.82-.465-.233-.809.696-1.322 1.307-1.498l.106-.031c.678-.196 1.804-.134 2.656.223l.875-1.446c-1.217-.624-2.716-.88-4.03-.5l-.107.03c-1.918.584-3.123 2.082-2.619 3.818.473 1.63 2.045 1.937 3.885 1.634l.754-.132c.99-.157 1.813-.15 2.047.658.204.702-.376 1.33-1.448 1.654l-.08.023c-1.38.399-2.529.013-3.11-.45l-.875 1.445c1.018.782 2.627 1.265 4.486.727l.08-.023c2.053-.608 3.291-2.144 2.78-3.906-.558-1.922-2.17-2.217-4.12-1.897"/></g><g><path fill="#fff" d="M117.264 129.71l2.117 3.283-3.15 2.024-2.118-3.283-1.603 1.03 5.238 8.12 1.604-1.03-2.148-3.33 3.15-2.023 2.148 3.33 1.604-1.032-5.238-8.119z"/></g><g><path fill="#fff" d="M125.793 122.74l9.502 4.321-1.536 1.451-1.718-.809-2.48 2.342.714 1.757-1.536 1.45-3.759-9.744zm1.953 2.906l1.048 2.637 1.51-1.433z"/></g><g><path fill="#fff" d="M140.156 114.279l-4.528-3.309-1.127 1.537 4.495 3.283c1.462 1.068 1.345 2.23.75 3.044-.597.812-1.673 1.274-3.133.207l-4.496-3.284-1.127 1.536 4.53 3.309c2.253 1.645 4.467.939 5.675-.71 1.2-1.636 1.215-3.967-1.039-5.613"/></g><g><path fill="#fff" d="M147.327 103.223c-1.806-.868-3.102.132-4.166 1.796l-.41.66c-.478.735-.976 1.322-1.561 1.041-.76-.366-.522-1.4-.246-1.971l.047-.1c.307-.634 1.105-1.43 1.94-1.824l-.494-1.615c-1.28.488-2.47 1.43-3.065 2.661l-.047.1c-.845 1.814-.532 3.71 1.1 4.495 1.531.735 2.809-.228 3.812-1.797l.404-.648c.545-.841 1.098-1.448 1.858-1.083.66.317.74 1.167.267 2.18l-.035.075c-.624 1.293-1.68 1.888-2.413 2.01l.494 1.615c1.264-.234 2.698-1.107 3.538-2.847l.035-.075c.917-1.932.598-3.877-1.058-4.673"/></g></g></g></svg>