<svg xmlns="http://www.w3.org/2000/svg" width="200" height="74" viewBox="0 0 200 74"><defs><clipPath id="iu7da"><path d="M195.43 40.78h4.56v4.523h-4.56z"/></clipPath><clipPath id="iu7db"><path d="M100.19 60.13h20.378v13.433H100.19z"/></clipPath><clipPath id="iu7dc"><path d="M0 73.562h199.993V-.01H0z"/></clipPath></defs><g><g><g><path fill="#fefefe" d="M101.335 2.203l13.101 12.994.602-.596L101.335 1.01l-.605.6.603.595z"/></g><g><g><path fill="#fefefe" d="M98.63 28.83L84.96 15.202l.603-.595 13.069 13.026.767-.76-4.828-4.789-8.575-8.504L99.7-.01l.601.596L87.2 13.581l.734.728 7.156-7.097.603.595-6.121 6.072-1.036 1.027 6.628 6.573h.66v-.793h-.986v-.796h-.017v-9.176l.252-.112a12.175 12.175 0 0 1 3.865-.984L97.106 7.8l-1.304-1.294-.013-.013 4.235-4.2 1.925 1.9 2.318 2.3-.04.04-2.34 2.316h.005l-.773.768c1.329.115 2.639.443 3.865.984l.252.112v9.128h.014v.844h-1.088v.793h.676l6.627-6.573-7.145-7.086.603-.596 7.445 7.383.3.3 1.337 1.324L100.3 29.822l-.6-.597 13.1-12.994-.735-.728-1.07 1.06-5.746 5.701v.06h-.06zm4.496-13.72h1.249v-3.43h-1.249zm-3.122-5.639a.023.023 0 0 0 .01.007.032.032 0 0 0 .015.003c.005 0 .01 0 .014-.003a.038.038 0 0 0 .01-.007l2.972-2.941-1.988-1.969L100 3.536l-2.996 2.966zm.025.943a11.557 11.557 0 0 0-3.103.421h6.205a11.557 11.557 0 0 0-3.102-.421zm-2.247 4.696h4.503v-3.43h-4.503zm-2.11 0h1.26v-3.43h-1.26zm0 4.732h8.713v-3.888H95.67zm1.003 1.63h6.626v-.786h-6.626zm3.33 4.815l3.992-3.964h-7.982l2.954 2.934z"/></g><g><path fill="#fefefe" d="M100.858 16.663a1.474 1.474 0 0 1 .655 1.221c0 .304-.093.59-.255.825a1.484 1.484 0 0 1-1.231.65 1.48 1.48 0 0 1-1.487-1.475 1.469 1.469 0 0 1 .908-1.358 1.494 1.494 0 0 1 1.41.136m-.245 1.468a.623.623 0 0 0-.06-.597.632.632 0 0 0-.526-.28.641.641 0 0 0-.587.387.622.622 0 0 0 .06.597.636.636 0 0 0 .882.17.636.636 0 0 0 .23-.277"/></g><g><g/><g clip-path="url(#iu7da)"><path fill="#fefefe" d="M197.71 40.78l-2.28 2.262 2.28 2.26 2.281-2.26z"/></g></g><g><path fill="#fefefe" d="M0 43.042l2.28 2.262 2.28-2.262-2.28-2.262z"/></g><g><path fill="#fefefe" d="M87.324 60.783l.24-.255.073-.146.165-.2c.245-.242.526-.558.845-.947.317-.388.645-.801.981-1.238a100.22 100.22 0 0 0 1.891-2.53c.263-.365.48-.666.652-.902.171-.237.269-.36.294-.374 0-.01.015-.06.046-.145a1.69 1.69 0 0 0 .073-.273.797.797 0 0 0 .01-.263c-.013-.08-.056-.113-.13-.101-.11-.024-.198 0-.266.073a5.62 5.62 0 0 1-.192.2l-.258.291c-.22.268-.446.55-.678.847a53.22 53.22 0 0 1-.661.828c-.38.437-.753.91-1.12 1.42-.196.256-.447.559-.753.91l-.936 1.076a31.38 31.38 0 0 0-.908 1.082 7.561 7.561 0 0 0-.671.956.882.882 0 0 0-.1.119c-.031.042-.06.082-.083.118-.147.194-.292.376-.432.546-.14.17-.273.352-.394.547a26.962 26.962 0 0 0-1.249 1.638 1.97 1.97 0 0 0-.256.31c-.074.11-.16.212-.258.309a.283.283 0 0 1-.092.173.395.395 0 0 0-.11.154 7.737 7.737 0 0 0-.578.765 5.426 5.426 0 0 1-.596.747.813.813 0 0 1-.12.154 1.946 1.946 0 0 0-.138.155l-.1.146a.355.355 0 0 1-.157.127c.037-.46.104-.94.202-1.439.098-.497.177-.958.24-1.383.06-.558.145-1.14.256-1.748.11-.607.214-1.237.312-1.893a.687.687 0 0 0 .1-.337.979.979 0 0 1 .083-.355c.012-.024.012-.043 0-.055-.012-.011-.012-.03 0-.054a1.97 1.97 0 0 1 .056-.282c.024-.09.049-.179.074-.265l.036-.235a.933.933 0 0 1 .055-.202 9.7 9.7 0 0 0 .119-.727c.03-.243.07-.468.12-.674a5.454 5.454 0 0 1 .183-.638c.06-.12.117-.236.165-.345.05-.11.043-.237-.018-.383a1.284 1.284 0 0 0-.33-.291 3.333 3.333 0 0 0-.404-.2 1.32 1.32 0 0 0-.79.31c-.171.836-.317 1.68-.44 2.53l-.368 2.531c-.049.316-.094.64-.137.973-.043.335-.095.66-.156.975-.11.728-.205 1.469-.285 2.22-.08.753-.15 1.5-.211 2.24 0 .267.089.486.267.656.177.17.425.243.743.218.11.025.208.022.293-.009a.781.781 0 0 0 .24-.136c.073-.061.14-.127.201-.2l.165-.2c.233-.292.474-.608.726-.948.25-.34.486-.667.706-.983a.11.11 0 0 1 .01-.054.155.155 0 0 0 .008-.056c.221-.278.423-.527.606-.746.184-.218.38-.466.588-.746a.552.552 0 0 1 .248-.219c.092-.036.162-.121.21-.254.062-.073.12-.148.175-.227.055-.08.113-.161.175-.247v-.11a.374.374 0 0 0 .128-.181.355.355 0 0 1 .147-.182c.184-.292.386-.573.606-.846.22-.274.434-.544.643-.81.035-.062.07-.113.1-.156.03-.042.07-.093.12-.154"/></g><g><path fill="#fefefe" d="M90.044 58.963c-.062-.073-.141-.091-.239-.055a.975.975 0 0 0-.293.183 1.841 1.841 0 0 0-.257.273c-.074.097-.105.164-.093.2a2.75 2.75 0 0 1-.054.182.906.906 0 0 0-.046.219.379.379 0 0 0 .028.19c.024.056.072.095.146.119.049.025.082.03.101.019a.115.115 0 0 1 .064-.02.39.39 0 0 1 .175-.118c.079-.03.132-.075.156-.136.024 0 .036-.003.036-.009 0-.006.012-.003.037.01 0-.037.022-.074.065-.11.043-.037.057-.073.046-.109.048.024.07.012.064-.036-.007-.049.01-.062.046-.037 0-.025.006-.04.018-.045.012-.006.012-.022 0-.046.097-.048.162-.143.193-.283a.384.384 0 0 0-.083-.354.093.093 0 0 1-.046-.018.108.108 0 0 0-.064-.019"/></g><g><path fill="#fefefe" d="M101.264 59.106l.055-.183a13.37 13.37 0 0 1 1.479-.254c.519-.06 1-.12 1.44-.182l.018-.036a.233.233 0 0 1 .129-.037.338.338 0 0 0 .165-.054c.012-.013.019-.043.019-.092 0-.047.012-.085.037-.109-.013 0-.02.012-.02.037 0 .012-.005.018-.017.018a.617.617 0 0 0-.037-.064c-.013-.018-.006-.039.018-.064a1.117 1.117 0 0 0-.449-.082c-.141.006-.28.015-.414.028-.208.025-.351.04-.432.045-.08.006-.143.006-.192 0a.937.937 0 0 0-.183 0c-.073.006-.209.021-.405.046a6.922 6.922 0 0 1-.422.063 3.624 3.624 0 0 0-.44.082h-.018c.122-.266.247-.528.376-.783.128-.254.253-.516.376-.783.16-.278.3-.57.423-.874.121-.302.25-.6.385-.892a.642.642 0 0 0 .046-.163.47.47 0 0 1 .046-.146 1.14 1.14 0 0 0 .119-.173c.03-.054.034-.106.01-.155-.025-.097-.099-.173-.221-.227a.884.884 0 0 0-.367-.082c-.098 0-.214.024-.349.073-.135.048-.215.09-.238.127a.34.34 0 0 0-.083.164c-.019.073-.04.14-.065.2a.733.733 0 0 1-.091.21.47.47 0 0 0-.074.172.126.126 0 0 0-.037.092.192.192 0 0 1-.036.109 1.057 1.057 0 0 1-.129.273c-.06.158-.125.319-.193.483a4.731 4.731 0 0 1-.229.481c-.17.377-.333.747-.486 1.111-.154.365-.298.736-.431 1.11-.062.025-.12.043-.175.056l-.174.036c-.037 0-.123.012-.257.036-.135.026-.282.055-.44.092-.16.036-.316.069-.47.1-.153.03-.271.058-.357.081l-.22.091-.083.164c-.03.061-.058.122-.083.182a1.101 1.101 0 0 0-.037.255c0 .074.031.128.093.164.012.025.04.034.082.027a2.37 2.37 0 0 0 .157-.027.33.33 0 0 0 .137-.072c.043-.037.083-.067.12-.092a24.306 24.306 0 0 0 .513-.164c.208-.097.382-.167.523-.209.14-.042.29-.076.45-.1-.062.17-.12.343-.174.52-.056.175-.114.354-.175.536-.135.461-.28.916-.44 1.365-.16.45-.3.91-.423 1.385l-.014.068c-.05.04-.096.08-.16.113-.092.05-.186.104-.285.164a.462.462 0 0 0-.2.036 1.13 1.13 0 0 0-.258.155 7.013 7.013 0 0 0-.257.21 3.336 3.336 0 0 0-.294.172.755.755 0 0 1-.064.028c-.031.012-.114.05-.248.11a7.95 7.95 0 0 1-.312.146c-.086.035-.184.079-.294.126a2.264 2.264 0 0 1 .019-.474c.024-.218.058-.448.1-.69.043-.243.086-.474.129-.692.043-.22.07-.377.082-.474.037-.134.077-.273.12-.418.043-.147.057-.286.045-.419-.011-.11-.088-.21-.228-.3a.74.74 0 0 0-.395-.137 1.22 1.22 0 0 0-.515.164c-.171.096-.323.188-.459.273-.392.23-.734.486-1.027.764-.294.28-.6.558-.919.838-.072.048-.14.105-.2.172a.36.36 0 0 1-.222.119c.074-.206.15-.394.23-.565.08-.17.156-.34.229-.509a.53.53 0 0 0 .037-.201c0-.072.013-.145.038-.218.06-.097.121-.2.183-.31.06-.11.06-.236 0-.382-.025-.121-.12-.206-.285-.255a.492.492 0 0 0-.551.173.756.756 0 0 1-.083.1 4.61 4.61 0 0 0-.036.21c-.012.079-.031.16-.055.246a1.083 1.083 0 0 1-.11.2c-.05.072-.086.14-.11.2-.085.213-.18.412-.27.62a.969.969 0 0 0-.3.109l-.293.181c-.061.037-.15.08-.266.128a2.77 2.77 0 0 1-.303.109c-.306.11-.612.237-.918.382a63.67 63.67 0 0 1-.835.392c-.25.115-.463.207-.634.273-.171.067-.275.082-.312.045-.036-.036-.036-.115 0-.236.037-.122.098-.264.184-.428.085-.163.177-.337.275-.519.098-.182.19-.358.276-.528.024-.012.036-.03.036-.055 0-.024.013-.042.036-.054.013-.012.021-.015.028-.01.006.007.015.004.028-.008a.851.851 0 0 0 .055-.137.428.428 0 0 1 .055-.119.403.403 0 0 0 .073-.273.326.326 0 0 0 .028-.164l-.028-.2a.245.245 0 0 0-.082-.145.783.783 0 0 1-.12-.128c-.037.025-.082.021-.137-.008-.055-.03-.107-.034-.156-.01a.744.744 0 0 0-.276.11c-.171.242-.33.506-.476.79-.148.287-.289.57-.423.847a8.528 8.528 0 0 1-.275.62 1.381 1.381 0 0 1-.101.274 2.8 2.8 0 0 0-.12.273c-.062.182-.11.345-.147.491a.898.898 0 0 0 0 .437.688.688 0 0 0 .358.264c.14.042.31.063.506.063a.19.19 0 0 1 .072.01c.013.006.038-.01.074-.046.085.036.245-.015.477-.155.233-.138.487-.3.763-.482.275-.182.538-.358.789-.528.25-.17.443-.28.578-.327.147-.074.296-.152.45-.238.153-.084.284-.176.395-.273.134-.06.256-.13.367-.209.04-.028.073-.059.112-.089-.033.07-.06.147-.094.216a6.172 6.172 0 0 0-.46 1.375c-.036.085-.07.176-.1.273a.436.436 0 0 0-.027.219c.024.096.1.181.228.254.13.073.242.098.34.073.123-.024.313-.182.57-.473.257-.292.593-.656 1.009-1.093.135-.132.275-.255.423-.364a5.94 5.94 0 0 0 .404-.328c.208-.206.416-.393.624-.564.208-.17.421-.34.641-.51.074-.06.148-.12.221-.182a.653.653 0 0 1 .257-.127 4.392 4.392 0 0 1-.092.4 2.329 2.329 0 0 0-.073.455c-.012.073-.04.207-.083.401a35.36 35.36 0 0 0-.128.61l-.12.6a2.48 2.48 0 0 0-.054.374c0 .133.051.282.156.446.103.164.223.234.357.21.086 0 .181-.007.285-.019a4.45 4.45 0 0 0 .34-.054 1.86 1.86 0 0 0 .469-.246c.164-.115.313-.209.448-.282.148-.098.242-.158.285-.182a.474.474 0 0 0 .093-.065.941.941 0 0 1 .082-.072l.257-.209a.638.638 0 0 0 .202-.128c.049-.048.11-.115.183-.2.027-.014.038-.034.064-.05-.05.222-.103.436-.147.67-.08.424-.131.86-.156 1.31 0 .061.006.121.018.181.013.062.068.116.165.164h.02a.516.516 0 0 1 .173-.045.345.345 0 0 0 .156-.045c.062-.012.086-.027.074-.046-.012-.018.012-.04.074-.063a.946.946 0 0 0 .018-.183c0-.06.012-.121.036-.181l.11-.183a.56.56 0 0 0 .019-.164c0-.072.006-.139.019-.2l.036-.182c.012-.06.03-.12.055-.182 0-.036.015-.073.046-.11a.464.464 0 0 0 .064-.09c.05-.097.082-.206.101-.327a.831.831 0 0 1 .12-.329c.024-.11.06-.212.11-.309.049-.097.086-.194.11-.292.184-.642.386-1.287.605-1.929.221-.643.435-1.287.643-1.93"/></g><g><g/><g clip-path="url(#iu7db)"><path fill="#fefefe" d="M120.402 61.841c.11 0 .166.018.166.054 0 .037-.028.09-.083.155a1.945 1.945 0 0 1-.202.21c-.08.073-.143.146-.193.218.013 0-.003.015-.046.045a1.383 1.383 0 0 1-.146.092c-.056.03-.125.076-.211.136-.135.097-.3.203-.496.319l-.588.346c-.196.116-.379.221-.55.318-.172.098-.3.165-.386.201l-1.321.619a1.133 1.133 0 0 1-.322.136c-.116.03-.23.064-.339.1-.147.036-.312.073-.496.11a2.425 2.425 0 0 1-.55.046 1.507 1.507 0 0 1-.524-.11.916.916 0 0 1-.413-.337.725.725 0 0 1-.147-.4c-.012-.158 0-.319.037-.482.036-.164.088-.328.156-.492.067-.165.137-.313.21-.446a.533.533 0 0 0 .148-.183.9.9 0 0 0 .074-.182c.162-.192.335-.37.505-.553-.012.004-.024.012-.035.016a.868.868 0 0 0-.34.21c-.012.024 0 .036.037.036a3.568 3.568 0 0 1-.35.282c-.17.128-.358.262-.559.4-.202.14-.398.274-.588.401-.189.128-.333.228-.43.3l-.332.22c-.11.072-.214.157-.311.254a.871.871 0 0 0-.193.09c-.055.037-.114.08-.175.13l-.147.108a5.144 5.144 0 0 1-.229.155.415.415 0 0 0-.156.191.566.566 0 0 0-.23.328 2.999 2.999 0 0 1-.156.418c-.33.74-.67 1.524-1.019 2.349-.348.826-.75 1.617-1.202 2.376-.453.759-.976 1.44-1.57 2.048a5.964 5.964 0 0 1-2.083 1.384 2.348 2.348 0 0 1-.45.1.884.884 0 0 1-.45-.063 1.215 1.215 0 0 1-.32-.338c-.08-.127-.102-.197-.065-.209-.024-.631.128-1.293.458-1.984.33-.692.76-1.375 1.286-2.05a19.813 19.813 0 0 1 1.725-1.928 47.041 47.041 0 0 1 1.782-1.667c.085-.06.195-.154.33-.281.134-.129.239-.216.311-.265.123-.06.205-.105.248-.136a.698.698 0 0 0 .083-.064c.013 0 .04-.054.082-.164.043-.11.053-.164.028-.164l.11-.191c.025-.043.046-.082.065-.118a.677.677 0 0 0 .045-.12c.013-.04.038-.11.075-.207.024-.062.045-.123.063-.183a.325.325 0 0 0-.009-.2c-.025 0-.048.036-.073.11-.037 0-.056.005-.056.017-.024.025-.048.05-.073.073l-.073.073a.269.269 0 0 0-.129.09c-.11.11-.224.204-.339.283a2.242 2.242 0 0 0-.321.264 1.036 1.036 0 0 1-.202.137 8.884 8.884 0 0 1-.313.164c-.11.054-.217.102-.321.145a1.253 1.253 0 0 1-.248.082.644.644 0 0 1-.21.018 3.71 3.71 0 0 1-.368-.018c-.128-.011-.25-.024-.367-.036-.117-.012-.187-.03-.211-.055h.037a.112.112 0 0 1-.055-.054c-.013-.025-.043-.037-.093-.037a.575.575 0 0 1-.091-.255 1.344 1.344 0 0 1 0-.31c.01-.102.029-.199.052-.29-.052.025-.099.046-.118.036a2.16 2.16 0 0 0-.533.328c-.158.133-.32.254-.486.364a2.152 2.152 0 0 1-.533.254c-.19.061-.413.061-.67 0a.16.16 0 0 1-.082-.027.583.583 0 0 0-.1-.046.5.5 0 0 1-.23-.172 1.578 1.578 0 0 1-.12-.228 2.025 2.025 0 0 1-.018-.783c-.025-.012-.04-.009-.047.01-.006.018-.015.027-.027.027a.529.529 0 0 0-.073.045c-.024.019-.055.04-.092.064-.061.072-.12.14-.175.2a.597.597 0 0 1-.21.145.246.246 0 0 1-.101.11.461.461 0 0 0-.1.073c-.014 0-.017.009-.01.027.005.018.002.027-.01.027a1.29 1.29 0 0 1-.11.046.219.219 0 0 0-.11.082 4.955 4.955 0 0 1-.9.491 1.698 1.698 0 0 1-.266.155.454.454 0 0 1-.265.045h-.157a.429.429 0 0 1-.156-.036 4.989 4.989 0 0 0-.293-.027.324.324 0 0 1-.24-.118c-.134-.085-.17-.243-.11-.474 0-.012.006-.018.02-.018.011 0 .017-.012.017-.036a.894.894 0 0 1 .12-.374c.067-.115.138-.221.21-.318.099-.17.208-.328.33-.474.123-.146.24-.297.35-.455.098-.084.25-.225.459-.419.208-.193.428-.39.66-.591.233-.2.447-.376.643-.528.196-.152.33-.234.404-.246a.935.935 0 0 0 .322-.228c.078-.09.204-.16.376-.209.012 0 .018-.003.018-.009 0-.006.006-.009.019-.009.023 0 .051.003.082.01a.088.088 0 0 0 .083-.028c.073.036.159.054.256.054.05.061.105.118.166.174a.248.248 0 0 1 .092.191c.036.036.043.085.018.145a.23.23 0 0 1-.11.127.146.146 0 0 1-.129.046.256.256 0 0 0-.147.027 1.197 1.197 0 0 0-.348.218l-.22.147-.037.036a.313.313 0 0 0-.12.027c-.043.018-.076.064-.1.137a.944.944 0 0 0-.294.136c-.099.067-.196.13-.294.191a3.526 3.526 0 0 1-.33.292c-.099.084-.202.176-.313.273-.11.098-.214.194-.311.291-.062.048-.12.107-.175.173a.54.54 0 0 1-.211.155c0 .048-.025.09-.074.127v.037a.426.426 0 0 0-.174.154c-.043.068-.09.13-.137.192a.66.66 0 0 1-.148.291.507.507 0 0 0-.128.273.696.696 0 0 0 .294-.163c.416-.243.814-.5 1.193-.774a71.8 71.8 0 0 0 1.175-.866c.11-.096.217-.175.321-.235.104-.062.205-.158.303-.293h.055v-.017a.225.225 0 0 1 .055-.092.228.228 0 0 0 .056-.109.207.207 0 0 0 .018-.091c0-.036.012-.067.037-.091a.42.42 0 0 1 .128-.018h.348c.05.025.117.054.202.09.086.037.13.122.13.255-.037.11-.09.214-.157.31-.067.098-.138.2-.21.31a.787.787 0 0 1-.13.291v.091c-.049.024-.086.079-.11.164l-.027.146a.683.683 0 0 1-.064.164l-.11.4c0 .157.03.25.091.273.062.024.137.019.229-.018.093-.036.193-.088.303-.155.11-.066.208-.118.294-.154.208-.074.422-.182.643-.328.22-.146.416-.267.587-.365.083-.031.132-.04.2-.06a2.01 2.01 0 0 1 .262-.386c.152-.187.326-.382.522-.582.196-.2.382-.389.56-.564l.376-.373a1.98 1.98 0 0 1 .257-.183c.062-.036.116-.072.165-.11.05-.035.086-.054.11-.054.135-.073.27-.155.405-.246.134-.09.27-.16.404-.209a.438.438 0 0 1 .147-.045c.049-.006.085-.009.11-.009.195.012.284.054.266.127-.019.073-.083.155-.193.246a6.81 6.81 0 0 1-.385.291c-.147.104-.25.192-.313.265-.085.06-.165.121-.238.181a.742.742 0 0 0-.184.237c-.061.06-.129.115-.202.164a.354.354 0 0 0-.147.218 2.109 2.109 0 0 0-.385.418.648.648 0 0 0-.284.274c-.068.122-.15.225-.248.31a7.874 7.874 0 0 0-.285.455c-.092.157-.169.334-.23.527a.236.236 0 0 1-.027.11.22.22 0 0 0-.027.09c.048.025.088.031.12.02l.082-.037c.097-.061.186-.118.265-.173.08-.055.175-.112.285-.173.06-.049.11-.085.147-.11a.87.87 0 0 1 .146-.072c.245-.17.496-.358.754-.564.256-.207.507-.413.752-.62a.89.89 0 0 0 .193-.164c.067-.072.131-.14.193-.2.06-.048.128-.093.201-.136.074-.043.11-.094.11-.155.025-.06.034-.097.028-.109-.006-.013.021-.048.083-.11a1.51 1.51 0 0 0 .12-.136c.042-.055.112-.082.21-.082.037 0 .07.01.1.027.032.019.071.022.12.01.012.025.037.033.074.027a.098.098 0 0 1 .091.027.605.605 0 0 1 .175.255.603.603 0 0 1-.01.273 1.737 1.737 0 0 0-.082.319 1.062 1.062 0 0 1-.1.318c-.025.182-.071.355-.138.519-.068.164-.12.331-.156.501.073-.121.202-.243.385-.364.184-.121.376-.237.579-.346.202-.109.394-.207.578-.292.183-.084.312-.157.385-.219h.055l.083-.072c.03-.024.058-.036.082-.036.062-.049.128-.094.202-.137a.688.688 0 0 1 .257-.082c0-.011-.006-.018-.018-.018.245-.133.49-.26.734-.382.221-.11.462-.193.713-.263.222-.202.447-.376.68-.502.135-.085.276-.158.423-.219.146-.06.282-.121.404-.181a.684.684 0 0 0 .119-.073.224.224 0 0 1 .138-.037c.44 0 .727.076.863.228.134.152.202.3.202.446-.012.048-.055.103-.129.164a.736.736 0 0 0-.165.181 3.615 3.615 0 0 0-.165.174.68.68 0 0 0-.11.154c-.49.425-.98.801-1.47 1.129a1.084 1.084 0 0 1-.486.2 2.102 2.102 0 0 1-.615.02 1.684 1.684 0 0 0-.22.281 1.679 1.679 0 0 0-.175.365c-.043.127-.06.254-.055.381a.432.432 0 0 0 .157.32c.244.024.458 0 .642-.074.184-.073.36-.133.533-.181.133-.037.274-.08.422-.128.146-.048.275-.097.385-.146a71.676 71.676 0 0 0 1.101-.528c.148-.073.3-.152.46-.237.158-.084.36-.194.605-.327a42.783 42.783 0 0 0 1.175-.601c.074-.06.14-.107.202-.136.06-.031.14-.058.239-.082.012 0 .027-.006.046-.02a.09.09 0 0 1 .045-.017m-11.108 4.024a.076.076 0 0 0 .028-.091.516.516 0 0 1-.239.127c-.098.025-.16.067-.184.127a123.059 123.059 0 0 0-1.747 1.693 21.783 21.783 0 0 0-1.047 1.111c-.196.243-.405.492-.625.747-.22.255-.432.525-.634.81a5.63 5.63 0 0 0-.524.901 3.52 3.52 0 0 0-.295 1.02c.037.024.05.076.037.155a.233.233 0 0 0 .074.209c.405-.06.793-.227 1.167-.5.374-.274.73-.613 1.067-1.02.337-.408.655-.85.956-1.33.3-.479.572-.958.818-1.438.245-.48.465-.932.661-1.356.196-.425.356-.777.478-1.056-.024-.048-.021-.085.01-.11m6.671-4.187a8.509 8.509 0 0 0-.949 1.002c.11 0 .218-.03.322-.092.105-.06.206-.12.305-.181.245-.195.497-.41.755-.647.259-.237.492-.475.7-.72.025 0 .037-.018.037-.053a3.472 3.472 0 0 0-1.17.691m-.844-.37c-.015-.002-.03-.003-.048.006.017.017.02.014.026.013l.022-.02"/></g></g><g/><g clip-path="url(#iu7dc)"><path fill="#fefefe" d="M121.42 59.245h53.921V58.3H121.42z"/></g><g clip-path="url(#iu7dc)"><path fill="#fefefe" d="M24.65 59.245h53.921V58.3H24.65z"/></g><g clip-path="url(#iu7dc)"><path fill="#fefefe" d="M121.42 27.785h53.921v-.945H121.42z"/></g><g clip-path="url(#iu7dc)"><path fill="#fefefe" d="M24.65 27.785h53.921v-.945H24.65z"/></g><g clip-path="url(#iu7dc)"><path fill="#fefefe" d="M7.81 36.174h1.062c.261 0 .45.062.564.187.114.124.172.332.172.626v9.03c0 .315-.064.53-.189.646-.125.117-.366.175-.722.175H7.81v.795h5.46v-.795h-.912c-.351 0-.587-.058-.706-.175-.12-.116-.18-.331-.18-.646v-9.08c0-.282.054-.485.163-.61.108-.124.282-.186.522-.186h4.364c.268 0 .458.06.57.178.111.12.167.325.167.618v9.08c0 .315-.063.53-.188.646-.126.117-.364.175-.716.175h-.91v.795h5.475v-.795h-.902c-.357 0-.598-.058-.723-.175-.126-.116-.188-.331-.188-.646v-9.03c0-.282.056-.488.17-.618.115-.13.292-.195.532-.195h1.111v-.804H7.81z"/></g><g clip-path="url(#iu7dc)"><path fill="#fefefe" d="M35.624 35.07c1.711 0 3.117.602 4.218 1.807 1.1 1.206 1.651 2.751 1.651 4.636 0 1.89-.548 3.432-1.643 4.626-1.095 1.194-2.504 1.793-4.226 1.793-1.723 0-3.136-.601-4.24-1.8-1.103-1.2-1.654-2.739-1.654-4.619s.552-3.423 1.659-4.631c1.106-1.208 2.518-1.812 4.235-1.812m2.758 10.688c.608-.94.912-2.354.912-4.245 0-1.923-.301-3.347-.904-4.27-.602-.924-1.523-1.385-2.761-1.385-1.238 0-2.16.465-2.766 1.397-.604.931-.907 2.35-.907 4.258 0 1.907.3 3.326.903 4.257.603.933 1.526 1.398 2.77 1.398 1.227 0 2.145-.47 2.753-1.41"/></g><g clip-path="url(#iu7dc)"><path fill="#fefefe" d="M59.818 36.37c-.114.129-.17.335-.17.617v9.851h1.813v4.18h-.652c-.09-1.267-.368-2.147-.835-2.641-.47-.496-1.263-.743-2.383-.743h-3.855c-1.115 0-1.906.247-2.374.743-.469.494-.75 1.374-.845 2.64h-.627v-4.179h1.74c.645-1.04 1.156-2.35 1.53-3.934.373-1.584.56-3.244.56-4.98 0-.751-.084-1.232-.248-1.439-.164-.207-.491-.31-.982-.31h-.602v-.805h9.573v.804H60.35c-.24 0-.417.065-.532.196zm-2.045-.196h-3.08c-.055 2.49-.247 4.59-.575 6.295-.329 1.708-.815 3.167-1.46 4.38h5.115z"/></g><g clip-path="url(#iu7dc)"><path fill="#fefefe" d="M72.43 36.872c1.106-1.208 2.518-1.812 4.235-1.812 1.711 0 3.117.603 4.217 1.808 1.1 1.206 1.651 2.75 1.651 4.635 0 1.89-.547 3.433-1.642 4.627-1.095 1.194-2.504 1.792-4.226 1.792-1.723 0-3.136-.6-4.24-1.8-1.104-1.2-1.655-2.739-1.655-4.619s.553-3.423 1.66-4.631m7.003.361c-.603-.923-1.524-1.385-2.763-1.385-1.24 0-2.162.466-2.767 1.397-.606.932-.91 2.352-.91 4.258 0 1.907.303 3.326.906 4.258.602.931 1.526 1.397 2.77 1.397 1.228 0 2.147-.47 2.756-1.41.607-.94.911-2.354.911-4.245 0-1.923-.3-3.347-.903-4.27"/></g><g clip-path="url(#iu7dc)"><path fill="#fefefe" d="M123.59 46.664c-.125.116-.367.174-.723.174h-.887v.796h5.46v-.796h-.77c-.44 0-.72-.056-.843-.17-.123-.112-.184-.33-.184-.65v-9.03c0-.349.08-.577.242-.685.162-.108.566-.161 1.212-.161 1.64 0 2.719.232 3.24.695.522.465.902 1.421 1.142 2.87h.735l-.217-4.337H121.98v.805h1.063c.261 0 .45.062.564.187.113.124.171.332.171.625v9.031c0 .315-.063.53-.188.646"/></g><g clip-path="url(#iu7dc)"><path fill="#fefefe" d="M143.16 46.664c.125-.116.188-.331.188-.646v-9.03c0-.294-.058-.502-.171-.626-.115-.125-.303-.187-.565-.187h-1.062v-.805h5.887c1.588 0 2.745.271 3.47.813.724.542 1.086 1.399 1.086 2.57 0 1.156-.423 2.023-1.27 2.6-.848.579-2.113.867-3.797.867a21.412 21.412 0 0 1-1.713-.05v3.848c0 .315.06.53.18.646.12.116.355.175.706.175h1.062v.795h-5.611v-.795h.887c.356 0 .598-.06.723-.175zm2.053-5.286c.116.022.243.035.38.041.136.005.346.008.632.008 1.448 0 2.44-.199 2.976-.596.534-.398.802-1.096.802-2.096 0-.944-.221-1.612-.665-2.004-.443-.392-1.224-.589-2.344-.589h-.895c-.04 0-.081.003-.126.008a.058.058 0 0 1-.025.01c-.268 0-.457.057-.568.173-.112.116-.167.329-.167.637z"/></g><g clip-path="url(#iu7dc)"><path fill="#fefefe" d="M167.903 46.722c.133-.066.2-.183.2-.35a.913.913 0 0 0-.038-.231 3.313 3.313 0 0 0-.12-.357l-.787-2.139h-4.607l-.526 1.318a5.233 5.233 0 0 0-.172.565c-.047.193-.07.333-.07.422 0 .293.1.511.305.656.203.143.52.215.948.215h.427v.813h-4.423v-.813h.142c.457 0 .808-.095 1.053-.286.246-.191.483-.57.711-1.14l4.021-10.225h.67l4.364 10.814c.14.342.279.567.418.676.14.107.387.16.744.16h.36v.814h-5.117v-.813h.768c.352 0 .594-.034.729-.099zm-1.054-3.961l-2.032-4.91-1.956 4.91z"/></g><g clip-path="url(#iu7dc)"><path fill="#fefefe" d="M182.609 35.37h9.573v.804h-1.112c-.24 0-.416.065-.53.195-.115.13-.172.336-.172.618v9.851h1.814v4.18h-.652c-.09-1.267-.368-2.147-.836-2.642-.468-.495-1.262-.743-2.384-.743h-3.853c-1.115 0-1.907.248-2.375.743-.468.495-.75 1.375-.844 2.641h-.628v-4.179h1.74c.646-1.04 1.157-2.352 1.53-3.935.373-1.583.56-3.243.56-4.98 0-.751-.083-1.23-.247-1.438-.164-.207-.491-.31-.982-.31h-.602zm2.805.804c-.055 2.49-.247 4.59-.575 6.295-.328 1.708-.814 3.167-1.458 4.38h5.11V36.173z"/></g><g clip-path="url(#iu7dc)"><path fill="#fefefe" d="M102.424 36.365c.108-.128.283-.19.522-.19h1.113v-.805h-9.791v.804h.577c.48 0 .802.097.97.29.167.194.25.59.25 1.187 0 .224-.039 1.205-.066 1.66-.106 1.797-.545 5.507-1.19 6.304-.373.454-.947.754-1.779.967l.105.293.392 1.076.02.055c.052-.015.104-.031.154-.048 2.617-.861 2.778-3.763 3.102-7.081.05-.518.134-1.979.14-2.073.06-1.025.104-1.61.135-1.75.071-.332.21-.562.414-.69.203-.127.544-.19 1.024-.19h1.88v9.843c0 .316-.063.53-.188.646-.125.117-.366.175-.722.175h-.904v.795h5.477v-.795h-.904c-.35 0-.587-.058-.71-.175-.122-.116-.184-.33-.184-.646v-9.03c0-.288.055-.495.163-.622"/></g></g></g></g></svg>