<svg xmlns="http://www.w3.org/2000/svg" width="158" height="196" viewBox="0 0 158 196"><defs><clipPath id="rp87a"><path d="M143.28 164.68h14.328v17.047H143.28z"/></clipPath><clipPath id="rp87b"><path d="M23.72.54h64.432v72.981H23.72z"/></clipPath></defs><g><g><g><path fill="#fefefe" d="M5.62 172.57c1.09 0 2.13-.07 2.418-.145.4-.096.733-.307 1.092-.733.259-.36.544-1.022.544-1.474 0-.167.07-.215.188-.215l.637.074c.119.022.218.045.192.189-.073.404-.073 1.637-.073 2.467 0 1.07.099 2.208.144 2.708.022.14-.07.166-.19.189l-.569.122c-.093.022-.14-.026-.185-.193-.1-.381-.336-.926-.477-1.208-.263-.452-.832-.762-1.303-.833-.64-.096-1.376-.144-2.419-.144v1.426c0 1.282.119 3.585.119 4.012 0 1.233.259 1.663.57 1.804.354.144.802.214 1.99.214.403 0 1.398-.025 1.897-.07.47-.048 1.184-.285 1.799-.785.62-.497 1.948-1.97 2.419-2.538.096-.096.166-.122.237-.074l.403.237c.096.048.118.119.096.19l-1.066 3.585c-.073.212-.24.356-.525.356-.118 0-.64-.023-2.153-.045-1.543 0-4.055-.026-8.157-.026-.88 0-1.542.026-2.016.026-.496.022-.806.045-1.018.045-.166 0-.214-.07-.214-.26v-.5c0-.14.07-.211.237-.211h.71c1.091 0 1.184-.17 1.184-1v-7.95c0-1.97-.045-4.893-.067-5.127-.096-.762-.336-.926-.973-.926H.166c-.096 0-.118-.073-.118-.24v-.567c0-.074.022-.17.166-.17.522 0 1.348.074 3.508.074l8.32-.026c.38 0 .832-.048.95-.048s.163.048.189.122c.096.33.88 3.582.973 3.82.048.118.048.17-.07.24l-.385.189c-.093.048-.211.022-.278-.096-.122-.19-2.256-2.327-2.803-2.66-.496-.308-1.162-.615-1.799-.638l-3.133-.096z"/></g><g><path fill="#fefefe" d="M21.109 170.762c0-.615-.074-3.986-.119-4.341-.073-.57-.384-.667-.784-.667H19.02c-.118 0-.189-.022-.189-.163v-.69c0-.095.07-.121.167-.121.307 0 1.35.074 3.725.074.614 0 2.985-.074 3.53-.074 3.225 0 5.785.285 8.038 2.16 1.564 1.307 2.656 3.278 2.656 6.03 0 2.73-.784 4.534-2.35 6.245-2.297 2.493-6.354 2.516-7.849 2.516-.377 0-3.174-.07-4.477-.07-2.064 0-3.01.07-3.344.07-.118 0-.166-.048-.166-.212v-.621c0-.093.07-.141.192-.141h1.232c.448 0 .71-.19.758-.57.07-.497.167-5.839.167-7.643zm3.555 2.31c0 .307.022 4.344.048 5.819 0 .474.093.856.404 1.305.282.43 1.089.57 1.896.57 1.378 0 3.204-.686 4.438-2.327.951-1.257 1.688-3.207 1.688-5.416 0-1.95-.807-3.944-1.922-5.178-1.26-1.401-3.348-2.161-4.726-2.161-.663 0-1.019.022-1.33.189-.355.167-.448.548-.474 1.023-.022.997-.022 4.107-.022 4.489z"/></g><g><path fill="#fefefe" d="M46.59 172.57c1.09 0 2.13-.07 2.418-.145.404-.096.733-.307 1.092-.733.259-.36.544-1.022.544-1.474 0-.167.07-.215.188-.215l.64.074c.116.022.215.045.19.189-.074.404-.074 1.637-.074 2.467 0 1.07.099 2.208.144 2.708.025.14-.07.166-.19.189l-.569.122c-.093.022-.14-.026-.185-.193-.1-.381-.336-.926-.477-1.208-.26-.452-.832-.762-1.303-.833-.64-.096-1.376-.144-2.419-.144v1.426c0 1.282.119 3.585.119 4.012 0 1.233.259 1.663.57 1.804.354.144.806.214 1.99.214.403 0 1.398-.025 1.897-.07.474-.048 1.184-.285 1.799-.785.62-.497 1.948-1.97 2.419-2.538.096-.096.17-.122.237-.074l.403.237c.099.048.118.119.099.19l-1.069 3.585c-.073.212-.24.356-.525.356-.118 0-.64-.023-2.153-.045-1.543 0-4.055-.026-8.157-.026-.88 0-1.542.026-2.016.026-.496.022-.806.045-1.018.045-.166 0-.214-.07-.214-.26v-.5c0-.14.074-.211.237-.211h.71c1.091 0 1.184-.17 1.184-1v-7.95c0-1.97-.045-4.893-.067-5.127-.096-.762-.333-.926-.973-.926h-.925c-.092 0-.118-.073-.118-.24v-.567c0-.074.026-.17.166-.17.522 0 1.348.074 3.508.074l8.323-.026c.377 0 .829-.048.947-.048s.163.048.189.122c.096.33.88 3.582.973 3.82.048.118.048.17-.07.24l-.382.189c-.096.048-.214.022-.281-.096-.122-.19-2.256-2.327-2.803-2.66-.496-.308-1.159-.615-1.799-.638l-3.133-.096z"/></g><g><path fill="#fefefe" d="M65.439 174.23c0 .403 0 5.53.07 6.479h1.35c1.117 0 2.183 0 3.463-.119 1.28-.115 2.893-2.964 3.248-3.842.07-.144.14-.215.285-.144l.47.189c.074.048.074.074.051.215-.07.166-1.017 4.082-1.161 4.723-.618-.045-7.443-.07-9.626-.07-2.349 0-3.2.07-3.51.07-.167 0-.189-.045-.189-.212v-.596c0-.118.022-.163.166-.163h.736c.874 0 1.018-.333 1.018-.593 0-.455.074-6.364.074-7.812v-1.33c0-1.519-.048-4.034-.074-4.415-.045-.619-.166-.856-.71-.856h-.877c-.144 0-.167-.118-.167-.237v-.567c0-.122.023-.17.167-.17.259 0 1.113.074 3.27.074 2.775 0 3.77-.074 3.984-.074.189 0 .211.074.211.24v.545c0 .119-.048.19-.233.19h-1.117c-.733 0-.829.236-.829.877 0 .31-.07 3.897-.07 5.556z"/></g><g><path fill="#fefefe" d="M80.249 170.762c0-.615-.074-3.986-.119-4.341-.073-.57-.384-.667-.784-.667H78.16c-.118 0-.189-.022-.189-.163v-.69c0-.095.07-.121.167-.121.307 0 1.35.074 3.725.074.614 0 2.985-.074 3.53-.074 3.225 0 5.785.285 8.038 2.16 1.564 1.307 2.652 3.278 2.652 6.03 0 2.73-.78 4.534-2.345 6.245-2.298 2.493-6.355 2.516-7.85 2.516-.377 0-3.174-.07-4.477-.07-2.064 0-3.01.07-3.344.07-.118 0-.166-.048-.166-.212v-.621c0-.093.07-.141.189-.141h1.235c.448 0 .71-.19.758-.57.07-.497.167-5.839.167-7.643zm3.558 2.31c0 .307.023 4.344.048 5.819 0 .474.093.856.404 1.305.281.43 1.088.57 1.895.57 1.377 0 3.202-.686 4.435-2.327.95-1.257 1.687-3.207 1.687-5.416 0-1.95-.807-3.944-1.921-5.178-1.258-1.401-3.346-2.161-4.723-2.161-.663 0-1.018.022-1.328.189-.356.167-.449.548-.474 1.023-.023.997-.023 4.107-.023 4.489z"/></g><g><path fill="#fefefe" d="M104.305 180.467c-1.683-1.023-3.485-3.586-3.485-7.053 0-1.445.378-3.701 2.205-5.909 2.086-2.54 4.765-3.015 6.899-3.015 1.965 0 3.789.308 5.78 1.875 1.804 1.425 3.25 3.822 3.25 7.097 0 1.734-.544 3.538-1.779 5.2-1.539 1.923-3.555 3.346-7.302 3.346-1.635 0-3.696-.378-5.568-1.541m10.926-6.813c0-5.2-3.41-8.049-5.403-8.049-.473 0-1.66-.118-3.106 1.282-1.398 1.33-2.108 3.823-2.108 5.768 0 6.078 3.487 8.238 5.45 8.238 4.383 0 5.167-5.294 5.167-7.239"/></g><g><path fill="#fefefe" d="M125.014 170.859c0-1.756 0-3.275-.026-3.916-.025-.785-.33-1.189-.662-1.189h-.95c-.119 0-.141-.07-.141-.163v-.644c0-.119.022-.167.14-.167.215 0 .951.074 3.537.074 1.324 0 3.41-.074 4.384-.074 1.85 0 3.225.666 4.195 1.567.854.785 1.35 1.711 1.35 2.589 0 3.015-2.253 4.367-4.336 4.556v.17c.733.234 1.11.69 1.565 1.256.307.379 1.61 2.493 1.798 2.779.144.211 1.424 2.015 1.898 2.563.285.308 1.184.5 1.731.5.167 0 .189.093.189.189v.57c0 .141-.022.212-.189.212-.189 0-.806-.07-2.63-.07-.691 0-1.565.047-2.253.07-.714-.545-2.182-3.3-2.586-4.105-.806-1.615-1.776-3.374-2.915-3.374h-.806v1.211c0 1.404.073 4.06.118 4.368.048.5.237.929.592.929h.976c.163 0 .186.07.186.189v.57c0 .167-.023.212-.378.212-.025 0-.614-.07-3.107-.07-2.512 0-3.056.07-3.318.07-.186 0-.186-.07-.186-.237v-.545c0-.119 0-.19.115-.19h.71c.522 0 .948-.169.948-.762.051-2.349.051-4.579.051-6.838zm3.312 2.563c.455.026.737.026.952.026 3.13 0 3.871-2.993 3.871-4.108 0-1.093-.381-2.138-.9-2.66-.86-.76-1.926-1.044-2.641-1.044-.4 0-.711.048-.9.214-.145.096-.212.356-.26.641z"/></g><g><g/><g clip-path="url(#rp87a)"><path fill="#fefefe" d="M149.04 173.274c.925 0 1.898-.07 2.346-.141.403-.048.854-.359 1.235-.856.259-.333.425-.83.521-1.259.023-.118.096-.189.19-.189l.546.048c.093 0 .141.07.141.167-.048.403-.048 2.37-.048 2.704 0 .856.07 1.996.119 2.47 0 .12-.048.167-.167.19l-.521.118c-.093.023-.164-.048-.186-.189-.051-.192-.31-.903-.454-1.14-.282-.401-.733-.83-1.159-.949-.761-.144-1.59-.167-2.563-.167v.904c0 .711.026 4.698.026 5.008 0 .638.236.76.57.76h1.394c.144 0 .215.048.215.14v.642c0 .144-.045.192-.189.192-.237 0-1.184-.074-3.651-.074-2.323 0-3.226.074-3.581.074-.093 0-.14-.048-.14-.215v-.64c0-.097.07-.12.166-.12h.832c.496 0 .688-.095.707-.473.025-.475.096-3.468.096-7.55v-1.663c0-1.044-.048-4.39-.048-4.63 0-.449-.33-.686-.973-.686h-.97c-.14 0-.214-.048-.214-.144v-.689c0-.093.074-.14.166-.14.26 0 1.162.07 4.055.07.33 0 6.566-.07 7.705-.07.522 0 1.044-.097 1.232-.097.119 0 .19.144.237.404l.925 3.87c.022.097 0 .167-.074.19l-.473.26c-.119.05-.167 0-.333-.238-.304-.4-.877-1.163-1.846-2.182-.43-.474-1.07-.926-1.636-1.067-.595-.167-3.107-.24-4.172-.24 0 .31-.026 5.033-.026 6.482z"/></g></g><g><path fill="#fefefe" d="M17.819 195.139c.236-.074.236-.26.252-.625.01-.301.01-1.115.01-1.814 0-.788-.01-1.733-.02-1.845-.015-.205-.054-.295-.207-.35-.106-.041-.279-.057-.448-.073-.026-.016-.016-.116 0-.122.259 0 .681.022.934.022h3.37c.323 0 .713-.022.851-.022.01.032.016.09 0 .112-.15.035-.275.048-.355.083-.183.055-.243.122-.253.43-.006.237-.026.952-.026 1.878 0 .708-.006 1.707.026 1.951.016.221.051.317.211.375.1.042.211.058.448.08.007.02.007.1-.019.122-.163 0-.518-.023-.883-.023-.371 0-.723.016-.915.023-.02-.007-.02-.112 0-.122.144-.013.361-.048.476-.096.122-.058.138-.18.148-.375.016-.253.006-1.666.006-2.016 0-.374.01-1.999-.016-2.124-.01-.032-.051-.054-.058-.054-.096-.02-2.588-.01-2.72 0-.016 0-.032.041-.032.048-.016.121-.016 1.772-.016 2.146a123 123 0 0 0 .016 1.888c.007.275.026.445.218.503.115.032.195.048.432.08 0 .035.006.109-.016.122-.384-.007-.566-.023-.877-.023-.31 0-.761.016-.95.023a.26.26 0 0 1 0-.122c.17-.022.317-.048.413-.08"/></g><g><path fill="#fefefe" d="M24.885 190.31c.179 0 .413.026.86.026h1.569c.3 0 .697-.01.819-.026.01 0 .022.016.022.026-.07.266-.121.762-.144 1.031-.016.016-.105.023-.128.01a2.829 2.829 0 0 0-.067-.48c-.058-.196-.112-.327-.464-.343-.211-.007-1.11-.016-1.242 0-.057.01-.083.073-.083.115a57.642 57.642 0 0 0-.013 1.91c0 .032.007.067.023.067a19.79 19.79 0 0 0 1.302-.01c.26-.016.304-.147.346-.269.035-.09.06-.195.08-.301.025-.016.131-.01.14.01a5.229 5.229 0 0 0-.057.72c0 .353.02.53.02.651-.026.035-.122.042-.142.01-.016-.122-.022-.186-.048-.276-.025-.1-.057-.27-.332-.285a16.1 16.1 0 0 0-1.303-.007c-.016 0-.029.055-.029.065-.01.137 0 1.349.013 1.83.01.21.119.275.199.29.163.033.454.049 1.03.049.496 0 .592-.106.698-.208.121-.11.31-.417.438-.734.02-.007.09.032.106.057-.042.26-.244.862-.333 1.016-.048.08-.074.09-.487.09-.406 0-.659-.026-1.926-.026-.54 0-.74.026-1.046.026-.02-.016-.023-.096 0-.122.204-.016.368-.025.512-.064.195-.051.262-.14.281-.474.01-.122.02-1.08.02-2.038 0-.808-.01-1.59-.02-1.711-.016-.324-.045-.397-.25-.446a2.279 2.279 0 0 0-.374-.064c-.025-.019-.016-.099.01-.115"/></g><g><path fill="#fefefe" d="M32.007 193.075c0-.006.016-.041.023-.041.09.016.176.035.364.035.27 0 .432-.042.602-.138.406-.237.506-.638.506-1.093 0-.74-.346-1.349-1.408-1.349-.087 0-.27.01-.324.032-.025.01-.05.042-.057.106-.01.196-.026.805-.026 1.913 0 .529-.022 1.455 0 2.096.01.448.083.48.336.529.112.025.26.041.371.057.036.016.026.116.01.122-.202 0-.675-.022-.966-.022-.359 0-.797.022-.935.022-.025-.016-.032-.106-.01-.122a2.7 2.7 0 0 0 .381-.057c.173-.049.263-.033.285-.494.016-.247.035-.692.035-1.897 0-.497.007-1.592-.01-1.82-.015-.279-.047-.407-.252-.455a2.677 2.677 0 0 0-.403-.067c-.01-.026.006-.112.022-.122.138 0 .503.026.877.026.39 0 .656-.016 1.104-.016.285 0 .746.064 1.04.298.253.205.474.522.48 1.035.01.756-.413 1.204-.845 1.416-.25.112-.477.17-.77.17-.123 0-.27-.01-.36-.042a.33.33 0 0 1-.07-.122"/></g><g><path fill="#fefefe" d="M35.952 190.31c.153 0 .476.026.934.026.438 0 .614-.02.835-.026.02.026.02.096 0 .122-.099.01-.265.041-.349.067-.16.048-.217.112-.227.346-.01.131-.016 1.548-.016 1.865 0 1.666-.01 2.13.026 2.269.016.07.064.08.08.086.09.02 1.616.026 1.715.02.054-.01.112-.036.122-.106.022-.311.022-1.58.022-2.279 0-.788 0-1.746-.01-1.861-.012-.202-.044-.253-.17-.311-.102-.048-.21-.064-.422-.096-.016-.032-.016-.096 0-.122.116 0 .285.026.861.026.439 0 .611-.02.835-.026.02.032.01.096-.006.122-.096.01-.275.032-.355.057-.163.049-.205.138-.211.372-.016.132-.026 1.532-.026 1.849 0 1.666.01 2.057.026 2.253 0 .032.028.102.09.102.3.02 1.66.035 1.782 0 .025-.006.041-.029.05-.064.026-.186.017-.634.017-2.153 0-.385-.01-1.936-.016-2.067-.01-.122-.064-.227-.189-.27-.106-.038-.243-.054-.39-.08a.198.198 0 0 1 0-.121c.156 0 .505.026.88.026.323 0 .72-.026.85-.026.017.016.017.096 0 .122-.153.032-.297.048-.39.08-.166.058-.208.147-.217.458-.01.224-.026.917-.026 1.846 0 1.371 0 1.698.016 1.983.02.218.061.285.211.34.11.042.292.067.448.083.016.026.016.096-.016.122-.323 0-.521-.026-.822-.026h-4.992c-.31 0-.771.016-.96.026-.016-.01-.016-.106 0-.122.173-.025.326-.048.422-.083.237-.074.228-.212.244-.577a82.2 82.2 0 0 0 .019-1.862c0-.788-.01-1.73-.02-1.845-.015-.205-.047-.27-.169-.327-.106-.048-.314-.07-.486-.087-.026-.016-.016-.115 0-.131"/></g><g><path fill="#fefefe" d="M45.58 194.486c.495-1.17 1.225-3.259 1.404-3.75a2.29 2.29 0 0 0 .112-.406c.01 0 .077.01.189.01.121 0 .176-.01.185-.01.016.074.048.205.1.359.147.407 1.084 3.368 1.33 3.967.212.48.244.506.788.57.016.026.01.106-.016.122-.205-.007-.666-.023-.854-.023-.192 0-.73.007-.9.023-.01-.016-.016-.103 0-.122.164-.022.292-.042.407-.08.128-.058.128-.115.096-.227-.09-.35-.397-1.221-.554-1.67 0 0-.045-.038-.054-.038-.083-.01-.253-.01-.759-.01-.54 0-.582 0-.665.01-.023 0-.055.032-.064.057-.163.423-.493 1.317-.528 1.551-.023.148-.032.279.237.343.096.022.17.042.342.064.013.02.01.106-.01.122-.144 0-.57-.023-.924-.023-.397 0-.644.023-.765.023-.023-.007-.023-.103 0-.122.57-.074.65-.138.902-.74m1.543-3.513c-.128.34-.535 1.556-.656 1.912 0 .032.006.051.032.057.07.01.275.01.713.01.18 0 .496 0 .535-.01.01 0 .025-.025.016-.057-.192-.62-.487-1.563-.608-1.919-.007 0-.032 0-.032.007"/></g><g><path fill="#fefefe" d="M54.661 194.486c.496-1.17 1.235-3.252 1.405-3.723.058-.164.1-.327.115-.433.01 0 .074.01.186.01.121 0 .179-.01.189-.01.016.074.044.227.096.385.147.435 1.088 3.342 1.33 3.94.212.481.244.507.788.571.02.026 0 .116-.016.122a16.534 16.534 0 0 0-1.76 0c-.006-.016-.016-.106 0-.122.16-.022.291-.042.403-.08.131-.058.131-.115.1-.227-.154-.548-.957-2.987-1.268-3.92 0-.009-.025 0-.032 0-.22.658-1.12 3.138-1.293 3.634-.121.34-.041.471.205.53.096.022.131.031.343.063.016.016.006.106-.01.122-.147 0-.56-.023-.918-.023-.397 0-.64.023-.762.023-.016-.006-.016-.115 0-.122.566-.074.65-.138.9-.74"/></g><g><path fill="#fefefe" d="M60.74 190.31c.148 0 .57.026.941.026.343 0 .586-.026.781-.026.016.026.026.096.007.122-.122.016-.26.032-.33.048-.18.048-.214.17-.23.423a83.005 83.005 0 0 0-.006 3.8c.015.25.04.388.242.445.116.033.263.058.413.074.026.026.01.106-.01.122-.166 0-.46-.026-.815-.026-.397 0-.56.026-.983.026-.025-.026-.019-.106 0-.122.112-.01.266-.035.362-.057.205-.042.237-.164.253-.35.016-.195.025-1.602.025-2.278 0-.609 0-1.243-.016-1.618-.025-.196-.019-.365-.201-.414a3.732 3.732 0 0 0-.442-.073c-.022-.016-.006-.106.01-.122"/></g><g><path fill="#fefefe" d="M64.72 190.31c.258 0 .68.026.934.026.438 0 .614-.02.835-.026.016.026.016.106-.007.122-.099.01-.252.032-.336.057-.16.049-.227.087-.233.356-.02.327-.02.878-.02 1.727 0 .032.02.055.036.064.016.01.128.016 1.51.016.803 0 1.274 0 1.347-.006.016 0 .032-.035.032-.042 0-.426 0-1.56-.016-1.813-.01-.154-.048-.244-.16-.286a2.362 2.362 0 0 0-.416-.073c-.025-.026-.025-.096 0-.122.157 0 .496.026.868.026.336 0 .732-.026.864-.026.016.026.025.096 0 .122-.148.025-.279.041-.368.073-.17.058-.234.113-.244.465-.01.224-.025.917-.025 1.846 0 .705.01 1.714.025 1.958.016.22.058.31.212.365.105.042.21.058.444.083.02.026.02.096-.016.122-.323 0-.518-.026-.892-.026-.372 0-.71.016-.91.026-.025-.032-.015-.096 0-.122.138-.016.254-.025.407-.064.173-.051.211-.115.218-.407.01-.205.01-1.278.01-1.781 0-.032-.017-.058-.033-.058-.115-.007-.934-.007-1.363-.007-.57 0-1.408 0-1.494.007-.016 0-.035.042-.035.048 0 .417.01 1.554.019 1.676.022.279.006.439.205.496.112.033.176.055.444.09.016.026 0 .112-.025.122-.253-.01-.56-.026-.867-.026-.31 0-.765.016-.95.026-.026-.026-.026-.096 0-.122a2.43 2.43 0 0 0 .412-.083c.237-.074.237-.26.253-.625.006-.301.006-1.115.006-1.814 0-.788-.006-1.73-.016-1.845-.016-.244-.086-.317-.208-.35-.121-.032-.246-.041-.448-.073-.025-.026-.019-.096 0-.122"/></g><g><path fill="#fefefe" d="M72.17 190.31c.147 0 .57.026.944.026.339 0 .585-.026.777-.026.016.026.026.096.01.122-.122.016-.26.032-.333.048-.179.048-.21.17-.23.423a55.526 55.526 0 0 0-.023 1.865c0 .762.007 1.666.016 1.935.016.25.042.388.244.445.115.033.262.058.412.074.026.026.01.106-.006.122-.17 0-.46-.026-.82-.026-.396 0-.56.026-.982.026-.025-.026-.016-.106 0-.122a3 3 0 0 0 .365-.057c.205-.042.234-.164.25-.35.02-.195.025-1.602.025-2.278 0-.609 0-1.243-.016-1.618-.025-.196-.016-.365-.201-.414a3.773 3.773 0 0 0-.439-.073c-.025-.016-.01-.106.007-.122"/></g><g><path fill="#fefefe" d="M80.178 190.49c-.157.031-.285.105-.294.31a97.458 97.458 0 0 0-.023 2.08c0 .432.02 1.596.023 1.813.01.302.083.423.278.472.09.025.253.041.368.057.016.007.007.116-.01.122-.121 0-.579-.022-.905-.022-.34 0-.746.022-.842.022-.006-.016-.016-.106 0-.122.202-.022.27-.041.375-.064.147-.051.201-.115.217-.465.016-.3.01-1.21.01-1.643 0-.016-.02-.055-.038-.055-.141 0-.157 0-.285.016-.279.032-.448.196-.563.343-.372.478-.884 1.26-1.194 1.593-.147.17-.25.243-.371.291-.24.106-.66.148-.944.132-.016-.01-.026-.1-.016-.116.374-.032.432 0 .838-.439.371-.407 1.168-1.656 1.523-1.83.01-.006.02-.015 0-.031-.64-.154-1.158-.61-1.158-1.327 0-.73.534-1.307 1.642-1.307.281 0 .704.016.953.016.215 0 .544-.026.743-.026.016.01.025.109 0 .122a7.044 7.044 0 0 0-.327.057m-1.43 0c-.592 0-1.037.366-1.037 1.058 0 1.179.989 1.291 1.626 1.269.012 0 .038-.026.038-.042 0-.535 0-1.852-.026-2.13 0-.033-.032-.08-.08-.097-.096-.032-.236-.058-.521-.058"/></g><g><path fill="#fefefe" d="M85.902 195.139c.233-.074.233-.26.25-.625.009-.301.009-1.115.009-1.814 0-.788-.01-1.733-.016-1.845-.02-.205-.058-.295-.211-.35-.106-.041-.275-.057-.448-.073-.026-.016-.016-.116 0-.122.259 0 .681.022.934.022h3.37c.323 0 .713-.022.851-.022.01.032.016.09 0 .112-.15.035-.272.048-.355.083-.18.055-.243.122-.253.43-.006.237-.022.952-.022 1.878 0 .708-.01 1.707.022 1.951.02.221.051.317.211.375.1.042.211.058.448.08.007.02.007.1-.016.122-.163 0-.521-.023-.886-.023-.371 0-.723.016-.915.023-.016-.007-.016-.112 0-.122.147-.013.364-.048.476-.096.122-.058.138-.18.148-.375.016-.253.006-1.666.006-2.016 0-.374.01-1.999-.016-2.124-.006-.032-.048-.054-.054-.054-.1-.02-2.592-.01-2.72 0-.02 0-.036.041-.036.048-.016.121-.016 1.772-.016 2.146 0 .334.01 1.561.016 1.888.01.275.026.445.221.503.115.032.195.048.429.08 0 .035.01.109-.016.122-.38-.007-.566-.023-.877-.023-.31 0-.761.016-.95.023a.26.26 0 0 1 0-.122c.173-.022.317-.048.416-.08"/></g><g><path fill="#fefefe" d="M92.964 190.31c.179 0 .416.026.86.026h1.569c.3 0 .7-.01.822-.026.006 0 .02.016.02.026-.071.266-.123.762-.142 1.031-.019.016-.109.023-.13.01a2.829 2.829 0 0 0-.068-.48c-.058-.196-.112-.327-.464-.343-.211-.007-1.11-.016-1.239 0-.06.01-.086.073-.086.115-.013.291-.02 1.836-.013 1.91 0 .032.007.067.023.067.205.013 1.065.006 1.302-.01.26-.016.307-.147.349-.269.032-.09.058-.195.08-.301.022-.016.128-.01.138.01a5.317 5.317 0 0 0-.055.72c0 .353.016.53.016.651-.025.035-.121.042-.137.01-.02-.122-.026-.186-.052-.276-.025-.1-.057-.27-.332-.285a16.02 16.02 0 0 0-1.3-.007c-.019 0-.032.055-.032.065-.006.137 0 1.349.013 1.83.01.21.119.275.199.29.163.033.454.049 1.03.049.496 0 .595-.106.698-.208.121-.11.31-.417.441-.734.016-.007.087.032.106.057-.042.26-.247.862-.336 1.016-.048.08-.07.09-.487.09-.406 0-.656-.026-1.926-.026-.54 0-.736.026-1.047.026-.016-.016-.022-.096 0-.122.205-.016.368-.025.512-.064.196-.051.263-.14.285-.474.007-.122.016-1.08.016-2.038 0-.808-.01-1.59-.016-1.711-.019-.324-.048-.397-.253-.446a2.279 2.279 0 0 0-.374-.064c-.022-.019-.016-.099.01-.115"/></g><g><path fill="#fefefe" d="M98.5 190.31c.148 0 .413.026.855.026.371 0 .64-.026.746-.026.016.016.016.096 0 .122-.39.067-.439.131-.458.291-.013.164-.006.718 0 1.02.026.973.707 1.054 1.194 1.054.304 0 .675-.065.944-.202a.112.112 0 0 0 .016-.042c0-.545.01-1.43-.016-1.74-.013-.218-.064-.275-.26-.333a2.81 2.81 0 0 0-.316-.048c-.016-.016-.016-.106 0-.122.236 0 .48.026.86.026.496 0 .708-.026.861-.026.026.016.026.106.01.122a4.026 4.026 0 0 0-.368.073c-.176.049-.237.113-.243.398a89.39 89.39 0 0 0-.026 1.865s.01 1.74.026 2.057c.016.17.057.282.275.34.099.022.22.041.38.057.02.026.01.106-.012.122-.221 0-.423-.026-.829-.026-.512 0-.698.026-.966.026-.016-.01-.016-.122 0-.122.112-.01.243-.025.355-.048.23-.051.253-.163.259-.628.01-.423.01-1.307.01-1.778 0-.01-.016-.042-.026-.036-.371.206-.842.35-1.264.35-.486 0-.893-.09-1.178-.462-.121-.163-.204-.416-.204-.903 0 0-.01-.61-.01-.805 0-.237-.045-.374-.282-.432a2.737 2.737 0 0 0-.342-.048c-.016-.032-.016-.09.01-.122"/></g><g><path fill="#fefefe" d="M105.254 190.31c.182 0 .416.026.864.026h1.565c.303 0 .7-.01.822-.026.006 0 .022.016.022.026-.073.266-.121.762-.144 1.031-.016.016-.108.023-.13.01a2.829 2.829 0 0 0-.068-.48c-.058-.196-.112-.327-.464-.343-.208-.007-1.11-.016-1.239 0-.057.01-.083.073-.083.115a57.642 57.642 0 0 0-.013 1.91c0 .032.004.067.02.067.204.013 1.065.006 1.302-.01.26-.016.307-.147.349-.269.032-.09.057-.195.08-.301.025-.016.131-.01.137.01a5.317 5.317 0 0 0-.054.72c0 .353.016.53.016.651-.025.035-.121.042-.137.01a1.705 1.705 0 0 0-.052-.276c-.022-.1-.057-.27-.33-.285a16.106 16.106 0 0 0-1.302-.007c-.016 0-.029.055-.029.065-.01.137 0 1.349.013 1.83.007.21.115.275.195.29.164.033.458.049 1.03.049.497 0 .596-.106.702-.208.121-.11.307-.417.438-.734.016-.007.09.032.106.057-.042.26-.244.862-.336 1.016-.045.08-.07.09-.487.09-.406 0-.656-.026-1.926-.026-.54 0-.736.026-1.047.026-.016-.016-.022-.096 0-.122.205-.016.368-.025.512-.064.196-.051.263-.14.285-.474.007-.122.016-1.08.016-2.038 0-.808-.01-1.59-.016-1.711-.016-.324-.048-.397-.253-.446a2.23 2.23 0 0 0-.37-.064c-.026-.019-.017-.099.006-.115"/></g><g><path fill="#fefefe" d="M112.375 193.075c0-.006.016-.041.026-.041.086.016.176.035.365.035.265 0 .429-.042.601-.138.407-.237.503-.638.503-1.093 0-.74-.343-1.349-1.405-1.349-.09 0-.269.01-.323.032-.026.01-.051.042-.061.106-.006.196-.022.805-.022 1.913 0 .529-.023 1.455 0 2.096.006.448.083.48.332.529.116.025.26.041.375.057.032.016.025.116.006.122-.201 0-.672-.022-.966-.022-.355 0-.797.022-.935.022-.025-.016-.028-.106-.006-.122a2.7 2.7 0 0 0 .38-.057c.17-.049.263-.033.286-.494.016-.247.032-.692.032-1.897 0-.497.01-1.592-.007-1.82-.019-.279-.048-.407-.253-.455a2.73 2.73 0 0 0-.406-.067c-.01-.026.01-.112.026-.122.137 0 .502.026.873.026.39 0 .66-.016 1.107-.016.285 0 .746.064 1.04.298.25.205.47.522.48 1.035.01.756-.416 1.204-.844 1.416-.253.112-.48.17-.772.17a1.26 1.26 0 0 1-.361-.042.384.384 0 0 1-.07-.122"/></g><g><path fill="#fefefe" d="M120.294 190.565c-.269-.131-.586-.186-1.03-.186-1.287 0-2.039.91-2.039 2.333 0 1.56.893 2.522 2.314 2.522.237 0 .65-.026.973-.334.22-.211.342-.407.528-.73.025-.01.118.029.118.064-.118.42-.442.99-.611 1.064a4.08 4.08 0 0 1-1.162.17c-1.731 0-2.755-.975-2.755-2.683 0-.884.384-1.74 1.27-2.214.43-.234.957-.381 1.658-.381.63 0 1.117.131 1.482.163-.055.238-.138.83-.148 1.148-.012.022-.14.048-.14.016-.084-.677-.205-.83-.458-.952"/></g><g><path fill="#fefefe" d="M123.698 195.135c.163-.038.18-.137.205-.43.016-.259.026-.82.026-1.925 0-1.253 0-1.692-.02-1.97-.016-.218-.083-.286-.204-.315-.144-.041-.324-.057-.397-.067-.016-.016-.007-.106.01-.122.249.007.518.026.844.026.34 0 .64-.032.839-.032.016.022.016.096 0 .122a5.704 5.704 0 0 0-.352.054c-.176.048-.212.138-.218.433-.01.34-.02.846-.02 1.55 0 .02.026.036.026.036.34-.026.644-.035.877-.035 1.088 0 1.536.644 1.536 1.326 0 .66-.371 1.18-1.03 1.433-.237.09-.474.137-1.024.137-.365 0-1.11-.016-1.6-.016-.016-.01-.026-.105 0-.121.179-.026.326-.042.502-.084m2.592-1.15c0-.87-.464-1.32-1.472-1.32-.265 0-.281.006-.371.016-.016 0-.035.042-.035.058 0 .504 0 1.761.019 2.07.006.074.022.148.08.196.18.132.464.164.656.164.813 0 1.123-.556 1.123-1.183"/></g><g><path fill="#fefefe" d="M129.037 195.182c.31-.057.327-.195.34-.609.01-.374.016-1.586.016-1.919 0-.333 0-1.432-.016-1.765-.007-.212-.023-.35-.25-.398a2.826 2.826 0 0 0-.374-.057c-.026-.026-.016-.116.01-.122.162 0 .534.025.889.025.39 0 .646-.032.79-.025.032.006.042.115 0 .122-.153.025-.18.025-.281.048-.247.048-.256.179-.263.464-.006.317-.006 1.243-.006 1.708 0 .016.006.032.029.032.528 0 .716-.154.844-.343.164-.234.253-.387.416-.714.535-1.1.839-1.439 1.341-1.439.042 0 .17.042.227.09.016.006.048.073.048.09 0 .13-.057.371-.112.445-.025.032-.067.048-.077.041-.086-.057-.29-.163-.412-.163-.234 0-.381.147-.66.692-.345.683-.598 1.128-.841 1.292-.01.01-.016.025-.01.035.122.064.221.16.365.349.358.487.71.952 1.091 1.43.567.707.71.717 1.29.733.032 0 .016.122-.01.122-.192.032-.835-.01-.95-.026a.69.69 0 0 1-.46-.218c-.276-.269-.798-1.025-1.358-1.781-.233-.318-.406-.487-.749-.487-.006 0-.022.016-.022.032 0 .407.01 1.544.016 1.893.006.28.048.343.269.4.096.023.17.04.349.065.032.026.025.106 0 .122-.122 0-.618-.026-.925-.026-.295 0-.611.016-.855.026-.032 0-.032-.116-.016-.122z"/></g><g><path fill="#fefefe" d="M136.1 194.486c.493-1.17 1.222-3.259 1.405-3.75a2.29 2.29 0 0 0 .112-.406c.006 0 .073.01.189.01.121 0 .176-.01.182-.01.02.074.051.205.102.359.144.407 1.085 3.368 1.332 3.967.208.48.243.506.787.57.016.026.006.106-.016.122-.205-.007-.666-.023-.855-.023-.195 0-.73.007-.902.023-.006-.016-.016-.103 0-.122a2.22 2.22 0 0 0 .406-.08c.132-.058.132-.115.096-.227-.086-.35-.396-1.221-.55-1.67 0 0-.048-.038-.054-.038-.084-.01-.253-.01-.759-.01-.54 0-.582 0-.665.01-.023 0-.055.032-.064.057-.164.423-.496 1.317-.528 1.551-.026.148-.032.279.233.343.1.022.173.042.346.064.013.02.006.106-.01.122-.147 0-.57-.023-.925-.023-.4 0-.646.023-.768.023-.019-.007-.019-.103 0-.122.57-.074.65-.138.906-.74m1.54-3.513c-.132.34-.539 1.556-.66 1.912 0 .032.01.051.035.057.07.01.275.01.711.01.18 0 .5 0 .538-.01.007 0 .026-.025.016-.057-.192-.62-.487-1.563-.608-1.919-.01 0-.032 0-.032.007"/></g><g><path fill="#fefefe" d="M153.473 75.306l-9.382 9.391L80.59 21.082l.928-.932 58.25 58.328.073.102 3.021-3.05-3.146-3.172-.073-.077-1.261 1.237-.931-.933 6.64-6.649zm-9.385 7.53l7.513-7.53-7.411-7.406-.102-.102-3.543 3.554 4.172 4.178-3.945 3.954 3.242 3.25z"/></g><g><path fill="#fefefe" d="M19.196 77.123l.93.932-6.64 6.65-9.356-9.396 9.357-9.369 63.533 63.59-.935.932-57.971-58.05-.1-.073-3.167 3.172 2.89 2.897.08.074zm-2.31 2.299l-3.902-3.906 4.1-4.107-3.524-3.505-.073-.1-7.495 7.51 7.396 7.433.099.102z"/></g><g><path fill="#fefefe" d="M87.08 19.622l48.336 48.405.931-.933L88.011 18.69z"/></g><g><path fill="#fefefe" d="M135.813 57.634L97.461 19.23l-.931.93 38.355 38.406z"/></g><g><path fill="#fefefe" d="M71.407 132.124L23.071 83.72l-.931.958 48.31 48.404z"/></g><g><path fill="#fefefe" d="M22.77 93.992l38.378 38.433.93-.933L23.702 93.06z"/></g><g><path fill="#fefefe" d="M87.08 131.394l.931.933 48.336-48.379-.931-.958z"/></g><g><path fill="#fefefe" d="M96.33 130.69l.931.906 38.352-38.407-.931-.929z"/></g><g><path fill="#fefefe" d="M71.407 18.867l-.957-.907-48.31 48.379.931.932z"/></g><g><path fill="#fefefe" d="M61.873 19.352l-.931-.932L22.59 56.827l.931.932z"/></g><g><path fill="#fefefe" d="M81.52 134.06l6.64 6.65-9.358 9.394-9.382-9.395 63.507-63.589.957.932-58.25 58.325 3.242 3.224 3.174-3.147-1.462-1.461zm1.458 3.31l-4.102 4.126-4.173-4.178-3.42 3.397 7.42 7.425.1.1 7.497-7.525-3.248-3.247z"/></g><g><g/><g clip-path="url(#rp87b)"><path fill="#fefefe" d="M76.056 16.558l-6.64-6.623L78.798.54l9.354 9.395-63.526 63.59-.906-.93 58.096-58.203-2.89-2.87-.08-.1-3.04 3.047 1.181 1.157zm-1.175-3.047l3.969-3.954 3.899 3.906 3.467-3.451.077-.077-7.418-7.428-.073-.102-7.516 7.53z"/></g></g><g><path fill="#fefefe" d="M89.188 64.302c-.022.025-.048.077-.073.125-.73 1.387-3.12 6.27-3.267 10.1-.077 1.538.297 2.823 1.03 3.553.502.503 1.206.753 2.06.753h.228c2.966-.15 8.653-1.736 11.392-4.707 2.467-2.695 2.112-6.373-.906-9.42-.428-.427-.88-.882-1.33-1.285l-.228-.225c-2.493-2.419-4.854-4.684-5.056-7.229-.077-.554-.605-5.492 1.587-7.43.877-.779 1.86-.955 2.765-.53 1.533.731 2.413 2.898 2.362 4.484a7.015 7.015 0 0 1-.503 2.467l-.1.253.254-.074c.678-.179 1.232-.506 1.657-1.009.528-.654.653-1.66.327-2.592-.1-.33-.25-.606-.426-.833a2.068 2.068 0 0 1-.477-1.634c.877.25 1.632 1.031 1.984 2.089.452 1.333.253 2.743-.528 3.7-1.456 1.763-3.798 1.539-3.897 1.539l-.752-.103c-.051 0-.106-.051-.128-.1a.163.163 0 0 1 .022-.179l.506-.576s.854-1.01.93-2.97c.027-1.311-.802-2.974-1.708-3.426-.505-.228-1.008-.103-1.536.352-1.51 1.333-1.385 5.086-1.206 6.447l.025.026c.15 2.115 2.362 4.23 4.704 6.495.503.478 1.03 1.006 1.559 1.538 3.443 3.451 3.82 7.883.928 11.004-2.992 3.223-8.928 4.912-12.173 5.063-.1.025-.198.025-.3.025-1.16 0-2.116-.378-2.842-1.108-.957-.959-1.46-2.519-1.383-4.406.077-1.663.528-3.679 1.357-5.97l.176-.455-.374.33c-1.866 1.637-3.828 2.644-5.562 3.525l-.1.051c-.553.276-1.08.551-1.558.83a1.283 1.283 0 0 1-.076-.856c.099-.326.326-.58.627-.756l.579-.301c2.566-1.285 5.734-2.922 8.048-6.498.128-.177.227-.353.352-.555l.1-.176c1.26-2.467 2.089-6.572 1.007-10.2-.051-.227-.15-.451-.224-.704l-.128.051-.128.023c.381 2.32.106 4.787-.224 6.197-1.005 4.181-4.198 6.344-8.678 8.36-3.872 1.736-4.426 4.886-4.474 6.171-.025.68.928 2.291 1.834 3.778l.051.1c.176.278.326.528.477.781l.205.378c.272.478 1.155 2.368 1.456 6.422.352 4.608.979 7.075 3.545 7.783 1.283.35 2.691.375 3.82.375 1.764.051 2.846.128 2.846 1.16-.026.756-.304 4.028-1.533 5.136-1.184 1.083-1.888.907-3.978.404h-.022c-.48-.102-.906.026-1.283.404-.554.58-.906 1.608-.855 2.518l.023.1.077.025c.832.151 1.836.731 2.14 1.535.074.128.125.176.173.202.128.051.403.051 1.034-.026.25-.022.553-.048.88-.073.3-.026.605-.026.88-.051h.15c1.408-.077 2.768-.125 3.12-.933.176-.404.5-1.359.877-2.467 1.536-4.634 2.317-6.624 3.12-6.976h.074v-.074c.025-.051.076-.278-.074-.682-.25-.705-.803-1.333-1.357-1.586-.352-.151-1.059-.125-1.712-.103-1.13.051-2.438.103-3.142-.727-.4-.455-.528-1.135-.378-1.99.125-.756.253-1.41.378-2.041.403-2.013.678-3.474.528-5.214.3 0 .576.128.806.33.25.225.403.552.375.904-.023 1.362-.276 2.67-.58 4.207l-.025.103c-.125.602-.224 1.205-.349 1.913-.1.503-.051.855.125 1.057.33.375 1.36.353 2.237.327.806-.051 1.584-.077 2.192.176 1.305.555 2.163 2.115 2.134 3.198 0 .58-.275 1.032-.73 1.26l-.048.025c-.528.477-1.51 3.3-2.492 6.245-.4 1.208-.701 2.14-.903 2.57-.656 1.458-2.416 1.535-4.125 1.612h-.05c-.302.025-.631.048-.932.048-.326.026-.627.077-.88.102-.3.026-.605.049-.88.049-.58 0-1.056-.151-1.456-.882l-.051-.099c-.103-.352-.906-.83-1.51-.83h-.074c-.253.026-.531-.176-.608-.404v-.025c-.349-1.359.105-3.147 1.081-4.13.656-.654 1.485-.93 2.343-.706h.048c2.013.478 2.214.503 2.944-.15.755-.657 1.081-3.073 1.133-4.057v-.1l-.103-.025c-.326-.074-1.03-.1-1.558-.1h-.051c-1.184-.025-2.666-.05-4.1-.429-3.52-.958-4.048-4.556-4.377-8.815-.051-.503-.1-1.006-.15-1.483l-.026-.103-.1-.025c-2.111-.1-4.025-1.234-5.683-3.323l-.076-.103-.074.052c-1.283.705-5.558 3.098-6.893 5.011-1.081 1.59-1.961 3.778-.051 5.415.58.503 1.536 1.058 2.467 1.612 1.885 1.134 3.069 1.865 3.242 2.695.051.304 0 .554-.15.807a7.244 7.244 0 0 0-.426.728c-.656 1.16-1.712 3.098-3.549 2.496-2.486-.808-3.696-.48-4.25-.077-.428.327-.704.881-.803 1.637v.125l.1.026c1.107.301 1.686 1.285 1.836 1.56 0 .052.023.077.048.077l.029.026c.15.1.678.15 1.885.15h.477c.579 0 1.107.026 1.484.052 1.258.074 1.61.048 2.039-.529.275-.33.777-1.086 1.357-1.942l.048-.073c2.592-3.855 3.398-4.887 3.926-5.089.15-.025.25-.202.278-.378.026-.176-.028-.426-.403-.653-.179-.125-.605-.25-1.033-.353-1.13-.327-2.538-.705-3.143-1.814-.304-.58-.326-1.285-.073-2.066.7-2.189 4.448-2.97 6.736-3.246.028.43.08.804.128 1.13-1.658.203-5.255.834-5.783 2.471-.153.478-.153.856.023 1.157.352.68 1.51 1.01 2.438 1.26.528.15.982.278 1.309.48.653.4 1.008 1.057.931 1.76a1.579 1.579 0 0 1-.98 1.335l-.025.026c-.48.352-1.987 2.544-3.347 4.582l-.026.051c-.652.958-1.155 1.715-1.459 2.064-.803 1.06-1.734 1.035-2.94.958h-.125c-.404-.022-.88-.074-1.434-.048-2.288.026-2.97-.026-3.398-.859-.125-.25-.602-1.032-1.482-1.032a.57.57 0 0 1-.58-.58v-.048c0-1.435.43-2.518 1.284-3.15 1.133-.804 2.89-.855 5.28-.073.78.25 1.36-.455 2.189-1.968l.025-.048c.128-.227.253-.455.378-.653l.051-.077-.051-.051c-.304-.452-1.709-1.285-2.64-1.862-.931-.529-1.962-1.16-2.64-1.74-1.965-1.66-2.013-4.179-.125-6.899 1.405-2.067 5.43-4.383 7.114-5.29l.128-.074-.077-.102c-.454-.702-.778-1.36-1.008-1.814l.429-.074c.253-.051.502-.1.733-.176.953 1.887 2.963 4.986 6.083 5.364l.179.026-.026-.177c-.304-1.486-.63-2.368-.806-2.771-.15-.302-.502-.907-.58-1.007-.098-.15-.172-.3-.278-.455-.876-1.432-1.61-2.691-1.881-3.675l-.077-.227-.154.176c-.902 1.109-1.932 1.737-3.241 2.015-1.687.327-3.7-.503-5.482-1.208-1.21-.48-2.243-.88-2.617-.756-1.056.327-1.812.051-2.164-.15l-.076-.026-.052.051c-.4.25-1.13.856-1.606 1.836-.506 1.06-1.008 1.186-1.712 1.083-.3-.048-.576-.1-1.206.404a.565.565 0 0 1-.452.125.511.511 0 0 1-.377-.276c-.704-1.108-.73-3.425-.73-3.675v-.33l.275-.15c1.21-.78 2.64-1.888 2.82-2.317.3-1.006.803-1.689 1.507-2.09.678-.352 1.481-.403 2.413-.124.956.3 2.566.374 4.377.224l.279-.026-.176-.198c-.43-.404-1.386-.834-1.434-.86-.278-.05-.506-.073-.63-.099a5.792 5.792 0 0 1-3.645-1.762l-.051-.051-.554.227-.227-.128c-.224-.125-.983-.654-1.408-2.897-.227-1.156.022-2.643.227-3.928.15-.904.275-1.814.224-2.214l-.026-.176-.172.099c-.33.202-.679.253-1.056.125-.932-.327-1.312-1.157-1.51-1.66l-.052-.077c-.15-.125-.576-.253-.832-.301h-.1a.49.49 0 0 1-.322-.228.479.479 0 0 1-.08-.378l.025-.099c.304-1.234 1.283-3.25 2.944-2.849.253.077.528.129.858.18h.022c1.51.301 3.395.68 3.824 2.089.125.404.25.984.429 1.663.352 1.51.906 3.8 1.46 4.633.476.731.751 1.007.85 1.135l.026.025h.051c1.159.276 3.52.78 5.434 1.058a9.284 9.284 0 0 0-1.309.955 71.782 71.782 0 0 1-4.525-.933l-.08-.022c-.125-.051-.425-.154-1.379-1.564-.707-1.006-1.235-3.323-1.635-5.011-.18-.654-.304-1.234-.429-1.612-.227-.753-1.734-1.058-2.944-1.282a12.767 12.767 0 0 1-.928-.202h-.128c-.554 0-.982.83-1.206 1.359l-.052.125.125.026c.506.201.832.477.957.807l.026.048c.224.529.403.881.832 1.035h.099l.025-.026c.602-.48 1.13-.403 1.61.2.502.605.326 1.713.074 3.248-.199 1.208-.404 2.57-.224 3.528.176 1.006.425 1.56.601 1.862l.077.077.326-.128a.556.556 0 0 1 .679.201c.025 0 .275.379.829.782.681.529 1.484.808 2.364.907.253.026 1.51.202 2.567.804.605.28 1.03.86 1.257 1.186l.026.074.1-.023a24.68 24.68 0 0 0 3.372-.807l.048-.026.026-.025c1.081-1.763 3.372-2.82 5.785-3.977l.1-.026c.755-.378 1.558-.756 2.364-1.16 3.245-1.66 6.765-5.085 7.293-8.36.202-1.285-.048-2.518-.755-3.653l-.323-.503.073.58c.176 1.157 0 2.14-.477 2.897l-.025.048v.026a6.195 6.195 0 0 1-.125 1.512c-.403 1.737-2.138 3.297-5.283 4.71-1.005.452-1.91.856-2.743 1.234-5.004 2.189-6.89 3.022-7.593 6.043-.403.125-.807.225-1.235.327.454-2.544 1.484-3.928 3.875-5.287l.073-.051-.022-.103c-.051-.25-.15-.528-.227-.753a5.033 5.033 0 0 1-.301-1.083v-.05l-.077-.052c-1.21-.58-1.837-1.836-1.987-2.214l1.056-.404c.176.378.832 1.586 1.987 1.762.855.15 1.786-.932 2.541-1.788.429-.477.778-.907 1.155-1.134.15-.1.554-.375 1.463.43.272.227.425.554.4.906 0 .301-.128.606-.327.804-.403-.451-.78-.83-1.005-1.006l-.076-.051-.074.077c-.205.176-.429.452-.682.73-.755.856-1.76 2.038-3.017 2.192h-.15l.047.15c.052.126.077.25.128.353.052.177.125.353.176.555l.052.125.124-.052c.932-.477 2.01-.929 3.242-1.483.806-.356 1.738-.756 2.72-1.211 2.765-1.26 4.323-2.567 4.653-3.929.678-2.996-2.115-4.887-2.743-5.236.202-.304.55-.506.932-.506.252 0 .528.102.726.279.58.503 1.11 1.105 1.485 1.736l.278.452-.051-.528c-.048-.805-.326-1.712-.78-2.541-.753-1.362-1.786-2.292-2.791-2.493l-.1-.026-.076.227a95.593 95.593 0 0 0-.98 2.718.601.601 0 0 1-.553.403c-.733.077-2.218.228-3.776.606-2.538.73-3.066 1.208-3.194 1.384l-.025.048.025.077c.026.077.103.177.18.28l.099.15 5.833-1.41a1.274 1.274 0 0 1-.979 1.41l-1.987.477-.077.026-.025.077c0 .073-.026.15-.026.202v.173l.15-.023c.08-.026.154-.026.253-.077l.679-.202c.33-.099.652-.048.956.1.253.153.455.381.554.657-.198.05-.704.201-1.862.554-.301.1-.602.125-.855.1a1.133 1.133 0 0 1-.7-.328c-.18-.201-.279-.477-.305-.804v-.15l-1.734.426c-.707.253-2.192.958-2.742 1.788-.128.202-.15.455-.052.73l.052.125.128-.073a.609.609 0 0 1 .777.25l.253.528c-.806.43-1.158.529-1.235.529l-.323.102-.23-.278c-.452-.478-.98-1.56-.324-2.567.602-.881 1.734-1.512 2.56-1.916l.131-.048-.077-.128c-.227-.4-.304-.757-.179-1.132.279-.807 1.437-1.435 4-2.166h.026a26.177 26.177 0 0 1 3.549-.605h.073l.051-.077c.298-.878.701-1.987.906-2.567.1-.227.15-.378.15-.378a.535.535 0 0 1 .503-.378h.15c1.13 0 2.291.654 3.293 1.84l.278.124a6.9 6.9 0 0 1 1.36.654c2.212 1.086 3.796 3.047 4.576 5.694 1.005 3.448.55 7.883-1.107 11.03zm-1.363-8.889l-.279.68c-1.41 3.425-4.852 6.145-7.392 7.456-.855.452-1.683.83-2.515 1.233-3.397 1.587-5.48 2.67-5.758 4.858-.074.606-.528 1.086-1.13 1.237a6.535 6.535 0 0 1 .026-1.586l.048-.18-.198.052c-3.372.907-7.547 1.134-9.508.554-.627-.202-1.132-.176-1.532.026-.425.253-.755.705-.953 1.41-.18.605-1.235 1.586-2.994 2.72l-.052.051v.074c0 .352.077 1.26.253 1.99l.048.15.128-.073a2.156 2.156 0 0 1 1.382-.154c.026 0 .074 0 .128.026h.051l.048-.048c.051-.052.125-.177.25-.43.905-1.836 2.44-2.567 2.514-2.592l.026-.026c.227-.077.48-.025.63.176.099.1.55.404 1.433.125.78-.227 1.91.228 3.394.808 1.532.628 3.468 1.41 4.802 1.131 1.859-.378 2.914-1.66 3.947-3.8v.073l.253-.58c.829-1.964 2.335-3.45 4.55-4.431 4.276-1.939 7.114-3.877 8.02-7.581.15-.705.274-1.66.325-2.618z"/></g></g></g></svg>