<svg xmlns="http://www.w3.org/2000/svg" width="160" height="132" viewBox="0 0 160 132"><g><g><g><g><path fill="#fff" d="M54.519 109.815c-3.297-.454-6.529-.694-9.555-1.884-5.986-2.354-7.4-3.824-9.515-9.972-1.237-.026-1.964.901-2.83 1.52a62.275 62.275 0 0 1-13.784 7.271 18.258 18.258 0 0 1-11.144.704c-3.96-.953-6.231-3.408-7.107-7.361-1.519-6.866.066-13.271 3.117-19.31C9.747 68.808 18.328 58.757 28.713 50.09c8.863-7.403 18.335-13.851 28.99-18.494 6.215-2.709 12.623-4.94 19.548-5.194.778-.041 1.56-.02 2.335.061 1.342.063 2.593.701 3.43 1.751a4.645 4.645 0 0 1 .937 3.73c-.318 2.478-1.3 4.805-2.179 7.461a3.833 3.833 0 0 0 2.776-1.898c3.94-4.883 8.659-9.067 12.919-13.675 5.241-5.656 9.982-11.697 15.09-17.45a50.556 50.556 0 0 1 5.512-5.218 9.028 9.028 0 0 1 2.007-1.15.87.87 0 0 1 1.16.33c.134.294.14.63.017.93a5.4 5.4 0 0 1-.906 1.351c-2.783 2.967-5.552 5.951-8.395 8.863a593.06 593.06 0 0 0-24.3 26.5c-.712.825-1.31 1.743-1.973 2.639 1.18.463 1.53-.539 2.063-1.028a27.798 27.798 0 0 1 7.492-4.845c.796-.357 1.668-.924 2.494-.24.906.753.67 1.813.302 2.73a40.904 40.904 0 0 1-2.468 5.349c-2.079 3.61-4.768 6.852-6.573 10.617-.368.772-.717 1.553-1.191 2.591 1.83.123 2.58-1.06 3.453-1.907 4.735-4.615 9.416-9.282 14.155-13.89a60.918 60.918 0 0 1 4.481-3.908c.634-.503 1.522-1.3 2.325-.38.617.705-.064 1.437-.552 2.014-4.484 5.286-8.007 11.237-12.119 16.783a2.247 2.247 0 0 0-.677 2.019 44.178 44.178 0 0 0 7.28-7.06 133.15 133.15 0 0 1 10.275-10.27 24.826 24.826 0 0 1 3.513-2.491c.696-.445 1.509-1.382 2.335-.565.826.817-.283 1.56-.62 2.287-1.569 3.402-3.897 6.332-6.106 9.34a20.356 20.356 0 0 0-3.707 6.773c2.908-3.093 5.787-6.223 8.735-9.281 8.109-8.413 14.43-18.245 22.39-26.777 3.755-4.025 7.448-8.095 12.065-11.228a4.794 4.794 0 0 1 2.06-1.021c1.771-.234 2.85.93 2.23 2.546a12.406 12.406 0 0 1-1.646 2.827c-4.566 6.178-9.548 12.032-14.606 17.824-5.13 5.874-10.108 11.886-15.471 17.551-4.438 4.69-8.6 9.723-14.224 13.225a7.458 7.458 0 0 0-1.782 1.92 387.43 387.43 0 0 0-5.505 7.398c-1.618 2.235-1.522 2.422 1.38 2.853 1.316.195 2.652.275 3.98.421 4.37.477 8.526 1.512 12.137 4.174 3.127 2.305 3.416 4.993.667 7.628a51.729 51.729 0 0 1-10.152 7.397 137.114 137.114 0 0 1-30.326 12.709 14.932 14.932 0 0 0-7.426 5.21 174.463 174.463 0 0 1-12.559 13.975 36.4 36.4 0 0 1-8.626 6.11 10.487 10.487 0 0 1-5.489 1.138c-3.362-.195-4.656-2.102-3.827-5.328 1.373-5.312 4.51-9.667 7.724-13.997.322-.437.644-.875.952-1.323.05-.072.006-.205.006-.681m22.993-63.086a4.266 4.266 0 0 1-.013.049l.044-.022.006-.06a1.453 1.453 0 0 0-.036.033m1.217-1.776a2.294 2.294 0 0 0-1.18 1.743c.543-.48 1.527-.669 1.18-1.743zm-3.19 4.375l-.031.018a6.106 6.106 0 0 1-.013.04l.037-.02.007-.038zm-2.668 3.267a5.967 5.967 0 0 1-.038.021 3.402 3.402 0 0 1-.009.04l.035-.02.012-.041zM70.49 55.2a3.46 3.46 0 0 0 2.34-2.546 5.878 5.878 0 0 0-2.34 2.546zm7.014-8.423a3.663 3.663 0 0 0-1.959 2.55 4.251 4.251 0 0 0 1.959-2.55zM75.5 49.386a5.568 5.568 0 0 0-2.624 3.209 5.708 5.708 0 0 0 2.624-3.209zM62.872 64.501c-.726.146-1.542.742-2.086-.184-.448-.765.066-1.459.5-2.098a8.67 8.67 0 0 1 .591-.79c2.842-3.347 5.592-6.775 8.552-10.019 4.483-4.916 8.45-10.13 10.709-16.406 1.827-5.081.71-6.7-4.855-6.44-5.95.275-11.618 2.096-17.012 4.397a119.667 119.667 0 0 0-35.84 24.095A85.66 85.66 0 0 0 4.963 82.08a47.226 47.226 0 0 0-3.284 9.917c-.525 2.353-.465 4.799.173 7.124.989 3.723 3.333 6.142 7.24 6.827 3.07.61 6.249.336 9.168-.791a71.83 71.83 0 0 0 15.485-8.948 4.879 4.879 0 0 0 2.184-2.782c1.201-5.107 4.56-8.878 8.16-12.488a60.427 60.427 0 0 1 12.75-9.428 17.694 17.694 0 0 0 6.86-6.897 3.147 3.147 0 0 0-.828-.114zm-8.518 43.072c2.965.048 3.005.092 5.701-2.111 4.188-3.42 8.318-6.9 12.464-10.364 1.353-1.132 2.733-2.238 3.996-3.457.753-.724.494-1.602-.552-1.602-2.862-.01-4.268-2.203-5.97-3.763-2.453-2.244-2.198-4.8.233-7.128a14.357 14.357 0 0 1 7.763-3.54c6.026-1.045 12.032-2.245 18.142-2.786 2.543-.224 3.034-1.032 2.332-3.435a5.02 5.02 0 0 0-2.056-2.878 12.38 12.38 0 0 0-4.86-2.062c-8.208-1.407-15.922.535-23.47 3.386a22.072 22.072 0 0 0-9.545 6.36 190.497 190.497 0 0 1-15.173 16.06 211.136 211.136 0 0 0-4.238 4.174 3.959 3.959 0 0 0-1.306 3.855c.583 2.38 1.563 4.426 3.874 5.83a23.516 23.516 0 0 0 12.665 3.464m28.386-5.343c.569.444 1.341.529 1.993.217a129.056 129.056 0 0 0 29.885-12.814 45.454 45.454 0 0 0 7.724-5.677c2.442-2.209 2.342-4.282-.328-6.2a12.848 12.848 0 0 0-4.252-1.848 56.639 56.639 0 0 0-11.864-1.633 5.212 5.212 0 0 0-4.98 2.511c-4.533 6.33-9.237 12.54-13.82 18.832a46.875 46.875 0 0 0-4.357 6.61m13.14-65.198l-.001.004h.003M65.631 66.718a60.196 60.196 0 0 1 24.857-4.388c1.426.068 2.195-.872 2.77-2.004a42.784 42.784 0 0 1 3.595-5.494c2.758-3.866 5.425-7.796 8.33-11.986a7.46 7.46 0 0 0-2.782 2.295c-4.262 5.224-9.588 9.381-14.503 13.95-.317.307-.653.594-1.005.86-.633.467-1.33.934-2.115.395a1.699 1.699 0 0 1-.504-1.79c.22-.956.58-1.875 1.065-2.728 1.994-4.533 4.912-8.522 7.691-12.59a20.056 20.056 0 0 0 2.85-6.202c-6.466.9-29.155 24.339-30.25 29.682zm-15.412 62.777c2.664-.316 5.2-1.32 7.356-2.913 6.823-4.851 12.076-11.217 17.406-17.502.41-.483.948-1.051.384-1.71-.405-.47-1.048-.31-1.575-.17-4.322 1.137-8.775 1.41-13.19 1.949a7.7 7.7 0 0 0-5.174 2.661 40.533 40.533 0 0 0-6.979 10.676 13.3 13.3 0 0 0-.809 4.475c-.103 1.897.69 2.589 2.584 2.536m44.5-54.568c-6.553 1.248-13.571 1.683-20.237 3.904-.103.036-.213.066-.312.11-1.847.84-3.817 1.765-3.77 4.057.04 2.203 1.798 3.386 3.701 4.194 1.012.431 2.207.503 3.127 1.05 1.83 1.09 3.144.368 4.444-.825 1.614-1.49 3.24-2.965 4.848-4.456.73-.675 1.453-1.553 2.445-1.61 3.11-.168 4.772-2.555 6.964-4.118.61-.308.944-.98.822-1.652-.262-.837-1.094-.522-2.03-.651M61.319 106.38a5.79 5.79 0 0 0 1.387.43 70.43 70.43 0 0 0 15.07-2.649 3.822 3.822 0 0 0 1.705-.96 84.752 84.752 0 0 0 7.89-10.913c.398-.613.388-1.497-.485-1.527-3.035-.107-6.161-.905-8.839 1.56-2.825 2.61-5.903 4.957-8.827 7.462-2.494 2.134-5.334 3.875-7.9 6.597m51.044-49.598v.002h.005m-1.839 1.143c-.882.67-1.824 1.66-2.925.875-1.195-.85-.322-1.952.176-2.908.099-.191.229-.373.344-.558a120.952 120.952 0 0 1 7.154-10.621c.899-1.145 1.748-2.329 2.62-3.496a10.829 10.829 0 0 0-4.258 2.753c-4.481 4.67-8.53 9.742-13.565 13.903-1.522 1.261-2.855 2.74-4.275 4.122-.7.685-1.208 1.385-.017 2.079a8.618 8.618 0 0 1 4.69 6.73c.136 1.235 1.061 1.274 1.9.433a14.325 14.325 0 0 0 1.493-1.754c2.643-3.636 5.269-7.282 7.877-10.939.354-.502.861-1.009.62-1.762-.954-.139-1.266.715-1.834 1.143zm6.714-2.715c1.005-.963 2.033-1.904 3.015-2.89 6.828-6.862 13.143-14.184 19.61-21.368a226.27 226.27 0 0 0 16.145-19.938c.501-.703 1.864-1.49.832-2.425-.865-.789-1.834.15-2.593.788-.338.283-.659.585-.962.905-7.165 7.598-14.305 15.206-20.613 23.527-1.791 2.36-2.985 5.15-4.978 7.267a130 130 0 0 0-9.21 11.163 4.181 4.181 0 0 0-1.247 2.97m-21.445 25.26c-3.065 1.627-6.069 3.13-9.09 4.63a11.951 11.951 0 0 0-3.47 2.996c-.518.591-.56 1.205.25 1.575 1.81.827 5.677.178 6.759-1.276 1.92-2.59 3.707-5.278 5.552-7.924M39.353 90.905c5.23-4.533 10.451-9.115 14.583-14.713-6.257 3.563-11.437 8.146-14.583 14.713"/></g></g><g><g><path fill="#fff" d="M80.182 86.222c.276-.072.46.036.388.266-.053.155-.272.286-.448.36-.26.116-.451-.013-.375-.256.05-.153.282-.25.435-.37"/></g></g></g></g></svg>